<?xml version="1.0" encoding="UTF-8" standalone="no"?>
<svg
   xmlns:dc="http://purl.org/dc/elements/1.1/"
   xmlns:cc="http://creativecommons.org/ns#"
   xmlns:rdf="http://www.w3.org/1999/02/22-rdf-syntax-ns#"
   xmlns:svg="http://www.w3.org/2000/svg"
   xmlns="http://www.w3.org/2000/svg"
   xmlns:xlink="http://www.w3.org/1999/xlink"
   xmlns:sodipodi="http://sodipodi.sourceforge.net/DTD/sodipodi-0.dtd"
   xmlns:inkscape="http://www.inkscape.org/namespaces/inkscape"
   width="1440px"
   height="1491px"
   viewBox="0 0 1440 1491"
   version="1.1"
   id="svg388"
   sodipodi:docname="background_start_desktop.svg"
   inkscape:version="0.92.4 (5da689c313, 2019-01-14)">
  <metadata
     id="metadata392">
    <rdf:RDF>
      <cc:Work
         rdf:about="">
        <dc:format>image/svg+xml</dc:format>
        <dc:type
           rdf:resource="http://purl.org/dc/dcmitype/StillImage" />
        <dc:title>Desktop HD</dc:title>
      </cc:Work>
    </rdf:RDF>
  </metadata>
  <sodipodi:namedview
     pagecolor="#ffffff"
     bordercolor="#666666"
     borderopacity="1"
     objecttolerance="10"
     gridtolerance="10"
     guidetolerance="10"
     inkscape:pageopacity="0"
     inkscape:pageshadow="2"
     inkscape:window-width="1920"
     inkscape:window-height="1017"
     id="namedview390"
     showgrid="false"
     inkscape:zoom="0.80432804"
     inkscape:cx="720"
     inkscape:cy="914.86711"
     inkscape:window-x="-8"
     inkscape:window-y="-8"
     inkscape:window-maximized="1"
     inkscape:current-layer="svg388" />
  <!-- Generator: Sketch 51.1 (57501) - http://www.bohemiancoding.com/sketch -->
  <title
     id="title268">Desktop HD</title>
  <desc
     id="desc270">Created with Sketch.</desc>
  <defs
     id="defs277">
    <linearGradient
       x1="50%"
       y1="93.1922893%"
       x2="50%"
       y2="0%"
       id="linearGradient-1">
      <stop
         stop-color="#FFFFFF"
         stop-opacity="0"
         offset="0%"
         id="stop272" />
      <stop
         stop-color="#FFFFFF"
         offset="100%"
         id="stop274" />
    </linearGradient>
    <linearGradient
       inkscape:collect="always"
       xlink:href="#linearGradient-1"
       id="linearGradient426"
       x1="537.99628"
       y1="1922.1537"
       x2="537.99628"
       y2="919.41156"
       gradientTransform="scale(1.3382992,0.74721706)"
       gradientUnits="userSpaceOnUse" />
    <linearGradient
       inkscape:collect="always"
       xlink:href="#linearGradient-1"
       id="linearGradient428"
       x1="534.2602"
       y1="1010.7719"
       x2="534.2602"
       y2="8.0297953"
       gradientTransform="scale(1.3382992,0.74721706)"
       gradientUnits="userSpaceOnUse" />
  </defs>
  <g
     id="Desktop-HD"
     transform="translate(3.729821,7.459643)"
     style="fill:none;fill-rule:evenodd;stroke:none;stroke-width:1">
    <g
       id="Untitled-1"
       transform="matrix(-0.94551858,-0.32556815,-0.32556815,0.94551858,2178.7413,-207.59831)"
       style="stroke:#3535ff">
      <path
         d="m 583.9198,438.40763 c 0,0 483.0425,-186.24226 427.4849,-37.98972 -49.07591,131.26527 -181.48819,81.23004 64.5085,313.80121 65.7432,62.38962 -190.74774,116.13116 -303.71486,130.95641 C 659.23121,860.00079 531.44873,939.37767 501.2007,803.78837 470.95267,668.19906 583.9198,438.40763 583.9198,438.40763 Z"
         id="Shape"
         inkscape:connector-curvature="0"
         style="stroke-opacity:0.6828861" />
      <path
         d="m 546.92537,376.40763 c 0,0 308.5455,-85.46451 422.09024,-47.51456 41.65369,13.88412 69.42279,32.39629 64.48599,71.27184 -8.9478,72.19746 -35.17416,82.99622 -27.7691,133.90468 7.0966,48.74871 77.7535,108.29618 145.325,214.74115 42.8878,67.56941 -223.07844,151.79977 -348.965,155.50221 C 676.20593,908.32392 549.39373,951.51897 496.63245,857.10692 476.577,821.31673 414.25081,698.51935 449.42499,616.1402 493.547,511.85499 546.92537,376.40763 546.92537,376.40763 Z"
         id="path280"
         inkscape:connector-curvature="0"
         style="stroke-opacity:0.6860847" />
      <path
         d="m 509.46446,312.28522 c 0,0 362.65355,-74.05575 472.00565,-0.30857 38.30409,25.91952 69.19459,48.75337 74.44589,85.47268 10.1939,70.66153 12.6651,75.29001 24.0946,134.22604 12.3561,65.10735 117.0747,140.39735 146.4205,249.01245 C 1246.8188,856.59496 970.96736,968.29571 831.65156,961.1987 692.33576,954.10169 540.66379,974.15846 490.93021,908.74255 453.8617,899.48558 325.66645,721.13466 378.18017,621.77653 439.65211,505.75586 509.46446,312.28522 509.46446,312.28522 Z"
         id="path282"
         inkscape:connector-curvature="0"
         style="stroke-opacity:0.69446333" />
      <path
         d="m 472.91777,251.26885 c 0,0 416.46977,-64.54202 521.12748,47.24846 35.19465,37.67525 69.15435,65.15965 84.28185,99.74676 29.9463,69.17423 61.1275,67.63016 75.9463,134.9515 17.9061,81.83558 152.5101,176.33251 147.5705,283.7996 -4.0134,86.7766 -287.7315,223.58093 -439.93287,205.36103 C 709.7097,1003.8473 546.08555,994.27412 487.11912,963.70158 438.03187,978.21582 238.59565,746.29688 308.67618,630.49182 386.78355,502.02541 472.91777,251.26885 472.91777,251.26885 Z"
         id="path284"
         inkscape:connector-curvature="0"
         style="stroke-opacity:0.6843014" />
      <path
         d="m 434.47091,188.05128 c 0,0 471.5515,-54.93731 570.61439,94.75144 32.4037,49.07322 69.7451,81.48006 94.1251,113.8869 50.6116,67.28278 109.2469,59.8755 127.4547,135.49147 23.7627,97.83779 183.9298,211.41606 148.7486,318.20432 C 1343.3185,947.2973 1055.6968,1109.9488 890.28345,1080.3197 724.8701,1050.6906 549.58132,1011.4937 480.76196,1015.506 419.34917,1053.7769 148.70082,768.59671 236.96243,636.80889 331.39617,495.76197 434.47091,188.05128 434.47091,188.05128 Z"
         id="path286"
         inkscape:connector-curvature="0"
         style="stroke-opacity:0.67524342" />
      <path
         d="m 397.8367,125.90752 c 0,0 527.1763,-45.675819 620.0803,142.27401 29.9392,60.4896 70.0639,97.52405 103.7068,128.07747 71.2985,65.11891 157.7208,52.15685 179.3264,135.79298 29.6305,114.18955 213.5866,244.42736 150.0045,352.44451 C 1388.9158,990.04467 1098.7836,1180.1548 920.38323,1139.417 741.98282,1098.6791 549.69311,1020.9067 476.23411,1069.0515 395.9848,1121.8256 60.480911,792.21899 166.96558,644.38981 277.77137,490.38823 397.8367,125.90752 397.8367,125.90752 Z"
         id="path288"
         inkscape:connector-curvature="0"
         style="stroke-opacity:0.6736583" />
      <path
         d="m 361.87743,64.624928 c 0,0 583.39615,-36.119288 669.51657,189.857792 27.4721,71.92987 70.6866,113.29726 113.5925,142.31618 91.9852,62.35979 206.195,44.4545 231.1977,136.45064 35.4976,130.58512 243.5447,275.37098 150.9422,387.12468 C 1434.8325,1031.8192 1142.8257,1251.6221 951.13841,1199.7585 759.4511,1147.8949 557.57751,1045.7112 472.69183,1123.5066 383.48469,1205.3153 -27.05334,816.64703 97.960122,652.72103 224.51696,486.01662 361.87743,64.624928 361.87743,64.624928 Z"
         id="path290"
         inkscape:connector-curvature="0"
         style="stroke-opacity:0.67563973" />
      <path
         d="m 323.59023,0.72471015 c 0,0 639.6937,-26.24325915 718.69107,237.11555985 78.9974,263.35883 365.0544,146.96225 406.4046,293.61576 41.3502,146.96225 274.0221,305.03929 152.1316,421.74461 C 1478.927,1069.906 1184.2298,1320.6063 979.63886,1257.3137 775.04796,1194.3299 564.2854,1066.201 466.46441,1175.4965 368.64343,1284.7919 -116.75849,838.65653 26.115689,658.65865 168.98987,478.66077 323.59023,0.72471015 323.59023,0.72471015 Z"
         id="path292"
         inkscape:connector-curvature="0"
         style="stroke-opacity:0.67513021" />
    </g>
    <g
       id="g311"
       transform="translate(-1106,492)"
       style="stroke:#3535ff">
      <path
         d="m 978.76238,590.26856 c 0,0 812.32752,-250.69216 718.89682,-51.13621 -82.5303,176.69017 -305.2067,109.34003 108.4834,422.39343 110.5596,83.97982 -320.7785,156.31882 -510.7542,176.27442 -189.9756,19.9556 -404.86607,126.8012 -455.73386,-55.7094 C 788.78675,899.58029 978.76238,590.26856 978.76238,590.26856 Z"
         id="path295"
         inkscape:connector-curvature="0"
         style="stroke-opacity:0.6828861" />
      <path
         d="m 918.34639,508.17356 c 0,0 517.81621,-115.24613 708.37261,-64.07185 69.9051,18.72229 116.5086,43.68535 108.2235,96.10778 -15.0166,97.35594 -59.031,111.91773 -46.6034,180.56615 11.9098,65.73606 130.4897,146.03391 243.8914,289.57156 71.9765,91.1151 -374.3811,204.6971 -585.6501,209.6897 -211.269,5.4086 -424.09148,63.6558 -512.63805,-63.6558 C 800.28429,1108.1192 695.68542,942.53084 754.71647,831.44521 828.76418,690.81997 918.34639,508.17356 918.34639,508.17356 Z"
         id="path297"
         inkscape:connector-curvature="0"
         style="stroke-opacity:0.6860847" />
      <path
         d="m 855.35313,422.50753 c 0,0 608.92667,-99.86396 792.53837,-0.4161 64.3159,34.95238 116.1836,65.74377 125.0011,115.25965 17.1163,95.28686 21.2658,101.52836 40.4568,181.00343 20.7471,87.79706 196.5786,189.32542 245.8528,335.79259 34.2327,102.3605 -428.9458,252.9887 -662.869,243.4184 -233.9233,-9.5703 -488.5937,17.4762 -572.10068,-70.737 C 761.99128,1214.3455 546.74036,973.83981 634.91544,839.85566 738.13215,683.40212 855.35313,422.50753 855.35313,422.50753 Z"
         id="path299"
         inkscape:connector-curvature="0"
         style="stroke-opacity:0.69446333" />
      <path
         d="m 793.45906,337.97041 c 0,0 699.02734,-86.94855 874.69104,63.65133 59.0727,50.75466 116.0727,87.7806 141.4637,134.37504 50.2636,93.18888 102.6,91.10877 127.4727,181.80152 30.0546,110.24577 255.9819,237.54843 247.6909,382.324 -6.7363,116.9021 -482.9455,301.1998 -738.4092,276.6545 -255.4636,-24.9613 -530.10003,-37.858 -629.07278,-79.0441 C 734.9045,1317.2857 400.159,1004.8533 517.78629,848.84515 648.88631,675.7801 793.45906,337.97041 793.45906,337.97041 Z"
         id="path301"
         inkscape:connector-curvature="0"
         style="stroke-opacity:0.6843014" />
      <path
         d="m 728.17065,254.28248 c 0,0 792.00705,-74.12609 958.39075,127.84667 54.4246,66.21375 117.1424,109.93981 158.0904,153.66588 85.006,90.78363 183.4886,80.7891 214.07,182.81658 39.9113,132.01106 308.9242,285.26049 249.8347,429.34829 -53.9063,130.7617 -536.9891,350.2249 -814.8136,310.2468 -277.8244,-39.9781 -572.23544,-92.8658 -687.82286,-87.4521 C 702.77252,1422.393 248.19778,1037.6036 396.43994,859.78432 555.04869,669.47184 728.17065,254.28248 728.17065,254.28248 Z"
         id="path303"
         inkscape:connector-curvature="0"
         style="stroke-opacity:0.67524342" />
      <path
         d="m 668.57424,168.58954 c 0,0 885.60366,-61.59832 1041.67316,191.87044 50.2948,81.57616 117.7002,131.52074 174.2171,172.72502 119.7743,87.81923 264.9552,70.33862 301.2504,183.13014 49.7763,153.9958 358.8043,329.63426 251.9926,475.30596 -104.2192,142.3421 -591.6123,398.7243 -891.3072,343.7852 -299.6949,-54.939 -622.72243,-159.8226 -746.12622,-94.8947 C 665.46322,1511.6826 101.85014,1067.1758 280.73378,867.81371 466.87646,660.12749 668.57424,168.58954 668.57424,168.58954 Z"
         id="path305"
         inkscape:connector-curvature="0"
         style="stroke-opacity:0.6736583" />
      <path
         d="m 607.25145,85.856005 c 0,0 978.91765,-48.67226 1123.42455,255.841365 46.0971,96.92852 118.6096,152.67282 190.604,191.77703 154.3479,84.03245 345.9878,59.90432 387.9415,183.87298 59.5637,175.96894 408.6592,371.07402 253.2755,521.66682 -154.8658,150.1768 -644.8426,446.3704 -966.487,376.482 C 1274.3657,1545.6078 935.62911,1407.9111 793.19401,1512.7436 643.50766,1622.9842 -45.36029,1099.2374 164.40777,878.34024 376.76556,653.69904 607.25145,85.856005 607.25145,85.856005 Z"
         id="path307"
         inkscape:connector-curvature="0"
         style="stroke-opacity:0.67563973" />
      <path
         d="m 543.21328,0.9772216 c 0,0 1073.85852,-35.3872226 1206.47202,319.7339684 132.6134,355.12119 612.8193,198.16845 682.2342,395.92058 69.4149,198.16845 460.0031,411.32443 255.3846,568.69353 -204.6185,157.369 -699.329,495.4211 -1042.7772,410.0754 C 1301.0787,1610.4714 947.27001,1437.6985 783.05721,1585.0759 618.84441,1732.4532 -196.00334,1130.8704 43.840598,888.15572 283.68453,645.441 543.21328,0.9772216 543.21328,0.9772216 Z"
         id="path309"
         inkscape:connector-curvature="0"
         style="stroke-opacity:0.67513021" />
    </g>
    <rect
       id="Rectangle-2"
       transform="matrix(1,0,0,-1,0,2178)"
       x="0"
       y="687"
       width="1440"
       height="804"
       style="fill:url(#linearGradient426)" />
    <rect
       id="rect314"
       x="-5"
       y="6"
       width="1440"
       height="804"
       style="fill:url(#linearGradient428)" />
    <circle
       id="Oval-2"
       cx="263.43338"
       cy="377.83572"
       r="42"
       style="fill:#fff66e" />
    <circle
       id="circle317"
       cx="343.88678"
       cy="592.8302"
       r="11.5"
       style="fill:#e21111" />
    <circle
       id="circle319"
       cx="579.13666"
       cy="873.34186"
       r="10.5"
       style="fill:#e21111" />
    <circle
       id="circle321"
       cx="1305.7982"
       cy="694.07068"
       r="10.5"
       style="fill:#e21111" />
    <circle
       id="circle323"
       cx="966.17828"
       cy="293.9888"
       r="10.5"
       style="fill:#e21111" />
    <g
       id="house-outline"
       transform="translate(48,224)"
       style="fill:#4a4a4a;fill-rule:nonzero">
      <path
         d="m 234.9546,149.31922 c -1.0063,0 -1.78563,0.70508 -1.78563,1.62408 v 22.18425 h -12.66232 v -9.05873 c 0,-0.84982 -0.77922,-1.59271 -1.72124,-1.59271 h -9.15544 c -1.00712,0 -1.81823,0.7428 -1.81823,1.59271 v 9.05873 h -12.63043 v -21.4477 c 0,-0.85626 -0.77852,-1.5675 -1.78563,-1.5675 -0.94131,0 -1.72054,0.71124 -1.72054,1.5675 v 23.07187 c 0,0.85616 0.77923,1.5675 1.72054,1.5675 h 16.23429 c 0.94131,0 1.72053,-0.71134 1.72053,-1.5675 v -9.05882 h 5.64917 v 9.05882 c 0,0.85616 0.77923,1.5675 1.78574,1.5675 h 16.16919 c 0.94141,0 1.72054,-0.71134 1.72054,-1.5675 v -23.80833 c 0,-0.919 -0.77913,-1.62417 -1.72054,-1.62417 z"
         id="path325"
         inkscape:connector-curvature="0" />
      <path
         d="M 245.16921,151.41132 231.0688,137.65956 v -9.37647 c 0,-0.97606 -0.81239,-1.72987 -1.81949,-1.72987 -0.94267,0 -1.72233,0.75391 -1.72233,1.72987 V 134.22 l -11.63134,-11.36223 c -0.3564,-0.35005 -0.77977,-0.53855 -1.20192,-0.53855 -0.48729,0 -0.91004,0.19519 -1.26705,0.53855 l -29.20843,28.36504 c -0.70075,0.67983 -0.74715,1.77031 0,2.39632 0.64948,0.72695 1.76822,0.67982 2.46897,0 l 28.00651,-27.1333 27.94138,27.38909 c 0.29106,0.28275 0.71462,0.4443 1.26705,0.4443 0.48729,0 0.90934,-0.16155 1.26706,-0.4443 0.65009,-0.6327 0.69862,-1.77699 0,-2.4636 z"
         id="path327"
         inkscape:connector-curvature="0" />
    </g>
    <g
       id="Group"
       transform="translate(715,408)">
      <circle
         id="circle330"
         cx="442.33417"
         cy="94.217499"
         r="42"
         style="fill:#fff66e" />
      <g
         id="key-(1)"
         transform="translate(19,19)"
         style="fill:#000000;fill-rule:nonzero">
        <path
           d="m 433.0281,49.730959 c -8.70814,0 -15.79281,6.97457 -15.79281,15.54737 0,1.90585 0.34397,3.75789 1.02314,5.51667 l -15.10059,14.86699 c -0.21583,0.21257 -0.33712,0.5007 -0.33712,0.80113 v 8.13482 c 0,0.62576 0.51527,1.13302 1.15091,1.13302 h 6.80961 c 0.3049,0 0.59731,-0.11905 0.81314,-0.33117 l 2.29479,-2.25571 c 0.21629,-0.21257 0.33776,-0.50105 0.33776,-0.80185 v -2.77402 h 2.81424 c 0.63564,0 1.15091,-0.50725 1.15091,-1.13302 v -1.11047 h 1.12809 c 0.63555,0 1.15091,-0.50725 1.15091,-1.13301 v -2.438 h 2.47648 c 0.30518,0 0.59786,-0.11941 0.81379,-0.33189 l 3.66152,-3.60462 c 1.78682,0.66925 3.66837,1.00832 5.60504,1.00832 8.70814,0 15.79281,-6.97457 15.79281,-15.54737 9e-5,-8.57262 -7.08449,-15.54719 -15.79262,-15.54719 z m 0,28.82852 c -1.88384,0 -3.70579,-0.37456 -5.4154,-1.11343 -0.44208,-0.19101 -0.93991,-0.0859 -1.2659,0.22685 -0.004,0.003 -0.007,0.006 -0.0105,0.01 l -3.86531,3.80524 h -3.15064 c -0.63564,0 -1.15091,0.50726 -1.15091,1.13302 v 2.438 h -1.12809 c -0.63555,0 -1.1509,0.50726 -1.1509,1.13302 v 1.11047 h -2.81434 c -0.63555,0 -1.15091,0.50726 -1.15091,1.13302 v 3.43715 l -1.62017,1.59248 h -5.18233 v -1.60108 l 14.06723,-13.84851 c 0.40456,-0.39828 0.40456,-1.0439 0,-1.44209 -0.40457,-0.39818 -1.06019,-0.39836 -1.46503,0 l -12.6022,12.40644 v -2.047 l 15.3043,-15.06752 c 0.003,-0.003 0.006,-0.007 0.009,-0.01 0.31777,-0.32065 0.42491,-0.81075 0.23089,-1.24631 -0.74981,-1.68295 -1.12982,-3.4765 -1.12982,-5.33043 0,-7.32334 6.05204,-13.28133 13.49099,-13.28133 7.43895,0 13.49081,5.9579 13.49081,13.28133 -1.8e-4,7.32316 -6.05231,13.28106 -13.49108,13.28106 z"
           id="path332"
           inkscape:connector-curvature="0" />
        <path
           d="m 433.0281,59.730959 c -2.48135,0 -4.5,2.01865 -4.5,4.5 0,2.48134 2.01865,4.5 4.5,4.5 2.48135,0 4.5,-2.01866 4.5,-4.5 0,-2.48135 -2.01856,-4.5 -4.5,-4.5 z m 0,6.59724 c -1.15641,0 -2.09724,-0.94083 -2.09724,-2.09724 0,-1.15642 0.94083,-2.09725 2.09724,-2.09725 1.15641,0 2.09724,0.94083 2.09724,2.09725 0,1.15641 -0.94083,2.09724 -2.09724,2.09724 z"
           id="path334"
           inkscape:connector-curvature="0" />
      </g>
    </g>
    <circle
       id="circle338"
       cx="394.28775"
       cy="878.93396"
       r="42"
       style="fill:#fff66e" />
    <g
       id="horseshoe"
       transform="translate(96,873)"
       style="fill:#000000;fill-rule:nonzero">
      <path
         d="m 321.35853,13.471553 h -3.6496 c 2.96585,-5.3573487 3.54733,-14.614779 -0.59317,-22.2492813 -3.69051,-6.8118057 -10.38193,-10.5630727 -18.82656,-10.5630727 -8.44464,0 -15.13898,3.751267 -18.82657,10.5630727 -4.13174,7.6345023 -3.54733,16.8470072 -0.59609,22.2492813 h -3.6496 c -0.51428,0 -0.92921,0.40152 -0.92921,0.892891 v 6.404671 c 0,0.491371 0.41493,0.890084 0.92921,0.890084 h 12.59974 c 0.51135,0 0.9292,-0.398713 0.9292,-0.890084 0.006,-0.06177 0.006,-0.120737 0,-0.179701 v -6.253048 c 0,-0.165663 -0.0497,-0.328517 -0.14025,-0.468909 -2.78761,-4.3324888 -3.62331,-13.13785788 -0.31558,-18.8489934 2.10093,-3.5912199 5.43787,-5.4303516 9.99915,-5.4303516 4.56127,0 7.89529,1.8391317 10.02252,5.4556226 3.31065,5.70551952 2.5217,14.5193123 -0.2659,18.8461854 -0.0935,0.1432 -0.14026,0.308862 -0.14026,0.474524 v 6.404671 c 0,0.491371 0.41493,0.890084 0.9292,0.890084 h 12.52377 c 0.51428,0 0.9292,-0.398713 0.9292,-0.890084 v -6.404671 c 0,-0.491371 -0.41492,-0.892891 -0.9292,-0.892891 z m -0.92628,6.401863 h -10.72381 v -5.259074 c 3.02722,-4.9080954 3.83661,-14.18798838 0.22208,-20.4354204 -2.39606,-4.1443639 -6.42844,-6.3765916 -11.64132,-6.3765916 -5.21581,0 -9.24527,2.2322277 -11.61503,6.3765916 -3.61454,6.24743202 -2.7876,15.527325 0.22208,20.4354204 v 5.259074 h -10.75011 v -4.613273 h 4.37718 c 0.51136,-0.0056 0.92628,-0.40152 0.92628,-0.898507 0,-0.179701 -0.0584,-0.356595 -0.16655,-0.50541 -3.30773,-4.5458846 -4.30998,-14.16833298 -0.18409,-21.8112594 2.38729,-4.3774126 7.29628,-9.5999856 17.19024,-9.5999856 9.89395,0 14.80002,5.222573 17.18731,9.5999856 4.14342,7.64292642 3.14117,17.2653748 -0.16363,21.8000284 -0.29221,0.407135 -0.18994,0.963087 0.23376,1.243871 0.15486,0.103889 0.33895,0.160046 0.52596,0.160046 h 4.37719 z"
         id="path340"
         inkscape:connector-curvature="0" />
    </g>
    <circle
       id="circle343"
       cx="947.55853"
       cy="1203.3892"
       r="42"
       style="fill:#fff66e" />
    <g
       id="gift"
       transform="translate(749,1123)"
       style="fill:#000000;fill-rule:nonzero">
      <path
         d="m 223.12927,66.656445 h -10.08525 c 0.72356,-0.496649 1.34512,-0.990095 1.77862,-1.432273 2.56913,-2.5986 2.56913,-6.828134 0,-9.426734 -2.49581,-2.524903 -6.84993,-2.528107 -9.34893,0 -1.38019,1.393824 -5.049,7.068448 -4.54219,10.859007 h -0.2295 c 0.50362,-3.790559 -3.162,-9.465183 -4.54219,-10.859007 -2.499,-2.528107 -6.85312,-2.524903 -9.34894,0 -2.56912,2.5986 -2.56912,6.828134 -0.003,9.426734 0.43669,0.442178 1.05825,0.935624 1.78182,1.432273 h -10.08525 c -1.75632,0 -3.1875,1.438683 -3.1875,3.204193 v 8.01048 c 0,0.884357 0.714,1.602096 1.59375,1.602096 h 1.59375 v 19.225153 c 0,1.765513 1.43118,3.204193 3.1875,3.204193 h 38.25 c 1.75631,0 3.1875,-1.43868 3.1875,-3.204193 V 79.473214 h 1.59375 c 0.87975,0 1.59375,-0.717739 1.59375,-1.602096 v -8.01048 c 0,-1.76551 -1.43119,-3.204193 -3.1875,-3.204193 z m -34.05844,-8.600051 c 0.64706,-0.653655 1.5045,-1.012525 2.41613,-1.012525 0.90843,0 1.76587,0.35887 2.41293,1.012525 2.14838,2.172442 4.284,7.722103 3.54132,8.494313 0,0 -0.13388,0.105738 -0.58969,0.105738 -2.20256,0 -6.40688,-2.30061 -7.78069,-3.691229 -1.33556,-1.352169 -1.33556,-3.556653 0,-4.908822 z m 10.15219,40.641973 H 181.69177 V 79.473214 h 17.53125 z m 0,-22.429345 h -20.71875 v -6.408384 h 18.34725 2.3715 z m 8.51062,-18.212628 c 1.29413,-1.304107 3.53813,-1.300902 4.82907,0 1.33556,1.352169 1.33556,3.556653 0,4.908822 -1.37382,1.390619 -5.57813,3.691229 -7.78069,3.691229 -0.45581,0 -0.58969,-0.102534 -0.59288,-0.105738 -0.7395,-0.77221 1.39613,-6.321871 3.5445,-8.494313 z m 12.20813,40.641973 H 202.41052 V 79.473214 h 17.53125 z m 3.1875,-22.429345 h -20.71875 v -6.408384 h 2.3715 18.34725 z"
         id="path345"
         inkscape:connector-curvature="0" />
    </g>
    <circle
       id="circle348"
       cx="1343"
       cy="1232"
       r="34"
       style="fill:#fff66e" />
    <g
       id="building"
       transform="translate(1324,1213)"
       style="fill:#000000;fill-rule:nonzero">
      <path
         d="M 28.366689,35 H 10.633311 C 10.283739,35 10,35.448012 10,35.999971 v 2.000058 C 10,38.551988 10.283739,39 10.633311,39 c 0.349572,0 0.633311,-0.448012 0.633311,-0.999971 v -0.99997 H 28.366689 C 28.716261,37.000059 29,36.552046 29,36.000088 29,35.448129 28.716335,35 28.366689,35 Z"
         id="path350"
         inkscape:connector-curvature="0" />
      <path
         d="M 14,14.500015 C 14,14.775994 14.298672,15 14.666641,15 h 2.666718 C 17.701328,15 18,14.775994 18,14.500015 v -3.00003 C 18,11.224006 17.701328,11 17.333359,11 h -2.66664 c -0.367969,0 -0.666641,0.224006 -0.666641,0.499985 v 3.00003 z m 1.333359,-2.499986 h 1.33336 v 2 h -1.33336 z"
         id="path352"
         inkscape:connector-curvature="0" />
      <path
         d="M 9.2857382,8 H 0.7142618 C 0.32000737,8 0,8.2850964 0,8.6363399 V 21.36366 C 0,21.714904 0.32000737,22 0.7142618,22 1.1085162,22 1.4285236,21.714904 1.4285236,21.36366 V 9.2727544 H 9.2857382 C 9.6799926,9.2727544 10,8.987658 10,8.6364145 10,8.285171 9.6800763,8 9.2857382,8 Z"
         id="path354"
         inkscape:connector-curvature="0" />
      <path
         d="M 31,31.500015 C 31,31.775994 31.298678,32 31.666654,32 h 2.666692 C 34.701322,32 35,31.775994 35,31.500015 v -3.00003 C 35,28.224006 34.701322,28 34.333346,28 H 31.666654 C 31.298678,28 31,28.224006 31,28.499985 Z m 1.333385,-2.499986 h 1.333386 v 2 h -1.333386 z"
         id="path356"
         inkscape:connector-curvature="0" />
      <path
         d="M 3.0000703,24 C 0.03417241,24 0,32.04375 0,32.124976 c 0,1.509375 1.0326255,2.771264 2.400014,3.061889 v 3.188159 C 2.400014,38.719995 2.6688229,39 3,39 3.331177,39 3.5999859,38.719995 3.5999859,38.375024 V 35.186865 C 4.9673744,34.89624 5.9999999,33.634351 5.9999999,32.124976 6.0000702,32.04375 5.9658978,24 3.0000703,24 Z m 0,9.999976 c -0.9924061,0 -1.8000281,-0.84126 -1.8000281,-1.875 0,-3.113746 0.8028406,-6.875025 1.8000281,-6.875025 0.9971874,0 1.800028,3.761279 1.800028,6.875025 0,1.03374 -0.8076219,1.875 -1.800028,1.875 z"
         id="path358"
         inkscape:connector-curvature="0" />
      <path
         d="M 7.3334245,20 H 4.6666536 C 4.2986777,20 4,20.224003 4,20.499978 v 1.000015 c 0,0.275975 0.2986777,0.499978 0.6666536,0.499978 0.367976,0 0.6666537,-0.224003 0.6666537,-0.499978 v -0.499978 h 1.3333854 v 2.500007 C 6.6666927,23.775997 6.9653704,24 7.3333463,24 7.7013223,24 8,23.775997 8,23.500022 V 20.500037 C 8.0000781,20.224003 7.7014004,20 7.3334245,20 Z"
         id="path360"
         inkscape:connector-curvature="0" />
      <path
         d="m 31.666654,15 h 2.666692 C 34.701322,15 35,14.775994 35,14.500015 v -3.00003 C 35,11.224006 34.701322,11 34.333346,11 H 31.666654 C 31.298678,11 31,11.224006 31,11.499985 v 3.00003 C 31,14.775994 31.298678,15 31.666654,15 Z m 0.666731,-3.000029 h 1.333386 v 2 h -1.333386 z"
         id="path362"
         inkscape:connector-curvature="0" />
      <path
         d="M 7.3334245,11 H 4.6666536 C 4.2986777,11 4,11.224006 4,11.499985 v 3.00003 C 4,14.775994 4.2986777,15 4.6666536,15 H 7.3333463 C 7.7013223,15 8,14.775994 8,14.500015 v -3.00003 C 8.0000781,11.224006 7.7014004,11 7.3334245,11 Z M 6.6666927,14.000029 H 5.3333854 v -2 h 1.3333854 v 2 z"
         id="path364"
         inkscape:connector-curvature="0" />
      <path
         d="M 20,14.500015 C 20,14.775994 20.298678,15 20.666654,15 h 2.666692 C 23.701322,15 24,14.775994 24,14.500015 v -3.00003 C 24,11.224006 23.701322,11 23.333346,11 H 20.666654 C 20.298678,11 20,11.224006 20,11.499985 Z m 1.333307,-2.499986 h 1.333386 v 2 h -1.333386 z"
         id="path366"
         inkscape:connector-curvature="0" />
      <path
         d="M 38.285738,8 H 29.714262 C 29.320007,8 29,8.2893384 29,8.6458081 c 0,0.3564697 0.320007,0.6458081 0.714262,0.6458081 h 7.857214 V 35.243823 C 37.347228,35.17147 37.109336,35.125 36.857215,35.125 c -0.12355,0 -0.24643,0.0097 -0.367134,0.02906 -0.49286,-0.802776 -1.4307,-1.320755 -2.489997,-1.320755 -1.059297,0 -1.997138,0.517979 -2.489997,1.320755 -0.120704,-0.01938 -0.243584,-0.02906 -0.367134,-0.02906 -1.181424,0 -2.142869,0.869302 -2.142869,1.9375 0,1.068198 0.961445,1.9375 2.142869,1.9375 h 5.714178 C 38.038555,39 39,38.130698 39,37.0625 V 8.6458081 C 39,8.2893384 38.679993,8 38.285738,8 Z m -1.428607,29.708308 h -5.714346 c -0.393584,0 -0.714261,-0.289944 -0.714261,-0.645808 0,-0.355864 0.320677,-0.645808 0.714261,-0.645808 0.13711,0 0.267106,0.0355 0.38714,0.105276 0.195704,0.113676 0.440041,0.134338 0.655751,0.05555 0.21571,-0.07879 0.375002,-0.248015 0.427151,-0.452739 C 32.763581,35.536416 33.334288,35.125 34,35.125 c 0.665712,0 1.236419,0.411416 1.387173,0.99978 0.05215,0.204724 0.211441,0.373953 0.427151,0.452739 0.21504,0.07879 0.459963,0.05812 0.655751,-0.05555 0.464986,-0.27125 1.101401,0.0607 1.101401,0.540532 -8.3e-5,0.355864 -0.32076,0.645808 -0.714345,0.645808 z"
         id="path368"
         inkscape:connector-curvature="0" />
      <path
         d="m 20.666654,8 h 2.666692 C 23.701322,8 24,7.7759939 24,7.5000146 V 4.4999853 C 24,4.2240061 23.701322,4 23.333346,4 H 20.666654 C 20.298678,4 20,4.2240061 20,4.4999853 V 7.5000146 C 20,7.7759939 20.298678,8 20.666654,8 Z m 0.666653,-3.0000293 h 1.333386 v 2 h -1.333386 z"
         id="path370"
         inkscape:connector-curvature="0" />
      <path
         d="M 20,23.500015 C 20,23.775994 20.298678,24 20.666654,24 h 2.666692 C 23.701322,24 24,23.775994 24,23.500015 v -3.00003 C 24,20.224006 23.701322,20 23.333346,20 H 20.666654 C 20.298678,20 20,20.224006 20,20.499985 Z m 1.333307,-2.499986 h 1.333386 v 2 h -1.333386 z"
         id="path372"
         inkscape:connector-curvature="0" />
      <path
         d="m 14.666654,8 h 2.666692 C 17.701322,8 18,7.7759939 18,7.5000146 V 4.4999853 C 18,4.2240061 17.701322,4 17.333346,4 H 14.666654 C 14.298678,4 14,4.2240061 14,4.4999853 V 7.5000146 C 13.999922,7.7759939 14.2986,8 14.666654,8 Z m 0.666653,-3.0000293 h 1.333386 v 2 h -1.333386 z"
         id="path374"
         inkscape:connector-curvature="0" />
      <path
         d="M 20.145008,31.13964 C 20.055015,31.235209 20,31.366035 20,31.49686 c 0,0.130826 0.05502,0.261593 0.145008,0.357221 C 20.239981,31.944639 20.369991,32 20.5,32 20.630009,32 20.75996,31.94464 20.854992,31.854081 20.944985,31.758512 21,31.627686 21,31.49686 c 0,-0.130825 -0.05502,-0.261592 -0.145008,-0.35722 -0.190005,-0.186187 -0.519979,-0.186187 -0.709984,0 z"
         id="path376"
         inkscape:connector-curvature="0" />
      <path
         d="M 14,23.500015 C 14,23.775994 14.298672,24 14.666641,24 h 2.666718 C 17.701328,24 18,23.775994 18,23.500015 v -3.00003 C 18,20.224006 17.701328,20 17.333359,20 h -2.66664 c -0.367969,0 -0.666641,0.224006 -0.666641,0.499985 v 3.00003 z m 1.333359,-2.499986 h 1.33336 v 2 h -1.33336 z"
         id="path378"
         inkscape:connector-curvature="0" />
      <path
         d="m 11,28.666647 c 0,0.367973 0.246407,0.666647 0.549984,0.666647 H 13.2 v 6.000059 C 13.2,35.701325 13.446407,36 13.749984,36 c 0.303577,0 0.549984,-0.298675 0.549984,-0.666647 v -6.000059 h 4.400064 v 6.000059 C 18.700032,35.701325 18.946439,36 19.250016,36 19.553593,36 19.8,35.701325 19.8,35.333353 v -6.000059 h 1.650016 C 21.753593,29.333294 22,29.03462 22,28.666647 22,28.298675 21.753593,28 21.450016,28 H 11.549984 C 11.246407,28 11,28.298675 11,28.666647 Z"
         id="path380"
         inkscape:connector-curvature="0" />
      <path
         d="M 31,23.500015 C 31,23.775994 31.298678,24 31.666654,24 h 2.666692 C 34.701322,24 35,23.775994 35,23.500015 v -3.00003 C 35,20.224006 34.701322,20 34.333346,20 H 31.666654 C 31.298678,20 31,20.224006 31,20.499985 Z m 1.333385,-2.499986 h 1.333386 v 2 h -1.333386 z"
         id="path382"
         inkscape:connector-curvature="0" />
      <path
         d="M 30.285738,0 H 11.714262 C 11.320007,0 11,0.29037606 11,0.64812424 V 34.351876 C 11,34.709624 11.320007,35 11.714262,35 c 0.394254,0 0.714262,-0.290376 0.714262,-0.648124 V 1.2962485 H 29.571476 V 34.351876 C 29.571476,34.709624 29.891484,35 30.285738,35 30.679993,35 31,34.709624 31,34.351876 V 0.64812424 C 31.000084,0.29037606 30.680076,0 30.285738,0 Z"
         id="path384"
         inkscape:connector-curvature="0" />
    </g>
  </g>
</svg>
