<?xml version="1.0" encoding="UTF-8" standalone="no"?>
<svg
   xmlns:dc="http://purl.org/dc/elements/1.1/"
   xmlns:cc="http://creativecommons.org/ns#"
   xmlns:rdf="http://www.w3.org/1999/02/22-rdf-syntax-ns#"
   xmlns:svg="http://www.w3.org/2000/svg"
   xmlns="http://www.w3.org/2000/svg"
   xmlns:xlink="http://www.w3.org/1999/xlink"
   xmlns:sodipodi="http://sodipodi.sourceforge.net/DTD/sodipodi-0.dtd"
   xmlns:inkscape="http://www.inkscape.org/namespaces/inkscape"
   width="400"
   height="750"
   viewBox="0 0 400 750"
   version="1.1"
   id="svg250"
   sodipodi:docname="background_start_mob.svg"
   inkscape:version="0.92.4 (5da689c313, 2019-01-14)">
  <metadata
     id="metadata254">
    <rdf:RDF>
      <cc:Work
         rdf:about="">
        <dc:format>image/svg+xml</dc:format>
        <dc:type
           rdf:resource="http://purl.org/dc/dcmitype/StillImage" />
        <dc:title>3 вариант</dc:title>
      </cc:Work>
    </rdf:RDF>
  </metadata>
  <sodipodi:namedview
     pagecolor="#ffffff"
     bordercolor="#666666"
     borderopacity="1"
     objecttolerance="10"
     gridtolerance="10"
     guidetolerance="10"
     inkscape:pageopacity="0"
     inkscape:pageshadow="2"
     inkscape:window-width="1920"
     inkscape:window-height="1017"
     id="namedview252"
     showgrid="false"
     inkscape:zoom="1.750258"
     inkscape:cx="187.5"
     inkscape:cy="164.54717"
     inkscape:window-x="-8"
     inkscape:window-y="-8"
     inkscape:window-maximized="1"
     inkscape:current-layer="svg250" />
  <!-- Generator: Sketch 51.1 (57501) - http://www.bohemiancoding.com/sketch -->
  <title
     id="title133">3 вариант</title>
  <desc
     id="desc135">Created with Sketch.</desc>
  <defs
     id="defs142">
    <linearGradient
       x1="0.5"
       y1="0.93192291"
       x2="0.5"
       y2="0"
       id="linearGradient-1">
      <stop
         stop-color="#FFFFFF"
         stop-opacity="0"
         offset="0%"
         id="stop137" />
      <stop
         stop-color="#FFFFFF"
         offset="100%"
         id="stop139" />
    </linearGradient>
    <linearGradient
       inkscape:collect="always"
       xlink:href="#linearGradient-1"
       id="linearGradient256"
       x1="146.20192"
       y1="272.49783"
       x2="146.20192"
       y2="0"
       gradientTransform="scale(1.2824729,0.77974355)"
       gradientUnits="userSpaceOnUse" />
    <linearGradient
       inkscape:collect="always"
       xlink:href="#linearGradient-1"
       id="linearGradient258"
       x1="146.20192"
       y1="1222.8103"
       x2="146.20192"
       y2="950.31244"
       gradientTransform="scale(1.2824729,0.77974355)"
       gradientUnits="userSpaceOnUse" />
  </defs>
  <g
     id="3-вариант"
     style="fill:none;fill-rule:evenodd;stroke:none;stroke-width:1"
     transform="translate(25.710495,-5.8885651)">
    <g
       id="Untitled-1"
       transform="matrix(-1,0,0,1,979,-224)"
       style="stroke:#3535ff">
      <path
         d="m 386.18237,289.98429 c 0,0 319.85906,-123.0985 283.07016,-25.10965 -32.49686,86.76097 -120.17708,53.68973 42.716,207.40974 43.53354,41.23698 -126.30856,76.75794 -201.11266,86.55682 -74.8041,9.79889 -159.41858,62.26375 -179.44809,-27.35522 -20.02951,-89.61897 54.77459,-241.50169 54.77459,-241.50169 z"
         id="Shape"
         inkscape:connector-curvature="0"
         style="stroke-opacity:0.6828861" />
      <path
         d="m 361.45319,248.86956 c 0,0 204.02733,-56.55201 279.10939,-31.44047 27.54369,9.18715 45.90615,21.43668 42.64171,47.1607 -5.91679,47.77317 -23.25912,54.91874 -18.36246,88.60495 4.69263,32.2571 51.41489,71.65976 96.09687,142.09457 C 789.2985,540.0001 613.42694,595.73547 530.18379,598.18538 446.94064,600.83945 363.08541,629.42169 328.19673,566.94907 314.93496,543.26665 273.72144,462.01142 296.98055,407.501 326.15646,338.4953 361.45319,248.86956 361.45319,248.86956 Z"
         id="path145"
         inkscape:connector-curvature="0"
         style="stroke-opacity:0.6860847" />
      <path
         d="m 337.07345,206.81836 c 0,0 239.86746,-48.95505 312.19547,-0.20398 25.33524,17.13427 45.76688,32.22875 49.24026,56.50229 6.74244,46.71128 8.37697,49.77097 15.93668,88.73103 8.17265,43.03965 77.43591,92.81062 96.84597,164.61136 13.48489,50.17892 -168.96966,124.01946 -261.11636,119.32793 -92.1467,-4.69153 -192.46606,8.56713 -225.361,-34.67649 -24.51797,-6.11939 -109.30928,-124.01946 -74.57549,-189.70082 40.65896,-76.69625 86.83447,-204.59132 86.83447,-204.59132 z"
         id="path147"
         inkscape:connector-curvature="0"
         style="stroke-opacity:0.69446333" />
      <path
         d="m 312.44337,166.25096 c 0,0 275.56221,-42.65862 344.81024,31.22856 23.28695,24.90121 45.75681,43.06684 55.76611,65.92697 19.81434,45.72024 40.44575,44.6997 50.25078,89.1953 11.84775,54.08868 100.91011,116.54581 97.64177,187.57548 C 858.25674,597.53169 670.53126,687.95164 569.82542,675.90925 469.11959,663.66276 360.85571,657.3354 321.83986,637.12868 289.3607,646.72177 157.40133,493.43648 203.77095,416.89589 255.45164,331.98686 312.44337,166.25096 312.44337,166.25096 Z"
         id="path149"
         inkscape:connector-curvature="0"
         style="stroke-opacity:0.6843014" />
      <path
         d="m 287.24567,124.51081 c 0,0 311.92894,-36.335132 377.45851,62.66788 21.43491,32.45666 46.13609,53.8903 62.2633,75.32395 33.47929,44.50032 72.26626,39.6012 84.31064,89.61303 15.71893,64.70919 121.66862,139.829 98.39643,210.45796 C 888.44379,626.67043 698.18347,734.2469 588.76337,714.65042 479.34327,695.05395 363.39063,669.12945 317.86697,671.78314 277.24271,697.09525 98.210204,508.4792 156.59481,421.31572 219.06225,328.02834 287.24567,124.51081 287.24567,124.51081 Z"
         id="path151"
         inkscape:connector-curvature="0"
         style="stroke-opacity:0.67524342" />
      <path
         d="m 263.43394,83.230354 c 0,0 348.80143,-30.197004 410.27054,94.059586 19.80898,39.99063 46.35709,64.47468 68.61667,84.67403 47.17397,43.05114 104.35453,34.48172 118.64967,89.77488 19.60476,75.49251 141.31768,161.59478 99.24912,233.00661 C 919.17246,654.52503 727.20915,780.20985 609.17213,753.27739 491.13511,726.34493 363.90836,674.92841 315.30488,706.75768 262.20864,741.64746 40.225528,523.73935 110.68015,426.00716 183.9938,324.19428 263.43394,83.230354 263.43394,83.230354 Z"
         id="path153"
         inkscape:connector-curvature="0"
         style="stroke-opacity:0.6736583" />
      <path
         d="m 239.01914,42.401164 c 0,0 385.71805,-23.878743 442.65738,125.516466 18.16344,47.5534 46.73515,74.9017 75.10277,94.08633 60.81692,41.22655 136.32786,29.38923 152.85863,90.20859 23.46962,86.33084 161.02198,182.04991 99.79688,255.93115 C 948.41381,681.82084 755.35071,827.13422 628.61478,792.8468 501.87885,758.55937 368.40816,691.00498 312.28516,742.43612 253.305,796.52045 -18.126218,539.56884 64.527648,431.19609 148.20193,320.9865 239.01914,42.401164 239.01914,42.401164 Z"
         id="path155"
         inkscape:connector-curvature="0"
         style="stroke-opacity:0.67563973" />
      <path
         d="m 214.04107,0.47917595 c 0,0 423.12996,-17.35195595 475.38334,156.78002405 52.25339,174.13199 241.4678,97.17096 268.81918,194.13777 27.35138,97.17095 181.25391,201.69097 100.62861,278.85614 C 978.24684,707.41828 783.31722,873.1805 647.98911,831.33166 512.66101,789.68697 373.2506,704.96859 308.54621,777.23439 243.84183,849.50018 -77.230739,554.51693 17.274409,435.50292 111.77956,316.48892 214.04107,0.47917595 214.04107,0.47917595 Z"
         id="path157"
         inkscape:connector-curvature="0"
         style="stroke-opacity:0.67513021" />
    </g>
    <g
       id="g174"
       transform="translate(-737,390)"
       style="stroke:#3535ff">
      <path
         d="m 361.45319,248.86956 c 0,0 204.02733,-56.55201 279.10939,-31.44047 27.54369,9.18715 45.90615,21.43668 42.64171,47.1607 -5.91679,47.77317 -23.25912,54.91874 -18.36246,88.60495 4.69263,32.2571 51.41489,71.65976 96.09687,142.09457 C 789.2985,540.0001 613.42694,595.73547 530.18379,598.18538 446.94064,600.83945 363.08541,629.42169 328.19673,566.94907 314.93496,543.26665 273.72144,462.01142 296.98055,407.501 326.15646,338.4953 361.45319,248.86956 361.45319,248.86956 Z"
         id="path160"
         inkscape:connector-curvature="0"
         style="stroke-opacity:0.6860847" />
      <path
         d="m 337.07345,206.81836 c 0,0 239.86746,-48.95505 312.19547,-0.20398 25.33524,17.13427 45.76688,32.22875 49.24026,56.50229 6.74244,46.71128 8.37697,49.77097 15.93668,88.73103 8.17265,43.03965 77.43591,92.81062 96.84597,164.61136 13.48489,50.17892 -168.96966,124.01946 -261.11636,119.32793 -92.1467,-4.69153 -192.46606,8.56713 -225.361,-34.67649 -24.51797,-6.11939 -109.30928,-124.01946 -74.57549,-189.70082 40.65896,-76.69625 86.83447,-204.59132 86.83447,-204.59132 z"
         id="path162"
         inkscape:connector-curvature="0"
         style="stroke-opacity:0.69446333" />
      <path
         d="m 312.44337,166.25096 c 0,0 275.56221,-42.65862 344.81024,31.22856 23.28695,24.90121 45.75681,43.06684 55.76611,65.92697 19.81434,45.72024 40.44575,44.6997 50.25078,89.1953 11.84775,54.08868 100.91011,116.54581 97.64177,187.57548 C 858.25674,597.53169 670.53126,687.95164 569.82542,675.90925 469.11959,663.66276 360.85571,657.3354 321.83986,637.12868 289.3607,646.72177 157.40133,493.43648 203.77095,416.89589 255.45164,331.98686 312.44337,166.25096 312.44337,166.25096 Z"
         id="path164"
         inkscape:connector-curvature="0"
         style="stroke-opacity:0.6843014" />
      <path
         d="m 287.24567,124.51081 c 0,0 311.92894,-36.335132 377.45851,62.66788 21.43491,32.45666 46.13609,53.8903 62.2633,75.32395 33.47929,44.50032 72.26626,39.6012 84.31064,89.61303 15.71893,64.70919 121.66862,139.829 98.39643,210.45796 C 888.44379,626.67043 698.18347,734.2469 588.76337,714.65042 479.34327,695.05395 363.39063,669.12945 317.86697,671.78314 277.24271,697.09525 98.210204,508.4792 156.59481,421.31572 219.06225,328.02834 287.24567,124.51081 287.24567,124.51081 Z"
         id="path166"
         inkscape:connector-curvature="0"
         style="stroke-opacity:0.67524342" />
      <path
         d="m 263.43394,83.230354 c 0,0 348.80143,-30.197004 410.27054,94.059586 19.80898,39.99063 46.35709,64.47468 68.61667,84.67403 47.17397,43.05114 104.35453,34.48172 118.64967,89.77488 19.60476,75.49251 141.31768,161.59478 99.24912,233.00661 C 919.17246,654.52503 727.20915,780.20985 609.17213,753.27739 491.13511,726.34493 363.90836,674.92841 315.30488,706.75768 262.20864,741.64746 40.225528,523.73935 110.68015,426.00716 183.9938,324.19428 263.43394,83.230354 263.43394,83.230354 Z"
         id="path168"
         inkscape:connector-curvature="0"
         style="stroke-opacity:0.6736583" />
      <path
         d="m 239.01914,42.401164 c 0,0 385.71805,-23.878743 442.65738,125.516466 18.16344,47.5534 46.73515,74.9017 75.10277,94.08633 60.81692,41.22655 136.32786,29.38923 152.85863,90.20859 23.46962,86.33084 161.02198,182.04991 99.79688,255.93115 C 948.41381,681.82084 755.35071,827.13422 628.61478,792.8468 501.87885,758.55937 368.40816,691.00498 312.28516,742.43612 253.305,796.52045 -18.126218,539.56884 64.527648,431.19609 148.20193,320.9865 239.01914,42.401164 239.01914,42.401164 Z"
         id="path170"
         inkscape:connector-curvature="0"
         style="stroke-opacity:0.67563973" />
      <path
         d="m 214.04107,0.47917595 c 0,0 423.12996,-17.35195595 475.38334,156.78002405 52.25339,174.13199 241.4678,97.17096 268.81918,194.13777 27.35138,97.17095 181.25391,201.69097 100.62861,278.85614 C 978.24684,707.41828 783.31722,873.1805 647.98911,831.33166 512.66101,789.68697 373.2506,704.96859 308.54621,777.23439 243.84183,849.50018 -77.230739,554.51693 17.274409,435.50292 111.77956,316.48892 214.04107,0.47917595 214.04107,0.47917595 Z"
         id="path172"
         inkscape:connector-curvature="0"
         style="stroke-opacity:0.67513021" />
    </g>
    <rect
       id="Rectangle-2"
       x="0"
       y="0"
       width="375"
       height="228"
       style="fill:url(#linearGradient256)" />
    <rect
       id="rect177"
       transform="matrix(1,0,0,-1,0,1710)"
       x="0"
       y="741"
       width="375"
       height="228"
       style="fill:url(#linearGradient258)" />
    <circle
       id="Oval-2"
       cx="309.5"
       cy="143.5"
       r="16.5"
       style="fill:#fff66e" />
    <circle
       id="circle180"
       cx="66.5"
       cy="331.5"
       r="18.5"
       style="fill:#fff66e" />
    <circle
       id="circle182"
       cx="22"
       cy="212"
       r="9"
       style="fill:#e21111" />
    <circle
       id="circle184"
       cx="365.5"
       cy="362.5"
       r="4.5"
       style="fill:#fff66e" />
    <circle
       id="circle186"
       cx="240"
       cy="562"
       r="7"
       style="fill:#e21111" />
    <circle
       id="circle188"
       cx="41.5"
       cy="841.5"
       r="4.5"
       style="fill:#fff66e" />
    <circle
       id="circle190"
       cx="347"
       cy="496"
       r="11"
       style="fill:#fff66e" />
    <circle
       id="circle192"
       cx="142.13148"
       cy="704.43158"
       r="24"
       style="fill:#fff66e" />
    <g
       id="house-outline"
       transform="translate(299,132)"
       style="fill:#4a4a4a;fill-rule:nonzero">
      <path
         d="m 18.388254,11 c -0.357797,0 -0.634892,0.287254 -0.634892,0.661663 v 9.038028 h -4.502157 v -3.690596 c 0,-0.346219 -0.277059,-0.64888 -0.611998,-0.64888 H 9.3839387 c -0.3580848,0 -0.6464821,0.302624 -0.6464821,0.64888 v 3.690596 H 4.2466378 v -8.737954 c 0,-0.348843 -0.2768067,-0.638609 -0.6348915,-0.638609 C 3.2770586,11.323128 3,11.612894 3,11.961737 v 9.399654 C 3,21.710197 3.2770586,22 3.6117463,22 H 9.3839387 C 9.7186264,22 9.995685,21.710197 9.995685,21.361391 v -3.690633 h 2.008594 v 3.690633 C 12.004279,21.710197 12.281338,22 12.639207,22 h 5.749047 C 18.722977,22 19,21.710197 19,21.361391 V 11.6617 C 19,11.287292 18.722977,11 18.388254,11 Z"
         id="path194"
         inkscape:connector-curvature="0" />
      <path
         d="M 21.820477,11.818665 16.817104,6.2320144 V 2.4228217 c 0,-0.3965227 -0.288266,-0.7027578 -0.645624,-0.7027578 -0.334495,0 -0.61115,0.306275 -0.61115,0.7027578 V 4.8346922 L 11.43308,0.21878497 C 11.306615,0.07657874 11.156389,0 11.006594,0 c -0.172909,0 -0.32292,0.07929656 -0.4496,0.21878497 L 0.19271219,11.742086 c -0.2486516,0.276179 -0.26511574,0.719185 0,0.973502 0.23046196,0.295323 0.62743459,0.276179 0.87608621,0 L 11.006594,1.6926858 20.921276,12.819504 C 21.024554,12.934373 21.174852,13 21.370876,13 c 0.17291,0 0.322669,-0.06563 0.449601,-0.180496 0.230677,-0.257034 0.247896,-0.721902 0,-1.000839 z"
         id="path196"
         inkscape:connector-curvature="0" />
    </g>
    <g
       id="key-(1)"
       transform="translate(57,322)"
       style="fill:#000000;fill-rule:nonzero">
      <path
         d="M 13.133641,0 C 9.3474962,0 6.2672034,3.0324219 6.2672034,6.7597266 c 0,0.8286328 0.1495507,1.6338672 0.444843,2.3985547 L 0.1465748,15.622188 C 0.0527336,15.714609 0,15.839883 0,15.970508 v 3.536875 C 0,19.779453 0.22402851,20 0.50039382,20 H 3.4610936 c 0.1325681,0 0.2597001,-0.05176 0.3535413,-0.143984 l 0.9977323,-0.980743 c 0.09404,-0.09242 0.1468525,-0.217851 0.1468525,-0.348632 v -1.206094 h 1.2235861 c 0.2763653,0 0.5003938,-0.220547 0.5003938,-0.492617 v -0.482813 h 0.4904741 c 0.2763256,0 0.5003938,-0.220547 0.5003938,-0.492617 v -1.06 H 8.750801 c 0.1326871,0 0.2599382,-0.05191 0.353819,-0.144297 l 1.591967,-1.567226 c 0.776879,0.290976 1.594944,0.438398 2.436975,0.438398 C 16.919707,13.519375 20,10.486953 20,6.7596484 20.00004,3.0324219 16.919787,0 13.133641,0 Z m 0,12.534141 c -0.819057,0 -1.611211,-0.162852 -2.354521,-0.484102 -0.192206,-0.08305 -0.408656,-0.03734 -0.55039,0.09863 -0.0015,0.0014 -0.0031,0.0026 -0.0046,0.0041 L 8.5435965,13.807266 H 7.173753 c -0.2763653,0 -0.5003938,0.220547 -0.5003938,0.492617 v 1.06 h -0.490474 c -0.2763256,0 -0.5003938,0.220547 -0.5003938,0.492617 v 0.482812 H 4.4588656 c -0.2763256,0 -0.5003938,0.220547 -0.5003938,0.492618 v 1.494414 l -0.704424,0.692383 H 1.000867 V 18.318594 L 7.1170515,12.2975 c 0.1758977,-0.173164 0.1758977,-0.453867 0,-0.626992 -0.1758977,-0.173125 -0.4609527,-0.173203 -0.6369694,0 L 1.000867,17.064609 v -0.89 L 7.6549025,9.6235156 c 0.00151,-0.00148 0.00266,-0.00285 0.00405,-0.0043 C 7.7971125,9.4798047 7.8436959,9.2667188 7.759338,9.0773438 7.4333341,8.345625 7.2681101,7.5658203 7.2681101,6.7597656 c 0,-3.1840625 2.6313231,-5.77449216 5.8656499,-5.77449216 3.234328,0 5.865571,2.59039066 5.865571,5.77449216 -7.9e-5,3.1839844 -2.631442,5.7743754 -5.86569,5.7743754 z"
         id="path199"
         inkscape:connector-curvature="0" />
      <path
         d="m 15,3 c -1.102822,0 -2,0.8971781 -2,2 0,1.1028219 0.897178,2 2,2 1.102822,0 2,-0.8971781 2,-2 0,-1.1028219 -0.897136,-2 -2,-2 z m 0,2.9321083 c -0.513962,0 -0.932108,-0.4181468 -0.932108,-0.9321083 0,-0.5139615 0.418146,-0.9321083 0.932108,-0.9321083 0.513962,0 0.932108,0.4181468 0.932108,0.9321083 0,0.5139615 -0.418146,0.9321083 -0.932108,0.9321083 z"
         id="path201"
         inkscape:connector-curvature="0" />
    </g>
    <circle
       id="circle204"
       cx="32.5"
       cy="836.5"
       r="18.5"
       style="fill:#fff66e" />
    <g
       id="horseshoe"
       transform="translate(340,490)"
       style="fill:#000000;fill-rule:nonzero">
      <path
         d="M 13.728983,9.6036159 H 12.664516 C 13.529555,8.0356116 13.699154,5.3261198 12.491508,3.0916313 11.415109,1.0979319 9.4634443,0 7.0004262,0 4.5374079,0 2.5848907,1.0979319 1.5093444,3.0916313 0.30425513,5.3261198 0.47470622,8.0224627 1.3354843,9.6036159 H 0.27101734 C 0.12102038,9.6036159 0,9.7211341 0,9.8649499 V 11.739488 C 0,11.883304 0.12102038,12 0.27101734,12 H 3.9459428 c 0.1491445,0 0.2710171,-0.116696 0.2710171,-0.260512 0.0017,-0.01808 0.0017,-0.03534 0,-0.0526 v -1.83016 c 0,-0.048487 -0.014488,-0.096151 -0.040908,-0.1372416 C 3.3629998,8.4514449 3.1192549,5.8742637 4.084008,4.202712 4.6967797,3.151623 5.6700553,2.6133405 7.0004262,2.6133405 c 1.3303707,0 2.3027941,0.5382825 2.923236,1.5967676 0.9656058,1.6699083 0.7354968,4.249555 -0.077555,5.5159568 -0.027272,0.041912 -0.040908,0.090399 -0.040908,0.138885 V 11.739488 C 9.8051987,11.883304 9.9262191,12 10.076216,12 h 3.652767 C 13.87898,12 14,11.883304 14,11.739488 V 9.8649499 C 14,9.7211341 13.87898,9.6036159 13.728983,9.6036159 Z M 13.458818,11.477332 H 10.33104 V 9.9380907 C 11.213977,8.5015752 11.450052,5.7855089 10.395812,3.9569921 9.6969622,2.7440076 8.5208499,2.0906726 7.0004262,2.0906726 c -1.5212761,0 -2.6965364,0.653335 -3.3877154,1.8663195 C 2.5584707,5.7855089 2.799659,8.5015752 3.6774822,9.9380907 V 11.477332 H 0.54203445 V 10.127106 H 1.8187132 c 0.1491445,-0.0016 0.2701649,-0.117518 0.2701649,-0.2629778 0,-0.052596 -0.017045,-0.1043694 -0.048579,-0.147925 C 1.0755465,8.3857005 0.78322279,5.5693741 1.9866075,3.3324202 2.6829001,2.051226 4.1146892,0.52266802 7.0004262,0.52266802 c 2.8857368,0 4.3166738,1.52855798 5.0129668,2.80975218 1.208498,2.2369539 0.916174,5.0532803 -0.04773,6.3804958 -0.08523,0.1191617 -0.0554,0.2818792 0.06818,0.36406 0.04517,0.03041 0.09886,0.04684 0.153406,0.04684 h 1.276678 z"
         id="path206"
         inkscape:connector-curvature="0" />
    </g>
    <g
       id="gift"
       transform="translate(51,712)"
       style="fill:#000000;fill-rule:nonzero">
      <path
         d="m 104.31899,-13.394335 h -5.734754 c 0.411437,-0.279366 0.764875,-0.556929 1.011375,-0.805654 1.460879,-1.461713 1.460879,-3.840825 0,-5.302538 -1.419188,-1.420258 -3.895063,-1.42206 -5.316062,0 -0.784813,0.784026 -2.871,3.976002 -2.582813,6.108192 h -0.1305 c 0.286375,-2.13219 -1.798,-5.324166 -2.582812,-6.108192 -1.421,-1.42206 -3.896876,-1.420258 -5.316063,0 -1.460875,1.461713 -1.460875,3.840825 -0.0018,5.302538 0.248313,0.248725 0.60175,0.526288 1.013188,0.805654 h -5.73475 c -0.998688,0 -1.8125,0.809259 -1.8125,1.802358 v 4.5058948 c 0,0.497451 0.406,0.90118 0.90625,0.90118 h 0.90625 V 4.6292463 c 0,0.993099 0.813812,1.802358 1.8125,1.802358 H 102.5065 c 0.99869,0 1.8125,-0.809259 1.8125,-1.802358 V -6.1849022 h 0.90625 c 0.50025,0 0.90625,-0.403729 0.90625,-0.90118 v -4.5058948 c 0,-0.993099 -0.81381,-1.802358 -1.8125,-1.802358 z m -19.366567,-4.837529 c 0.367938,-0.367681 0.8555,-0.569546 1.373875,-0.569546 0.516563,0 1.004126,0.201865 1.372063,0.569546 1.221625,1.221998 2.436,4.343683 2.013687,4.778051 0,0 -0.07612,0.05948 -0.335312,0.05948 -1.252438,0 -3.643125,-1.294093 -4.424313,-2.076316 -0.759437,-0.760596 -0.759437,-2.000618 0,-2.761213 z m 5.772813,22.8611103 h -9.96875 V -6.1849022 h 9.96875 z m 0,-12.6165075 h -11.78125 v -3.6047158 h 10.43275 1.3485 z m 4.839375,-10.2446028 c 0.735875,-0.73356 2.011875,-0.731758 2.745937,0 0.759438,0.760595 0.759438,2.000617 0,2.761212 -0.781187,0.782224 -3.171875,2.076317 -4.424312,2.076317 -0.259188,0 -0.335313,-0.05767 -0.337125,-0.05948 -0.4205,-0.434368 0.793875,-3.556053 2.0155,-4.778051 z M 102.50649,4.6292463 H 92.537736 V -6.1849022 h 9.968754 z m 1.8125,-12.6165075 H 92.537736 v -3.6047158 h 1.3485 10.432754 z"
         id="path209"
         inkscape:connector-curvature="0" />
    </g>
    <g
       id="building"
       transform="translate(21,824)"
       style="fill:#000000;fill-rule:nonzero">
      <path
         d="M 17.600014,21 H 6.3999859 C 6.1792038,21 6,21.224006 6,21.499985 v 1.00003 C 6,22.775994 6.1792038,23 6.3999859,23 6.620768,23 6.7999719,22.775994 6.7999719,22.500015 V 22.000029 H 17.600014 C 17.820796,22.000029 18,21.776023 18,21.500044 18,21.224065 17.820843,21 17.600014,21 Z"
         id="path212"
         inkscape:connector-curvature="0" />
      <path
         d="M 8,8.7500073 C 8,8.887997 8.1493359,9 8.3333203,9 H 9.6666797 C 9.8506641,9 10,8.887997 10,8.7500073 V 7.2499927 C 10,7.112003 9.8506641,7 9.6666797,7 H 8.3333594 C 8.149375,7 8.0000391,7.112003 8.0000391,7.2499927 V 8.7500073 Z M 8.6666797,7.5000146 H 9.3333594 V 8.5000147 H 8.6666797 Z"
         id="path214"
         inkscape:connector-curvature="0" />
      <path
         d="M 5.5714429,5 H 0.42855708 C 0.19200442,5 0,5.1629122 0,5.3636228 V 12.636377 C 0,12.837088 0.19200442,13 0.42855708,13 0.66510974,13 0.85711416,12.837088 0.85711416,12.636377 V 5.7272882 H 5.5714429 C 5.8079956,5.7272882 6,5.564376 6,5.3636654 6,5.1629548 5.8080458,5 5.5714429,5 Z"
         id="path216"
         inkscape:connector-curvature="0" />
      <path
         d="M 18,17.750007 C 18,17.887997 18.149339,18 18.333327,18 h 1.333346 C 19.850661,18 20,17.887997 20,17.750007 V 16.249993 C 20,16.112003 19.850661,16 19.666673,16 H 18.333327 C 18.149339,16 18,16.112003 18,16.249993 Z m 0.666693,-1.249992 h 0.666692 v 1 h -0.666692 z"
         id="path218"
         inkscape:connector-curvature="0" />
      <path
         d="M 1.5000351,14 C 0.0170862,14 0,18.82625 0,18.874985 c 0,0.905625 0.51631275,1.662759 1.200007,1.837134 v 1.912896 C 1.200007,22.831997 1.3344114,23 1.5,23 1.6655885,23 1.7999929,22.831997 1.7999929,22.625015 V 20.712119 C 2.4836872,20.537744 3,19.78061 3,18.874985 3.0000351,18.82625 2.9829489,14 1.5000351,14 Z m 0,5.999985 c -0.496203,0 -0.90001402,-0.504756 -0.90001402,-1.125 0,-1.868247 0.40142032,-4.125014 0.90001402,-4.125014 0.4985937,0 0.9000141,2.256767 0.9000141,4.125014 0,0.620244 -0.403811,1.125 -0.9000141,1.125 z"
         id="path220"
         inkscape:connector-curvature="0" />
      <path
         d="M 3.6667122,12 H 2.3333268 C 2.1493389,12 2,12.112001 2,12.249989 v 0.500007 c 0,0.137988 0.1493389,0.249989 0.3333268,0.249989 0.183988,0 0.3333268,-0.112001 0.3333268,-0.249989 v -0.249989 h 0.6666927 v 1.250004 C 3.3333463,13.887999 3.4826852,14 3.6666732,14 3.8506611,14 4,13.887999 4,13.750011 V 12.250018 C 4.0000391,12.112001 3.8507002,12 3.6667122,12 Z"
         id="path222"
         inkscape:connector-curvature="0" />
      <path
         d="m 18.333327,9 h 1.333346 C 19.850661,9 20,8.887997 20,8.7500073 V 7.2499927 C 20,7.112003 19.850661,7 19.666673,7 H 18.333327 C 18.149339,7 18,7.112003 18,7.2499927 V 8.7500073 C 18,8.887997 18.149339,9 18.333327,9 Z m 0.333366,-1.5000147 h 0.666692 v 1 h -0.666692 z"
         id="path224"
         inkscape:connector-curvature="0" />
      <path
         d="M 3.6667122,7 H 2.3333268 C 2.1493389,7 2,7.112003 2,7.2499927 V 8.7500073 C 2,8.887997 2.1493389,9 2.3333268,9 H 3.6666732 C 3.8506611,9 4,8.887997 4,8.7500073 V 7.2499927 C 4.0000391,7.112003 3.8507002,7 3.6667122,7 Z M 3.3333463,8.5000147 H 2.6666927 V 7.5000146 h 0.6666927 v 1.0000001 z"
         id="path226"
         inkscape:connector-curvature="0" />
      <path
         d="M 12,8.7500073 C 12,8.887997 12.149339,9 12.333327,9 h 1.333346 C 13.850661,9 14,8.887997 14,8.7500073 V 7.2499927 C 14,7.112003 13.850661,7 13.666673,7 H 12.333327 C 12.149339,7 12,7.112003 12,7.2499927 Z m 0.666654,-1.2499927 h 0.666692 v 1.0000001 h -0.666692 z"
         id="path228"
         inkscape:connector-curvature="0" />
      <path
         d="M 22.571443,5 H 17.428557 C 17.192004,5 17,5.1680029 17,5.3749853 c 0,0.2069825 0.192004,0.3749854 0.428557,0.3749854 h 4.714329 V 20.818994 C 22.008337,20.776982 21.865602,20.75 21.714329,20.75 c -0.07413,0 -0.147858,0.0056 -0.22028,0.01687 -0.295716,-0.466128 -0.858421,-0.76689 -1.493999,-0.76689 -0.635578,0 -1.198282,0.300762 -1.493998,0.76689 -0.07242,-0.01125 -0.14615,-0.01687 -0.22028,-0.01687 -0.708855,0 -1.285722,0.504756 -1.285722,1.125 0,0.620244 0.576867,1.125 1.285722,1.125 h 3.428506 C 22.423133,23 23,22.495244 23,21.875 V 5.3749853 C 23,5.1680029 22.807996,5 22.571443,5 Z m -0.857165,17.249985 h -3.428607 c -0.236151,0 -0.428557,-0.168354 -0.428557,-0.374985 0,-0.206631 0.192406,-0.374985 0.428557,-0.374985 0.08227,0 0.160263,0.02061 0.232284,0.06113 0.117422,0.066 0.264025,0.078 0.393451,0.03225 0.129426,-0.04575 0.225001,-0.144008 0.25629,-0.26288 C 19.258149,20.988887 19.600572,20.75 20,20.75 c 0.399428,0 0.741851,0.238887 0.832304,0.580518 0.03129,0.118872 0.126864,0.217133 0.25629,0.26288 0.129024,0.04575 0.275978,0.03375 0.393451,-0.03225 0.278992,-0.1575 0.660841,0.03524 0.660841,0.313857 -5e-5,0.206631 -0.192457,0.374985 -0.428608,0.374985 z"
         id="path230"
         inkscape:connector-curvature="0" />
      <path
         d="m 12.333327,4 h 1.333346 C 13.850661,4 14,3.887997 14,3.7500073 V 2.2499927 C 14,2.1120031 13.850661,2 13.666673,2 H 12.333327 C 12.149339,2 12,2.1120031 12,2.2499927 V 3.7500073 C 12,3.887997 12.149339,4 12.333327,4 Z m 0.333327,-1.5000146 h 0.666692 v 1 h -0.666692 z"
         id="path232"
         inkscape:connector-curvature="0" />
      <path
         d="M 12,13.750007 C 12,13.887997 12.149339,14 12.333327,14 h 1.333346 C 13.850661,14 14,13.887997 14,13.750007 V 12.249993 C 14,12.112003 13.850661,12 13.666673,12 H 12.333327 C 12.149339,12 12,12.112003 12,12.249993 Z m 0.666654,-1.249992 h 0.666692 v 1 h -0.666692 z"
         id="path234"
         inkscape:connector-curvature="0" />
      <path
         d="M 8.3333268,4 H 9.6666732 C 9.8506612,4 10,3.887997 10,3.7500073 V 2.2499927 C 10,2.1120031 9.8506612,2 9.6666732,2 H 8.3333268 C 8.1493389,2 8,2.1120031 8,2.2499927 V 3.7500073 C 7.9999609,3.887997 8.1492998,4 8.3333268,4 Z M 8.6666537,2.4999854 h 0.6666927 v 1 H 8.6666537 Z"
         id="path236"
         inkscape:connector-curvature="0" />
      <path
         d="M 12.145008,18.13964 C 12.055015,18.235209 12,18.366035 12,18.49686 c 0,0.130826 0.05501,0.261593 0.145008,0.357221 C 12.239981,18.944639 12.369991,19 12.5,19 12.630009,19 12.75996,18.94464 12.854992,18.854081 12.944985,18.758512 13,18.627686 13,18.49686 c 0,-0.130825 -0.05501,-0.261592 -0.145008,-0.35722 -0.190005,-0.186187 -0.519979,-0.186187 -0.709984,0 z"
         id="path238"
         inkscape:connector-curvature="0" />
      <path
         d="M 8,13.750007 C 8,13.887997 8.1493359,14 8.3333203,14 H 9.6666797 C 9.8506641,14 10,13.887997 10,13.750007 V 12.249993 C 10,12.112003 9.8506641,12 9.6666797,12 H 8.3333594 C 8.149375,12 8.0000391,12.112003 8.0000391,12.249993 v 1.500014 z m 0.6666797,-1.249992 h 0.6666797 v 1 H 8.6666797 Z"
         id="path240"
         inkscape:connector-curvature="0" />
      <path
         d="m 7,16.416654 c 0,0.229983 0.1568043,0.416655 0.3499897,0.416655 H 8.4 v 3.750036 C 8.4,20.813328 8.5568043,21 8.7499897,21 8.9431752,21 9.0999795,20.813328 9.0999795,20.583345 v -3.750036 h 2.8000415 v 3.750036 C 11.900021,20.813328 12.056825,21 12.25001,21 12.443196,21 12.6,20.813328 12.6,20.583345 v -3.750036 h 1.05001 C 13.843196,16.833309 14,16.646637 14,16.416654 14,16.186672 13.843196,16 13.65001,16 H 7.3499897 C 7.1568043,16 7,16.186672 7,16.416654 Z"
         id="path242"
         inkscape:connector-curvature="0" />
      <path
         d="M 18,13.750007 C 18,13.887997 18.149339,14 18.333327,14 h 1.333346 C 19.850661,14 20,13.887997 20,13.750007 V 12.249993 C 20,12.112003 19.850661,12 19.666673,12 H 18.333327 C 18.149339,12 18,12.112003 18,12.249993 Z m 0.666693,-1.249992 h 0.666692 v 1 h -0.666692 z"
         id="path244"
         inkscape:connector-curvature="0" />
      <path
         d="M 17.607156,0 H 7.392844 C 7.1760041,0 7,0.17422564 7,0.38887454 V 20.611125 C 7,20.825774 7.1760041,21 7.392844,21 7.6096839,21 7.785688,20.825774 7.785688,20.611125 V 0.77774908 h 9.428624 V 20.611125 C 17.214312,20.825774 17.390316,21 17.607156,21 17.823996,21 18,20.825774 18,20.611125 V 0.38887454 C 18.000046,0.17422564 17.824042,0 17.607156,0 Z"
         id="path246"
         inkscape:connector-curvature="0" />
    </g>
  </g>
</svg>
