<?xml version="1.0" encoding="UTF-8" standalone="no"?>
<svg
   xmlns:sketch="http://www.bohemiancoding.com/sketch/ns"
   xmlns:dc="http://purl.org/dc/elements/1.1/"
   xmlns:cc="http://creativecommons.org/ns#"
   xmlns:rdf="http://www.w3.org/1999/02/22-rdf-syntax-ns#"
   xmlns:svg="http://www.w3.org/2000/svg"
   xmlns="http://www.w3.org/2000/svg"
   xmlns:sodipodi="http://sodipodi.sourceforge.net/DTD/sodipodi-0.dtd"
   xmlns:inkscape="http://www.inkscape.org/namespaces/inkscape"
   viewBox="0 0 57 52"
   version="1.1"
   x="0px"
   y="0px"
   id="svg78"
   sodipodi:docname="castle2.svg"
   width="57"
   height="52"
   inkscape:version="0.92.3 (2405546, 2018-03-11)">
  <metadata
     id="metadata84">
    <rdf:RDF>
      <cc:Work
         rdf:about="">
        <dc:format>image/svg+xml</dc:format>
        <dc:type
           rdf:resource="http://purl.org/dc/dcmitype/StillImage" />
        <dc:title>buildings-57</dc:title>
      </cc:Work>
    </rdf:RDF>
  </metadata>
  <defs
     id="defs82" />
  <sodipodi:namedview
     pagecolor="#ffffff"
     bordercolor="#666666"
     borderopacity="1"
     objecttolerance="10"
     gridtolerance="10"
     guidetolerance="10"
     inkscape:pageopacity="0"
     inkscape:pageshadow="2"
     inkscape:window-width="1920"
     inkscape:window-height="1017"
     id="namedview80"
     showgrid="false"
     fit-margin-top="0"
     fit-margin-left="0"
     fit-margin-right="0"
     fit-margin-bottom="0"
     inkscape:zoom="13.046154"
     inkscape:cx="28.5"
     inkscape:cy="25.632075"
     inkscape:window-x="-8"
     inkscape:window-y="-8"
     inkscape:window-maximized="1"
     inkscape:current-layer="svg78" />
  <title
     id="title48">buildings-57</title>
  <desc
     id="desc50">Created with Sketch.</desc>
  <g
     sketch:type="MSPage"
     id="g72"
     style="fill:none;fill-rule:evenodd;stroke:none;stroke-width:1">
    <g
       sketch:type="MSLayerGroup"
       id="g70"
       style="fill:#000000">
      <path
         d="M 14,12 H 44 V 52 H 14 Z m 2,38 H 42 V 14 H 16 Z"
         sketch:type="MSShapeGroup"
         id="path52"
         inkscape:connector-curvature="0" />
      <path
         d="M 47,14 H 11 V 0 h 8 v 5 h 2 V 0 h 7 v 5 h 2 V 0 h 7 v 5 h 2 V 0 h 8 z M 13,12 H 45 V 2 H 41 V 7 H 35 V 2 H 32 V 7 H 26 V 2 H 23 V 7 H 17 V 2 h -4 z"
         sketch:type="MSShapeGroup"
         id="path54"
         inkscape:connector-curvature="0" />
      <path
         d="m 27,27 h -9 v -6.5 c 0,-2.481 2.018,-4.5 4.5,-4.5 2.481,0 4.5,2.019 4.5,4.5 z m -7,-2 h 5 V 20.5 C 25,19.121 23.879,18 22.5,18 21.121,18 20,19.121 20,20.5 Z"
         sketch:type="MSShapeGroup"
         id="path56"
         inkscape:connector-curvature="0" />
      <path
         d="m 40,27 h -9 v -6.5 c 0,-2.481 2.019,-4.5 4.5,-4.5 2.481,0 4.5,2.019 4.5,4.5 z m -7,-2 h 5 V 20.5 C 38,19.121 36.879,18 35.5,18 34.121,18 33,19.121 33,20.5 Z"
         sketch:type="MSShapeGroup"
         id="path58"
         inkscape:connector-curvature="0" />
      <path
         d="M 37,52 H 21 V 39 c 0,-4.411 3.589,-8 8,-8 4.411,0 8,3.589 8,8 z M 23,50 H 35 V 39 c 0,-3.308 -2.691,-6 -6,-6 -3.309,0 -6,2.692 -6,6 z"
         sketch:type="MSShapeGroup"
         id="path60"
         inkscape:connector-curvature="0" />
      <path
         d="M 6,52 C 5.447,52 5,51.552 5,51 V 27 c 0,-0.552 0.447,-1 1,-1 0.553,0 1,0.448 1,1 v 24 c 0,0.552 -0.447,1 -1,1"
         sketch:type="MSShapeGroup"
         id="path62"
         inkscape:connector-curvature="0" />
      <path
         d="m 6,35 c -3.309,0 -6,-3.589 -6,-8 0,-4.411 2.691,-8 6,-8 3.309,0 6,3.589 6,8 0,4.411 -2.691,8 -6,8 z M 6,21 c -2.168,0 -4,2.748 -4,6 0,3.252 1.832,6 4,6 2.168,0 4,-2.748 4,-6 0,-3.252 -1.832,-6 -4,-6 z"
         sketch:type="MSShapeGroup"
         id="path64"
         inkscape:connector-curvature="0" />
      <path
         d="m 51,52 c -0.553,0 -1,-0.448 -1,-1 V 34 c 0,-0.552 0.447,-1 1,-1 0.553,0 1,0.448 1,1 v 17 c 0,0.552 -0.447,1 -1,1"
         sketch:type="MSShapeGroup"
         id="path66"
         inkscape:connector-curvature="0" />
      <path
         d="m 51,39 c -3.309,0 -6,-2.692 -6,-6 0,-3.308 2.691,-6 6,-6 3.309,0 6,2.692 6,6 0,3.308 -2.691,6 -6,6 z m 0,-10 c -2.206,0 -4,1.794 -4,4 0,2.206 1.794,4 4,4 2.206,0 4,-1.794 4,-4 0,-2.206 -1.794,-4 -4,-4 z"
         sketch:type="MSShapeGroup"
         id="path68"
         inkscape:connector-curvature="0" />
    </g>
  </g>
  <path
     style="fill:#ff0000;stroke:#000000;stroke-width:0.22060141;stroke-linejoin:round;stroke-miterlimit:4;stroke-dasharray:none;stroke-opacity:1"
     d="m 18.01572,23.36704 0.02991,-3.583432 0.204832,-0.613207 c 0.50044,-1.498173 1.695861,-2.620033 3.193025,-2.996542 0.676201,-0.170052 1.867791,-0.118255 2.490583,0.108263 1.313835,0.477859 2.309163,1.471204 2.787991,2.782436 l 0.206597,0.565749 0.02326,3.660082 0.02326,3.660083 h -4.494684 -4.494683 z m 7.017207,-0.881486 c -0.03183,-2.98686 -0.04275,-3.041827 -0.743614,-3.74343 -0.579163,-0.579775 -1.118351,-0.787535 -1.926853,-0.742457 -0.963963,0.05375 -1.726331,0.552335 -2.144778,1.402686 -0.18646,0.378916 -0.187746,0.397363 -0.209639,3.00655 l -0.02203,2.625295 h 2.537036 2.537037 z"
     id="path86"
     inkscape:connector-curvature="0" />
  <path
     style="fill:#ff0000;stroke:#000000;stroke-width:0.22060141;stroke-linejoin:round;stroke-miterlimit:4;stroke-dasharray:none;stroke-opacity:1"
     d="m 31.030812,23.520342 c 0.0015,-3.782787 0.02675,-4.054124 0.460765,-4.944255 0.571009,-1.171105 1.65348,-2.061504 2.914021,-2.396963 0.545246,-0.145102 1.607811,-0.143514 2.184135,0.0033 1.519161,0.386898 2.761368,1.61031 3.232019,3.183117 0.105782,0.3535 0.129869,0.971811 0.155886,4.001536 l 0.03077,3.583432 h -4.489464 -4.489465 z m 6.957607,-1.111439 c -0.02189,-2.609187 -0.02318,-2.627634 -0.209639,-3.00655 -0.239412,-0.486523 -0.709389,-0.95641 -1.18864,-1.188411 -0.549003,-0.265768 -1.393159,-0.300719 -1.97352,-0.08171 -0.604191,0.228001 -1.133849,0.724666 -1.409546,1.321739 l -0.222994,0.482938 -0.02385,2.548644 -0.02385,2.548644 h 2.537037 2.537037 z"
     id="path88"
     inkscape:connector-curvature="0" />
  <path
     style="fill:#ff0000;stroke:#000000;stroke-width:0.22060141;stroke-linejoin:round;stroke-miterlimit:4;stroke-dasharray:none;stroke-opacity:1"
     d="m 20.159224,22.332253 c 0.02964,-2.450503 0.03735,-2.561106 0.200421,-2.872279 0.264068,-0.503908 0.600399,-0.839367 1.074548,-1.071761 0.372227,-0.182439 0.530161,-0.213511 1.087033,-0.213862 0.579157,-3.66e-4 0.697074,0.02481 1.061489,0.226663 0.52459,0.290571 1.038058,0.86047 1.156755,1.283883 0.0579,0.20654 0.10816,1.232963 0.135261,2.762332 l 0.04312,2.433668 h -2.394727 -2.394727 z"
     id="path48"
     inkscape:connector-curvature="0" />
  <path
     style="fill:#ff0000;stroke:#000000;stroke-width:0.22060141;stroke-linejoin:round;stroke-miterlimit:4;stroke-dasharray:none;stroke-opacity:1"
     d="m 33.099057,22.458188 v -2.422709 l 0.229352,-0.480566 c 0.247228,-0.518019 0.642372,-0.926107 1.166073,-1.20427 0.459873,-0.24426 1.469842,-0.249958 1.98865,-0.01122 0.432068,0.198823 0.91822,0.670264 1.150041,1.115238 0.165174,0.317048 0.172543,0.421141 0.203724,2.877591 l 0.03235,2.548644 h -2.385096 -2.385095 z"
     id="path50"
     inkscape:connector-curvature="0" />
  <path
     style="fill:#008000;stroke:#fff22a;stroke-width:0.02146226;stroke-linejoin:round;stroke-miterlimit:4;stroke-dasharray:none;stroke-opacity:1"
     d="M 4.4889752,32.47359 C 3.0310308,31.548988 2.0554248,29.350146 2.0554248,26.988798 c 0,-1.393328 0.3310786,-2.712869 0.9680157,-3.858107 0.3749706,-0.674211 1.2360413,-1.530667 1.8297437,-1.819936 0.4043406,-0.197007 0.5432533,-0.22408 1.1497642,-0.22408 0.6017581,0 0.7461424,0.02764 1.1305827,0.216419 3.1204449,1.5323 3.8048999,7.583773 1.1816901,10.447689 -0.4211605,0.459807 -1.0476013,0.94851 -1.215841,0.94851 -0.033904,0 -0.061773,-1.336601 -0.061931,-2.970224 -2.729e-4,-2.82862 -0.00755,-2.982134 -0.1526013,-3.22004 -0.405807,-0.665577 -1.135968,-0.723853 -1.6867344,-0.134622 l -0.1916274,0.205011 -0.021683,3.059937 c -0.011926,1.682966 -0.048289,3.059938 -0.080807,3.059938 -0.032518,0 -0.2192772,-0.101566 -0.4150209,-0.225703 z"
     id="path857"
     inkscape:connector-curvature="0" />
  <path
     style="fill:#008000;stroke:#fff22a;stroke-width:0.02146226;stroke-linejoin:round;stroke-miterlimit:4;stroke-dasharray:none;stroke-opacity:1"
     d="m 49.571496,36.689437 c -1.481277,-0.562922 -2.521968,-2.082936 -2.521968,-3.68354 0,-2.388068 2.213609,-4.300964 4.533742,-3.917844 1.925857,0.318014 3.357174,1.971747 3.360395,3.882577 0.0028,1.639813 -1.015892,3.146791 -2.511157,3.714947 l -0.400669,0.152242 -2.86e-4,-1.551869 c -2.59e-4,-1.402995 -0.01461,-1.575368 -0.149643,-1.79682 -0.211856,-0.347455 -0.47687,-0.496009 -0.884858,-0.496009 -0.390271,0 -0.656997,0.13964 -0.861256,0.450894 -0.114531,0.174525 -0.141067,0.448666 -0.173532,1.792695 l -0.03833,1.586663 z"
     id="path859"
     inkscape:connector-curvature="0" />
  <path
     style="fill:#008000;stroke:#fff22a;stroke-width:0.02146226;stroke-linejoin:round;stroke-miterlimit:4;stroke-dasharray:none;stroke-opacity:1"
     d="M 50.363556,51.676316 50.07724,51.413952 50.03891,45.14787 50.00058,38.881786 49.540675,38.777744 c -0.659295,-0.149148 -1.7574,-0.709587 -2.34435,-1.196483 -0.970101,-0.804733 -1.691005,-1.975877 -1.992598,-3.237073 -0.230506,-0.963927 -0.18289,-2.256047 0.115699,-3.139589 0.549544,-1.626133 1.551771,-2.777622 3.071485,-3.528924 1.141064,-0.564109 2.234039,-0.748615 3.413244,-0.576192 2.461995,0.359991 4.374241,2.094946 4.989153,4.526589 0.232222,0.918318 0.181105,2.296455 -0.117993,3.181122 -0.541403,1.601346 -1.589649,2.805693 -3.07214,3.529632 -0.379422,0.185283 -0.896816,0.383695 -1.149764,0.440918 l -0.459906,0.104042 -0.03833,6.241006 c -0.03201,5.211994 -0.05624,6.267969 -0.147001,6.404541 -0.166822,0.251035 -0.495457,0.411346 -0.84325,0.411346 -0.251856,0 -0.372508,-0.05264 -0.601381,-0.262363 z M 50.038915,35.374497 c 0,-1.684094 0.04925,-1.925966 0.444984,-2.185259 0.262944,-0.172288 0.768492,-0.168926 1.036826,0.0069 0.401269,0.262921 0.434463,0.427109 0.434463,2.148977 v 1.580317 l 0.172465,-0.05023 c 0.61024,-0.177724 1.183497,-0.532425 1.700891,-1.05242 0.875623,-0.880029 1.244573,-1.838401 1.172955,-3.046833 -0.089,-1.501757 -0.895573,-2.71739 -2.241476,-3.378262 -1.843929,-0.905416 -3.983936,-0.313095 -5.143579,1.423663 -1.175768,1.760906 -0.667963,4.277169 1.110044,5.500471 0.311223,0.214126 1.101534,0.586605 1.254939,0.591459 0.03162,10e-4 0.05749,-0.691449 0.05749,-1.538778 z"
     id="path861"
     inkscape:connector-curvature="0" />
  <path
     style="fill:#008000;stroke:#fff22a;stroke-width:0.02146226;stroke-linejoin:round;stroke-miterlimit:4;stroke-dasharray:none;stroke-opacity:1"
     d="M 5.3694525,51.676302 5.0831371,51.413926 5.0629686,43.14828 5.0428,34.882633 4.526412,34.703435 C 2.3658083,33.953658 0.68002907,31.629764 0.18530748,28.719099 0.02907806,27.799933 0.02656447,26.182314 0.1799843,25.293355 c 0.5042375,-2.921699 2.1067075,-5.151019 4.3097556,-5.995634 0.4600865,-0.17639 0.6260056,-0.198113 1.5132085,-0.198113 0.8872029,0 1.053122,0.02172 1.5132085,0.198113 0.7883088,0.302225 1.3355514,0.65936 1.9777927,1.290723 1.2801134,1.25843 2.0832804,2.963809 2.3792764,5.051963 0.152741,1.077532 0.05327,2.776069 -0.226366,3.865514 -0.270337,1.053202 -0.877715,2.377744 -1.41622,3.088425 -0.7595676,1.002427 -1.7515274,1.759193 -2.7734082,2.115833 l -0.4941351,0.172454 -0.020169,8.265647 -0.020168,8.265646 -0.2863154,0.262376 c -0.2378619,0.217975 -0.3450692,0.262377 -0.6334959,0.262377 -0.2884268,0 -0.395634,-0.0444 -0.6334959,-0.262377 z M 5.1838428,26.505628 c 0.1374387,-0.24097 0.5404766,-0.474394 0.8191056,-0.474394 0.2786289,0 0.6816669,0.233424 0.8191056,0.474394 0.076694,0.134466 0.1098439,0.912357 0.1390312,3.26245 l 0.038325,3.085885 0.3296019,-0.176344 C 9.0294603,31.767844 10.148095,29.202153 10.003411,26.54364 9.8723439,24.135318 8.7605527,22.026385 7.2229375,21.26942 5.6296413,20.485043 3.8826732,21.31133 2.8285943,23.347878 c -1.4315436,2.765831 -1.0015525,6.665572 0.9510803,8.625684 0.2953242,0.296456 0.6921712,0.615475 0.8818823,0.708934 l 0.3449292,0.169924 0.038326,-3.085113 c 0.029187,-2.349456 0.062339,-3.127216 0.1390307,-3.261679 z"
     id="path863"
     inkscape:connector-curvature="0" />
  <path
     style="fill:#0000ff;stroke:#fff22a;stroke-width:0.02146226;stroke-linejoin:round;stroke-miterlimit:4;stroke-dasharray:none;stroke-opacity:1"
     d="M 13.01651,6.9829016 V 2.0389159 h 1.992924 1.992925 v 2.4911556 2.4911556 h 3.027712 3.027712 V 4.5300715 2.0389159 h 1.456368 1.456368 v 2.4911556 2.4911556 h 3.027712 3.027712 V 4.5300715 2.0389159 h 1.456368 1.456368 v 2.4911556 2.4911556 h 3.066038 3.066038 V 4.5300715 2.0389159 h 1.954599 1.954599 V 6.9829016 11.926887 H 28.998231 13.01651 Z"
     id="path865"
     inkscape:connector-curvature="0" />
</svg>
