<?xml version="1.0" encoding="UTF-8" standalone="no"?>
<svg
   xmlns:sketch="http://www.bohemiancoding.com/sketch/ns"
   xmlns:dc="http://purl.org/dc/elements/1.1/"
   xmlns:cc="http://creativecommons.org/ns#"
   xmlns:rdf="http://www.w3.org/1999/02/22-rdf-syntax-ns#"
   xmlns:svg="http://www.w3.org/2000/svg"
   xmlns="http://www.w3.org/2000/svg"
   xmlns:sodipodi="http://sodipodi.sourceforge.net/DTD/sodipodi-0.dtd"
   xmlns:inkscape="http://www.inkscape.org/namespaces/inkscape"
   viewBox="0 0 57 52"
   version="1.1"
   x="0px"
   y="0px"
   id="svg78"
   sodipodi:docname="castle.svg"
   width="57"
   height="52"
   inkscape:version="0.92.3 (2405546, 2018-03-11)">
  <metadata
     id="metadata84">
    <rdf:RDF>
      <cc:Work
         rdf:about="">
        <dc:format>image/svg+xml</dc:format>
        <dc:type
           rdf:resource="http://purl.org/dc/dcmitype/StillImage" />
        <dc:title>buildings-57</dc:title>
      </cc:Work>
    </rdf:RDF>
  </metadata>
  <defs
     id="defs82" />
  <sodipodi:namedview
     pagecolor="#ffffff"
     bordercolor="#666666"
     borderopacity="1"
     objecttolerance="10"
     gridtolerance="10"
     guidetolerance="10"
     inkscape:pageopacity="0"
     inkscape:pageshadow="2"
     inkscape:window-width="1920"
     inkscape:window-height="1017"
     id="namedview80"
     showgrid="false"
     fit-margin-top="0"
     fit-margin-left="0"
     fit-margin-right="0"
     fit-margin-bottom="0"
     inkscape:zoom="13.046154"
     inkscape:cx="28.5"
     inkscape:cy="25.632075"
     inkscape:window-x="-8"
     inkscape:window-y="-8"
     inkscape:window-maximized="1"
     inkscape:current-layer="svg78" />
  <title
     id="title48">buildings-57</title>
  <desc
     id="desc50">Created with Sketch.</desc>
  <g
     sketch:type="MSPage"
     id="g72"
     style="fill:none;fill-rule:evenodd;stroke:none;stroke-width:1">
    <g
       sketch:type="MSLayerGroup"
       id="g70"
       style="fill:#000000">
      <path
         d="M 14,12 H 44 V 52 H 14 Z m 2,38 H 42 V 14 H 16 Z"
         sketch:type="MSShapeGroup"
         id="path52"
         inkscape:connector-curvature="0" />
      <path
         d="M 47,14 H 11 V 0 h 8 v 5 h 2 V 0 h 7 v 5 h 2 V 0 h 7 v 5 h 2 V 0 h 8 z M 13,12 H 45 V 2 H 41 V 7 H 35 V 2 H 32 V 7 H 26 V 2 H 23 V 7 H 17 V 2 h -4 z"
         sketch:type="MSShapeGroup"
         id="path54"
         inkscape:connector-curvature="0" />
      <path
         d="m 27,27 h -9 v -6.5 c 0,-2.481 2.018,-4.5 4.5,-4.5 2.481,0 4.5,2.019 4.5,4.5 z m -7,-2 h 5 V 20.5 C 25,19.121 23.879,18 22.5,18 21.121,18 20,19.121 20,20.5 Z"
         sketch:type="MSShapeGroup"
         id="path56"
         inkscape:connector-curvature="0" />
      <path
         d="m 40,27 h -9 v -6.5 c 0,-2.481 2.019,-4.5 4.5,-4.5 2.481,0 4.5,2.019 4.5,4.5 z m -7,-2 h 5 V 20.5 C 38,19.121 36.879,18 35.5,18 34.121,18 33,19.121 33,20.5 Z"
         sketch:type="MSShapeGroup"
         id="path58"
         inkscape:connector-curvature="0" />
      <path
         d="M 37,52 H 21 V 39 c 0,-4.411 3.589,-8 8,-8 4.411,0 8,3.589 8,8 z M 23,50 H 35 V 39 c 0,-3.308 -2.691,-6 -6,-6 -3.309,0 -6,2.692 -6,6 z"
         sketch:type="MSShapeGroup"
         id="path60"
         inkscape:connector-curvature="0" />
      <path
         d="M 6,52 C 5.447,52 5,51.552 5,51 V 27 c 0,-0.552 0.447,-1 1,-1 0.553,0 1,0.448 1,1 v 24 c 0,0.552 -0.447,1 -1,1"
         sketch:type="MSShapeGroup"
         id="path62"
         inkscape:connector-curvature="0" />
      <path
         d="m 6,35 c -3.309,0 -6,-3.589 -6,-8 0,-4.411 2.691,-8 6,-8 3.309,0 6,3.589 6,8 0,4.411 -2.691,8 -6,8 z M 6,21 c -2.168,0 -4,2.748 -4,6 0,3.252 1.832,6 4,6 2.168,0 4,-2.748 4,-6 0,-3.252 -1.832,-6 -4,-6 z"
         sketch:type="MSShapeGroup"
         id="path64"
         inkscape:connector-curvature="0" />
      <path
         d="m 51,52 c -0.553,0 -1,-0.448 -1,-1 V 34 c 0,-0.552 0.447,-1 1,-1 0.553,0 1,0.448 1,1 v 17 c 0,0.552 -0.447,1 -1,1"
         sketch:type="MSShapeGroup"
         id="path66"
         inkscape:connector-curvature="0" />
      <path
         d="m 51,39 c -3.309,0 -6,-2.692 -6,-6 0,-3.308 2.691,-6 6,-6 3.309,0 6,2.692 6,6 0,3.308 -2.691,6 -6,6 z m 0,-10 c -2.206,0 -4,1.794 -4,4 0,2.206 1.794,4 4,4 2.206,0 4,-1.794 4,-4 0,-2.206 -1.794,-4 -4,-4 z"
         sketch:type="MSShapeGroup"
         id="path68"
         inkscape:connector-curvature="0" />
    </g>
  </g>
</svg>
