<?xml version="1.0" encoding="UTF-8" standalone="no"?>
<svg
   xmlns:dc="http://purl.org/dc/elements/1.1/"
   xmlns:cc="http://creativecommons.org/ns#"
   xmlns:rdf="http://www.w3.org/1999/02/22-rdf-syntax-ns#"
   xmlns:svg="http://www.w3.org/2000/svg"
   xmlns="http://www.w3.org/2000/svg"
   xmlns:sodipodi="http://sodipodi.sourceforge.net/DTD/sodipodi-0.dtd"
   xmlns:inkscape="http://www.inkscape.org/namespaces/inkscape"
   version="1.1"
   x="0px"
   y="0px"
   viewBox="0 0 80.000145 80"
   xml:space="preserve"
   id="svg126"
   sodipodi:docname="city.svg"
   width="80.000145"
   height="80"
   inkscape:version="0.92.3 (2405546, 2018-03-11)"><metadata
     id="metadata132"><rdf:RDF><cc:Work
         rdf:about=""><dc:format>image/svg+xml</dc:format><dc:type
           rdf:resource="http://purl.org/dc/dcmitype/StillImage" /><dc:title></dc:title></cc:Work></rdf:RDF></metadata><defs
     id="defs130" /><sodipodi:namedview
     pagecolor="#ffffff"
     bordercolor="#666666"
     borderopacity="1"
     objecttolerance="10"
     gridtolerance="10"
     guidetolerance="10"
     inkscape:pageopacity="0"
     inkscape:pageshadow="2"
     inkscape:window-width="1920"
     inkscape:window-height="1017"
     id="namedview128"
     showgrid="false"
     fit-margin-top="0"
     fit-margin-left="0"
     fit-margin-right="0"
     fit-margin-bottom="0"
     inkscape:zoom="6.784"
     inkscape:cx="40.000074"
     inkscape:cy="27.5"
     inkscape:window-x="-8"
     inkscape:window-y="-8"
     inkscape:window-maximized="1"
     inkscape:current-layer="svg126" /><path
     d="m 79.000074,78 h -1.25 V 62.145996 h 1.25 c 0.401367,0 0.763672,-0.239746 0.920898,-0.609375 0.15625,-0.36914 0.07715,-0.796387 -0.201172,-1.085449 L 67.75105,48.055176 c -0.376953,-0.389649 -1.0625,-0.389649 -1.439453,0 l -11.96875,12.395996 c -0.27832,0.289062 -0.357421,0.716309 -0.201172,1.085449 0.157227,0.369629 0.519532,0.609375 0.920899,0.609375 h 1.0625 V 78 h -5.3125 V 1 c 0,-0.552246 -0.447266,-1 -1,-1 h -19.625 c -0.552735,0 -1,0.447754 -1,1 v 77 h -5.5 V 61.638672 h 1.25 c 0.552734,0 1,-0.447754 1,-1 0,-0.552246 -0.447266,-1 -1,-1 h -1.25 v -15.875 h 1.25 c 0.552734,0 1,-0.447754 1,-1 0,-0.552246 -0.447266,-1 -1,-1 h -1.25 V 25.381836 h 1.25 c 0.401367,0 0.763672,-0.239746 0.920898,-0.609375 0.15625,-0.369141 0.07715,-0.796387 -0.201172,-1.085449 L 13.68855,11.291016 c -0.376953,-0.389649 -1.0625,-0.389649 -1.439453,0 L 0.28034734,23.687012 c -0.27832,0.289062 -0.3574216,0.716308 -0.201172,1.085449 0.157227,0.369629 0.519532,0.609375 0.92089896,0.609375 h 1.0625 v 16.381836 h -1.0625 c -0.55273396,0 -0.999999961517,0.447754 -0.999999961517,1 0,0.552246 0.447266001517,1 0.999999961517,1 h 1.0625 v 15.875 h -1.0625 c -0.55273396,0 -0.999999961517,0.447754 -0.999999961517,1 0,0.552246 0.447266001517,1 0.999999961517,1 h 1.0625 V 78 h -1.0625 C 0.44734034,78 7.4338483e-5,78.447754 7.4338483e-5,79 c 0,0.552246 0.447266001517,1 0.999999961517,1 H 79.000074 c 0.552734,0 1,-0.447754 1,-1 0,-0.552246 -0.447266,-1 -1,-1 z m -11.96875,-27.810547 9.613281,9.956543 H 57.418043 Z m -8.90625,11.956543 h 17.625 V 78 h -3.09375 v -8.302246 c 0,-0.552246 -0.447266,-1 -1,-1 h -9.25 c -0.552734,0 -1,0.447754 -1,1 V 78 h -3.28125 z m 9.90625,8.551758 h 2.625 V 78 h -2.625 z m -2,7.302246 h -2.625 v -7.302246 h 2.625 z M 31.187574,2 h 17.625 v 76 h -3.1875 v -8.302246 c 0,-0.552246 -0.447266,-1 -1,-1 h -9.25 c -0.552734,0 -1,0.447754 -1,1 V 78 h -3.1875 z m 9.8125,68.697754 h 2.625 V 78 h -2.625 z m -2,7.302246 h -2.625 v -7.302246 h 2.625 z m -26.03125,-64.574707 9.613281,9.956543 H 3.3555433 Z M 4.0625743,25.381836 H 21.687574 v 16.381836 h -3.09375 v -7.9375 c 0,-0.552246 -0.447266,-1 -1,-1 H 8.3438243 c -0.552734,0 -1,0.447754 -1,1 v 7.9375 h -3.28125 z m 9.9062497,16.381836 v -6.9375 h 2.625 v 6.9375 z m -4.6249997,0 v -6.9375 h 2.6249997 v 6.9375 z m -5.28125,2 H 21.687574 v 15.875 h -3.09375 v -7.9375 c 0,-0.552246 -0.447266,-1 -1,-1 H 8.3438243 c -0.552734,0 -1,0.447754 -1,1 v 7.9375 h -3.28125 z m 9.9062497,15.875 v -6.9375 h 2.625 v 6.9375 z m -4.6249997,0 v -6.9375 h 2.6249997 v 6.9375 z m -5.28125,2 H 21.687574 V 78 h -3.09375 v -8.302246 c 0,-0.552246 -0.447266,-1 -1,-1 H 8.3438243 c -0.552734,0 -1,0.447754 -1,1 V 78 h -3.28125 z m 9.9062497,9.059082 h 2.625 V 78 h -2.625 z m -2,7.302246 H 9.3438243 v -7.302246 h 2.6249997 z"
     id="path72"
     inkscape:connector-curvature="0" /><path
     d="m 35.375074,19.729004 c 0.552734,0 1,-0.447754 1,-1 v -2.583008 c 0,-0.552246 -0.447266,-1 -1,-1 -0.552734,0 -1,0.447754 -1,1 v 2.583008 c 0,0.552246 0.447266,1 1,1 z"
     id="path74"
     inkscape:connector-curvature="0" /><path
     d="m 40.000074,19.729004 c 0.552734,0 1,-0.447754 1,-1 v -2.583008 c 0,-0.552246 -0.447266,-1 -1,-1 -0.552734,0 -1,0.447754 -1,1 v 2.583008 c 0,0.552246 0.447266,1 1,1 z"
     id="path76"
     inkscape:connector-curvature="0" /><path
     d="m 44.625074,19.729004 c 0.552734,0 1,-0.447754 1,-1 v -2.583008 c 0,-0.552246 -0.447266,-1 -1,-1 -0.552734,0 -1,0.447754 -1,1 v 2.583008 c 0,0.552246 0.447266,1 1,1 z"
     id="path78"
     inkscape:connector-curvature="0" /><path
     d="m 35.375074,12.229004 c 0.552734,0 1,-0.447754 1,-1 V 8.645996 c 0,-0.552246 -0.447266,-1 -1,-1 -0.552734,0 -1,0.447754 -1,1 v 2.583008 c 0,0.552246 0.447266,1 1,1 z"
     id="path80"
     inkscape:connector-curvature="0" /><path
     d="m 40.000074,12.229004 c 0.552734,0 1,-0.447754 1,-1 V 8.645996 c 0,-0.552246 -0.447266,-1 -1,-1 -0.552734,0 -1,0.447754 -1,1 v 2.583008 c 0,0.552246 0.447266,1 1,1 z"
     id="path82"
     inkscape:connector-curvature="0" /><path
     d="m 44.625074,12.229004 c 0.552734,0 1,-0.447754 1,-1 V 8.645996 c 0,-0.552246 -0.447266,-1 -1,-1 -0.552734,0 -1,0.447754 -1,1 v 2.583008 c 0,0.552246 0.447266,1 1,1 z"
     id="path84"
     inkscape:connector-curvature="0" /><path
     d="m 35.375074,27.229004 c 0.552734,0 1,-0.447754 1,-1 v -2.583008 c 0,-0.552246 -0.447266,-1 -1,-1 -0.552734,0 -1,0.447754 -1,1 v 2.583008 c 0,0.552246 0.447266,1 1,1 z"
     id="path86"
     inkscape:connector-curvature="0" /><path
     d="m 40.000074,27.229004 c 0.552734,0 1,-0.447754 1,-1 v -2.583008 c 0,-0.552246 -0.447266,-1 -1,-1 -0.552734,0 -1,0.447754 -1,1 v 2.583008 c 0,0.552246 0.447266,1 1,1 z"
     id="path88"
     inkscape:connector-curvature="0" /><path
     d="m 44.625074,27.229004 c 0.552734,0 1,-0.447754 1,-1 v -2.583008 c 0,-0.552246 -0.447266,-1 -1,-1 -0.552734,0 -1,0.447754 -1,1 v 2.583008 c 0,0.552246 0.447266,1 1,1 z"
     id="path90"
     inkscape:connector-curvature="0" /><path
     d="m 35.375074,34.729004 c 0.552734,0 1,-0.447754 1,-1 v -2.583008 c 0,-0.552246 -0.447266,-1 -1,-1 -0.552734,0 -1,0.447754 -1,1 v 2.583008 c 0,0.552246 0.447266,1 1,1 z"
     id="path92"
     inkscape:connector-curvature="0" /><path
     d="m 40.000074,34.729004 c 0.552734,0 1,-0.447754 1,-1 v -2.583008 c 0,-0.552246 -0.447266,-1 -1,-1 -0.552734,0 -1,0.447754 -1,1 v 2.583008 c 0,0.552246 0.447266,1 1,1 z"
     id="path94"
     inkscape:connector-curvature="0" /><path
     d="m 44.625074,34.729004 c 0.552734,0 1,-0.447754 1,-1 v -2.583008 c 0,-0.552246 -0.447266,-1 -1,-1 -0.552734,0 -1,0.447754 -1,1 v 2.583008 c 0,0.552246 0.447266,1 1,1 z"
     id="path96"
     inkscape:connector-curvature="0" /><path
     d="m 35.375074,42.229004 c 0.552734,0 1,-0.447754 1,-1 v -2.583008 c 0,-0.552246 -0.447266,-1 -1,-1 -0.552734,0 -1,0.447754 -1,1 v 2.583008 c 0,0.552246 0.447266,1 1,1 z"
     id="path98"
     inkscape:connector-curvature="0" /><path
     d="m 40.000074,42.229004 c 0.552734,0 1,-0.447754 1,-1 v -2.583008 c 0,-0.552246 -0.447266,-1 -1,-1 -0.552734,0 -1,0.447754 -1,1 v 2.583008 c 0,0.552246 0.447266,1 1,1 z"
     id="path100"
     inkscape:connector-curvature="0" /><path
     d="m 44.625074,42.229004 c 0.552734,0 1,-0.447754 1,-1 v -2.583008 c 0,-0.552246 -0.447266,-1 -1,-1 -0.552734,0 -1,0.447754 -1,1 v 2.583008 c 0,0.552246 0.447266,1 1,1 z"
     id="path102"
     inkscape:connector-curvature="0" /><path
     d="m 35.375074,49.729004 c 0.552734,0 1,-0.447754 1,-1 v -2.583008 c 0,-0.552246 -0.447266,-1 -1,-1 -0.552734,0 -1,0.447754 -1,1 v 2.583008 c 0,0.552246 0.447266,1 1,1 z"
     id="path104"
     inkscape:connector-curvature="0" /><path
     d="m 40.000074,49.729004 c 0.552734,0 1,-0.447754 1,-1 v -2.583008 c 0,-0.552246 -0.447266,-1 -1,-1 -0.552734,0 -1,0.447754 -1,1 v 2.583008 c 0,0.552246 0.447266,1 1,1 z"
     id="path106"
     inkscape:connector-curvature="0" /><path
     d="m 44.625074,49.729004 c 0.552734,0 1,-0.447754 1,-1 v -2.583008 c 0,-0.552246 -0.447266,-1 -1,-1 -0.552734,0 -1,0.447754 -1,1 v 2.583008 c 0,0.552246 0.447266,1 1,1 z"
     id="path108"
     inkscape:connector-curvature="0" /><path
     d="m 35.375074,57.229004 c 0.552734,0 1,-0.447754 1,-1 v -2.583008 c 0,-0.552246 -0.447266,-1 -1,-1 -0.552734,0 -1,0.447754 -1,1 v 2.583008 c 0,0.552246 0.447266,1 1,1 z"
     id="path110"
     inkscape:connector-curvature="0" /><path
     d="m 40.000074,57.229004 c 0.552734,0 1,-0.447754 1,-1 v -2.583008 c 0,-0.552246 -0.447266,-1 -1,-1 -0.552734,0 -1,0.447754 -1,1 v 2.583008 c 0,0.552246 0.447266,1 1,1 z"
     id="path112"
     inkscape:connector-curvature="0" /><path
     d="m 44.625074,57.229004 c 0.552734,0 1,-0.447754 1,-1 v -2.583008 c 0,-0.552246 -0.447266,-1 -1,-1 -0.552734,0 -1,0.447754 -1,1 v 2.583008 c 0,0.552246 0.447266,1 1,1 z"
     id="path114"
     inkscape:connector-curvature="0" /><path
     d="m 35.375074,64.729004 c 0.552734,0 1,-0.447754 1,-1 v -2.583008 c 0,-0.552246 -0.447266,-1 -1,-1 -0.552734,0 -1,0.447754 -1,1 v 2.583008 c 0,0.552246 0.447266,1 1,1 z"
     id="path116"
     inkscape:connector-curvature="0" /><path
     d="m 40.000074,64.729004 c 0.552734,0 1,-0.447754 1,-1 v -2.583008 c 0,-0.552246 -0.447266,-1 -1,-1 -0.552734,0 -1,0.447754 -1,1 v 2.583008 c 0,0.552246 0.447266,1 1,1 z"
     id="path118"
     inkscape:connector-curvature="0" /><path
     d="m 44.625074,64.729004 c 0.552734,0 1,-0.447754 1,-1 v -2.583008 c 0,-0.552246 -0.447266,-1 -1,-1 -0.552734,0 -1,0.447754 -1,1 v 2.583008 c 0,0.552246 0.447266,1 1,1 z"
     id="path120"
     inkscape:connector-curvature="0" /></svg>