<?xml version="1.0" encoding="UTF-8" standalone="no"?>
<svg
   xmlns:dc="http://purl.org/dc/elements/1.1/"
   xmlns:cc="http://creativecommons.org/ns#"
   xmlns:rdf="http://www.w3.org/1999/02/22-rdf-syntax-ns#"
   xmlns:svg="http://www.w3.org/2000/svg"
   xmlns="http://www.w3.org/2000/svg"
   xmlns:sodipodi="http://sodipodi.sourceforge.net/DTD/sodipodi-0.dtd"
   xmlns:inkscape="http://www.inkscape.org/namespaces/inkscape"
   viewBox="0 0 51.14 50.840001"
   x="0px"
   y="0px"
   version="1.1"
   id="svg58"
   sodipodi:docname="Fox.svg"
   width="51.139999"
   height="50.84"
   inkscape:version="0.92.3 (2405546, 2018-03-11)">
  <metadata
     id="metadata64">
    <rdf:RDF>
      <cc:Work
         rdf:about="">
        <dc:format>image/svg+xml</dc:format>
        <dc:type
           rdf:resource="http://purl.org/dc/dcmitype/StillImage" />
        <dc:title>fox</dc:title>
      </cc:Work>
    </rdf:RDF>
  </metadata>
  <defs
     id="defs62" />
  <sodipodi:namedview
     pagecolor="#ffffff"
     bordercolor="#666666"
     borderopacity="1"
     objecttolerance="10"
     gridtolerance="10"
     guidetolerance="10"
     inkscape:pageopacity="0"
     inkscape:pageshadow="2"
     inkscape:window-width="1920"
     inkscape:window-height="1017"
     id="namedview60"
     showgrid="false"
     fit-margin-top="0"
     fit-margin-left="0"
     fit-margin-right="0"
     fit-margin-bottom="0"
     inkscape:zoom="13.346449"
     inkscape:cx="25.57"
     inkscape:cy="25.065354"
     inkscape:window-x="-8"
     inkscape:window-y="-8"
     inkscape:window-maximized="1"
     inkscape:current-layer="svg58" />
  <title
     id="title38">fox</title>
  <g
     data-name="Layer 2"
     id="g52">
    <g
       data-name="Layer 1"
       id="g50">
      <path
         d="M 25.35,7 14,0 13.19,12.78 0,10.88 1.31,12.4 c 0.1,0.11 9.83,11.48 10.83,17.82 1,6.54 2.92,20.48 2.94,20.62 l 1.49,-0.2 C 16.57,50.5 14.66,36.55 13.63,29.99 12.77,24.6 6.45,16.31 3.7,12.93 l 10.91,1.57 0.75,-11.91 9.72,6 19.18,-4.4 c 0.63,1.33 2,4 3.41,4.33 -1.07,3.88 -2.48,8.38 -3.67,10.32 -2.43,4.06 -5.21,9 -7.12,12.45 -2.6,4.76 1.28,12.39 1.45,12.71 l 1.33,-0.69 c 0,-0.07 -3.68,-7.24 -1.44,-11.29 1.9,-3.43 4.67,-8.37 7.09,-12.41 C 47.73,15.57 50.73,2.8 50.86,2.25 L 51.14,1.08 Z M 45.26,4 49.11,3.12 C 48.85,4.12 48.44,5.77 47.94,7.6 47.29,7.49 46.14,5.77 45.26,4 Z"
         id="path40"
         inkscape:connector-curvature="0" />
      <path
         d="m 25.87,14.73 c 0.39,0.49 0.52,0.88 0.39,1.18 -0.33,0.77 -2.27,1.15 -3.16,1.21 l 0.07,1 c 0.34,0 3.34,-0.28 4,-1.81 A 2.11,2.11 0 0 0 26.64,14.1 Z"
         id="path42"
         inkscape:connector-curvature="0" />
      <path
         d="m 32.11,8.32 c 0.39,0.49 0.52,0.88 0.39,1.18 -0.33,0.77 -2.27,1.15 -3.16,1.21 l 0.07,1 c 0.34,0 3.34,-0.28 4,-1.81 A 2.11,2.11 0 0 0 32.88,7.69 Z"
         id="path44"
         inkscape:connector-curvature="0" />
      <path
         d="m 28.74,24.28 -0.89,0.46 A 4,4 0 0 0 29,26 a 3,3 0 0 0 1.75,0.59 3.52,3.52 0 0 0 1.62,-0.43 l -0.46,-0.89 a 2.24,2.24 0 0 1 -3.17,-0.99 z"
         id="path46"
         inkscape:connector-curvature="0" />
      <rect
         x="18.17"
         y="14.48"
         width="3.23"
         height="1"
         transform="rotate(-50.55,19.782702,14.987039)"
         id="rect48" />
    </g>
  </g>
</svg>
