<?xml version="1.0" encoding="UTF-8" standalone="no"?>
<svg
   xmlns:dc="http://purl.org/dc/elements/1.1/"
   xmlns:cc="http://creativecommons.org/ns#"
   xmlns:rdf="http://www.w3.org/1999/02/22-rdf-syntax-ns#"
   xmlns:svg="http://www.w3.org/2000/svg"
   xmlns="http://www.w3.org/2000/svg"
   xmlns:sodipodi="http://sodipodi.sourceforge.net/DTD/sodipodi-0.dtd"
   xmlns:inkscape="http://www.inkscape.org/namespaces/inkscape"
   width="212.5818"
   height="137.06587"
   viewBox="0 0 212.5818 137.06587"
   version="1.1"
   id="svg72"
   sodipodi:docname="fox_wakeUp1.svg"
   inkscape:version="0.92.4 (5da689c313, 2019-01-14)">
  <metadata
     id="metadata76">
    <rdf:RDF>
      <cc:Work
         rdf:about="">
        <dc:format>image/svg+xml</dc:format>
        <dc:type
           rdf:resource="http://purl.org/dc/dcmitype/StillImage" />
        <dc:title>Group 11</dc:title>
      </cc:Work>
    </rdf:RDF>
  </metadata>
  <sodipodi:namedview
     pagecolor="#ffffff"
     bordercolor="#666666"
     borderopacity="1"
     objecttolerance="10"
     gridtolerance="10"
     guidetolerance="10"
     inkscape:pageopacity="0"
     inkscape:pageshadow="2"
     inkscape:window-width="1920"
     inkscape:window-height="1017"
     id="namedview74"
     showgrid="false"
     inkscape:zoom="3.4264374"
     inkscape:cx="106.49831"
     inkscape:cy="87.066096"
     inkscape:window-x="-8"
     inkscape:window-y="-8"
     inkscape:window-maximized="1"
     inkscape:current-layer="svg72"
     fit-margin-top="0"
     fit-margin-left="0"
     fit-margin-right="0"
     fit-margin-bottom="0" />
  <!-- Generator: Sketch 51.1 (57501) - http://www.bohemiancoding.com/sketch -->
  <title
     id="title44">Group 11</title>
  <desc
     id="desc46">Created with Sketch.</desc>
  <defs
     id="defs48" />
  <g
     id="Тест"
     transform="matrix(1,0,0,0.78958181,-0.00168826,-0.76834832)"
     style="fill:none;fill-rule:evenodd;stroke:none;stroke-width:1">
    <g
       id="Group-11">
      <path
         d="m 57.13,143.34 c -9.252542,5.05419 -18.78831,9.57166 -28.56,13.53 -11.81,4.66 -24.17,7.57 -28.27,7.06 0,0 -1.49,5.63 2.19,4.93 3.68,-0.7 25.24,-1.5 36,-8.37 10.76,-6.87 31.19,-9.63 31.19,-9.63 z"
         id="Shape"
         inkscape:connector-curvature="0"
         style="fill:#511e17;fill-rule:nonzero" />
      <path
         d="m 97.82,130.54 c 0,0 37.5163,-21.33038 50.39,-53.65 12.63914,-31.730767 28.73356,14.772328 28.80228,24.32602 C 177.09,112.02301 172.45,122.85 173.17,126.94 c 0.72,4.09 32.35908,6.99505 33.90788,15.86364 1.26811,7.26136 -4.94386,16.75298 -26.99038,24.43863 -17.06614,5.94944 -36.25594,8.59501 -41.74594,6.60501 -5.49,-1.99 -4.08094,-6.33614 -1.66454,-6.67183 14.40597,-2.00127 48.85468,-12.02218 49.06435,-18.875 0.23821,-7.78545 -16.19939,2.88744 -23.00118,-3.43727 -2.46581,-2.29285 7.19195,-8.16346 -9.87342,10.54063 C 138.75592,169.84699 121.45,167.87 107.22,166.62 c -14.23,-1.25 -33.2,-4.51 -35.2,-2.52 -2,1.99 -26.17,-18.93 -7.45,-24.44 18.72,-5.51 33.25,-9.12 33.25,-9.12 z"
         id="path51"
         inkscape:connector-curvature="0"
         style="fill:#cb2027;fill-rule:nonzero"
         sodipodi:nodetypes="cssssssssscsssc" />
      <path
         d="m 158.68,66.47 c 0,0 2.92,0.38 6.38,-2.89 3.46,-3.27 0.35412,-6.218872 -1.45588,-18.858872 -1.21,-8.42 1.19001,-14.90188 2.93001,-19.52188 0.91206,-2.416202 6.10115,-8.686963 7.89402,-10.545864 C 177.77815,11.173384 184.39,8.59 191.56,5.29 202.07,0.46 210.72,0.38 212.35,1.8 c 1.63,1.42 -5.84,3.35 -4.94,11.64 1,8.86 6.24026,18.15829 4.29621,32.028496 -1.71397,12.228693 -5.61815,26.090376 -20.53815,31.150376 C 176.24806,81.678872 160.02,77.04 153.24,73.6 c -6.78,-3.44 5.44,-7.13 5.44,-7.13 z"
         id="path53"
         inkscape:connector-curvature="0"
         style="fill:#cb2027;fill-rule:nonzero"
         sodipodi:nodetypes="csccccscsssc" />
      <path
         d="M 59.237897,148.35749 C 50.564332,133.08495 45.700283,83.092279 44.214877,52.816218 c -0.109637,-2.085307 1.214936,-10.382514 2.61595,-11.10621 1.401014,-0.723699 1.943107,3.859234 2.826928,5.544641 5.037459,9.802087 9.046505,17.068351 17.511654,19.379045 19.982926,5.435173 18.125615,0.278672 28.320827,4.66993 9.472754,4.080084 14.994184,24.880135 5.605304,44.325096 -7.567164,15.57952 -29.077539,30.17797 -37.289318,35.31882 -0.846414,0.56099 -1.82191,0.60018 -2.68991,0.10805 -0.867997,-0.49215 -1.549206,-1.47057 -1.878415,-2.6981 z"
         id="path55"
         inkscape:connector-curvature="0"
         style="fill:#cb2027;fill-rule:nonzero;stroke-width:1.65819895"
         sodipodi:nodetypes="cccccscccc" />
      <path
         d="m 110.5116,81.395145 c 2.71826,0.784273 3.92099,0.784092 3.463,8.193082 -0.9079,5.9336 -0.35242,3.698194 -1.93974,8.54723 -2.65442,9.622043 -8.24706,18.498013 -12.328223,20.504253 -4.479322,2.23062 -5.458137,-24.787642 -5.607448,-30.252002 -0.009,-0.25564 0.04623,-0.5065 0.153615,-0.69718 0.107388,-0.19069 0.258057,-0.30552 0.418743,-0.31914 2.513398,-0.40917 6.416413,1.821813 12.538163,-4.408086 z"
         id="path57"
         inkscape:connector-curvature="0"
         style="fill:#cb2027;fill-rule:nonzero;stroke-width:1.04635501"
         sodipodi:nodetypes="ccccccccc" />
      <path
         d="M 77.984894,107.92584 C 84.999033,97.245234 88.814953,90.968475 87.071709,83.004407 85.49318,75.799616 80.126199,75.88399 69.227511,74.871604 62.995776,74.28105 61.318798,67.470268 56.816571,58.443202 c -6.065184,-12.545584 1.118737,3.30755 -3.989148,-9.093883 -0.861447,-1.466451 -3.80852,-8.375331 -5.237351,-7.957721 -3.031861,0.886136 -5.143625,9.621579 -5.026138,11.42462 -0.883329,9.874638 -2.094221,32.082884 8.683369,72.100142 6.49254,-0.87739 21.000005,-8.25029 26.737591,-16.99052 z"
         id="path59"
         inkscape:connector-curvature="0"
         style="fill:#fff6d1;fill-rule:nonzero;stroke-width:1.52185464"
         sodipodi:nodetypes="cccccsccc" />
      <path
         d="m 62.45,146.66 c -8.75679,6.34254 -18.317006,11.49423 -28.43,15.32 -12.61,4.5 -29.69,6 -32.77,4.74 0,0 -3.69,5.13 1.71,5.56 5.4,0.43 22.69,2.81 35,-1.94 11.35,-4.38 29.34,-6.91 33.65,-6.32 0.37,0 0.26,0 0.14,-0.18 -1.59,-1.72 -7.64,-7.55 -7.64,-7.55 l 3.46,-3.45 -5.62,-1.4 z"
         id="path61"
         inkscape:connector-curvature="0"
         style="fill:#6b1d10;fill-rule:nonzero" />
      <path
         d="m 55.046501,136.66387 c 0,0 -6.876033,8.87637 -1.146006,11.21726 5.730028,2.34088 20.845841,0.99814 20.845841,0.99814 0,0 14.336529,-2.23394 21.040661,-8.19905 3.954309,-3.44119 6.658723,-8.17764 7.666773,-13.42743 0,0 -6.234266,-7.02267 -9.592063,-3.29151 -1.684628,1.86558 -8.881542,12.97589 -18.336088,16.24363 -9.454545,3.26774 -20.479118,-3.54104 -20.479118,-3.54104 z"
         id="path63"
         inkscape:connector-curvature="0"
         style="fill:#575eaa;fill-rule:nonzero;stroke-width:1.1669457" />
      <path
         d="m 68.002451,84.345007 c 1.765016,-1.320907 8.554557,1.683752 6.470482,8.482218"
         id="path65"
         inkscape:connector-curvature="0"
         style="stroke:#232321;stroke-width:1.51367998"
         sodipodi:nodetypes="cc" />
      <ellipse
         id="Oval"
         transform="matrix(0.83782279,-0.54594227,0.32883425,0.94438765,0,0)"
         style="fill:#6b1d10;fill-rule:nonzero;stroke-width:1.38913739"
         ry="2.8311298"
         rx="4.0855198"
         cy="63.936054"
         cx="30.747807" />
      <path
         d="m 191.56,5.29 c -2.00798,0.9433996 -12.49251,5.497743 -12.49251,5.497743 l 6.75445,5.436991 8.67806,0.485265 c 1.61031,3.453765 4.81352,8.555691 7.16739,7.75624 l 7.36185,-2.099248 C 209.10494,20.365631 207.5923,15.404479 207.41,13.41 206.51,5.12 213.98,3.2 212.35,1.77 210.72,0.34 202.07,0.46 191.56,5.29 Z"
         id="path68"
         inkscape:connector-curvature="0"
         style="fill:#fff6d1;fill-rule:nonzero"
         sodipodi:nodetypes="cccccccsc" />
    </g>
  </g>
</svg>
