<?xml version="1.0" encoding="UTF-8" standalone="no"?>
<svg
   xmlns:dc="http://purl.org/dc/elements/1.1/"
   xmlns:cc="http://creativecommons.org/ns#"
   xmlns:rdf="http://www.w3.org/1999/02/22-rdf-syntax-ns#"
   xmlns:svg="http://www.w3.org/2000/svg"
   xmlns="http://www.w3.org/2000/svg"
   xmlns:sodipodi="http://sodipodi.sourceforge.net/DTD/sodipodi-0.dtd"
   xmlns:inkscape="http://www.inkscape.org/namespaces/inkscape"
   width="212.5818"
   height="137.06587"
   viewBox="0 0 212.5818 137.06587"
   version="1.1"
   id="svg72"
   sodipodi:docname="fox_wakeUp.svg"
   inkscape:version="0.92.4 (5da689c313, 2019-01-14)">
  <metadata
     id="metadata76">
    <rdf:RDF>
      <cc:Work
         rdf:about="">
        <dc:format>image/svg+xml</dc:format>
        <dc:type
           rdf:resource="http://purl.org/dc/dcmitype/StillImage" />
        <dc:title>Group 11</dc:title>
      </cc:Work>
    </rdf:RDF>
  </metadata>
  <sodipodi:namedview
     pagecolor="#ffffff"
     bordercolor="#666666"
     borderopacity="1"
     objecttolerance="10"
     gridtolerance="10"
     guidetolerance="10"
     inkscape:pageopacity="0"
     inkscape:pageshadow="2"
     inkscape:window-width="1920"
     inkscape:window-height="1017"
     id="namedview74"
     showgrid="false"
     inkscape:zoom="4.8457143"
     inkscape:cx="106.49831"
     inkscape:cy="87.066096"
     inkscape:window-x="-8"
     inkscape:window-y="-8"
     inkscape:window-maximized="1"
     inkscape:current-layer="svg72"
     fit-margin-top="0"
     fit-margin-left="0"
     fit-margin-right="0"
     fit-margin-bottom="0" />
  <!-- Generator: Sketch 51.1 (57501) - http://www.bohemiancoding.com/sketch -->
  <title
     id="title44">Group 11</title>
  <desc
     id="desc46">Created with Sketch.</desc>
  <defs
     id="defs48" />
  <g
     id="Тест"
     transform="matrix(1,0,0,0.78958181,-0.00168826,-0.76834832)"
     style="fill:none;fill-rule:evenodd;stroke:none;stroke-width:1">
    <g
       id="Group-11">
      <path
         d="m 57.13,143.34 c -9.252542,5.05419 -18.78831,9.57166 -28.56,13.53 -11.81,4.66 -24.17,7.57 -28.27,7.06 0,0 -1.49,5.63 2.19,4.93 3.68,-0.7 25.24,-1.5 36,-8.37 10.76,-6.87 31.19,-9.63 31.19,-9.63 z"
         id="Shape"
         inkscape:connector-curvature="0"
         style="fill:#511e17;fill-rule:nonzero" />
      <path
         d="m 97.82,130.54 c 0,0 37.5163,-21.33038 50.39,-53.65 12.63914,-31.730767 28.73356,14.772328 28.80228,24.32602 C 177.09,112.02301 172.45,122.85 173.17,126.94 c 0.72,4.09 10.48408,23.72232 12.03288,32.59091 1.26811,7.26136 -11.54463,8.92591 -15.64014,10.06363 -2.86341,0.79545 -33.57316,6.5041 -39.06316,4.5141 -5.49,-1.99 -2.84273,-6.5975 -0.42633,-6.93319 14.40597,-2.00127 39.56812,-5.74945 39.77779,-12.60227 0.23821,-7.78545 -10.42109,-14.1012 -17.22288,-20.42591 -2.46581,-2.29285 17.30398,2.55245 0.23861,21.25654 C 138.75592,169.84699 121.45,167.87 107.22,166.62 c -14.23,-1.25 -33.2,-4.51 -35.2,-2.52 -2,1.99 -26.17,-18.93 -7.45,-24.44 18.72,-5.51 33.25,-9.12 33.25,-9.12 z"
         id="path51"
         inkscape:connector-curvature="0"
         style="fill:#cb2027;fill-rule:nonzero"
         sodipodi:nodetypes="cssssssssscsssc" />
      <path
         d="m 158.68,66.47 c 0,0 2.92,0.38 6.38,-2.89 3.46,-3.27 2.39706,-5.11 0.58706,-17.75 -1.21,-8.42 1.7737,-16.010752 3.5137,-20.630752 0.91206,-2.416202 3.18267,-6.838843 4.97554,-8.697744 C 177.4863,13.021504 184.39,8.59 191.56,5.29 202.07,0.46 210.72,0.38 212.35,1.8 c 1.63,1.42 -5.84,3.35 -4.94,11.64 1,8.86 1.79403,28.339248 0.79403,31.289248 -1,2.95 -5.91,23.133385 -20.83,28.193385 C 172.45403,77.982633 160.02,77.04 153.24,73.6 c -6.78,-3.44 5.44,-7.13 5.44,-7.13 z"
         id="path53"
         inkscape:connector-curvature="0"
         style="fill:#cb2027;fill-rule:nonzero"
         sodipodi:nodetypes="csccccscsssc" />
      <path
         d="M 59.237897,148.35749 C 50.564332,133.08495 41.595184,81.173264 40.109778,50.897203 c -0.109637,-2.085307 0.779941,-4.020318 2.180955,-4.744014 1.401014,-0.723699 2.974946,-0.06122 3.858767,1.624187 5.037459,9.802087 12.55476,16.545624 21.019909,18.856318 19.982926,5.435173 18.125615,0.278672 28.320827,4.66993 9.472754,4.080084 14.994184,24.880135 5.605304,44.325096 -7.567164,15.57952 -29.077539,30.17797 -37.289318,35.31882 -0.846414,0.56099 -1.82191,0.60018 -2.68991,0.10805 -0.867997,-0.49215 -1.549206,-1.47057 -1.878415,-2.6981 z"
         id="path55"
         inkscape:connector-curvature="0"
         style="fill:#cb2027;fill-rule:nonzero;stroke-width:1.65819895"
         sodipodi:nodetypes="cccccscccc" />
      <path
         d="m 112.57528,76.167874 c 5.40105,-8.886179 3.45397,-0.484941 2.22479,7.670354 -0.9079,5.9336 -1.17789,7.357284 -2.76521,12.729048 -2.65442,9.622044 -8.24706,20.066194 -12.328223,22.072434 -4.479322,2.23062 -5.458137,-24.787642 -5.607448,-30.252002 -0.009,-0.25564 0.04623,-0.5065 0.153615,-0.69718 0.107388,-0.19069 0.258057,-0.30552 0.418743,-0.31914 2.513398,-0.40917 7.654623,-0.53046 13.776373,-6.760359 z"
         id="path57"
         inkscape:connector-curvature="0"
         style="fill:#cb2027;fill-rule:nonzero;stroke-width:1.04635501"
         sodipodi:nodetypes="ccccccccc" />
      <path
         d="M 77.984894,107.92584 C 84.999033,97.245234 88.814953,90.968475 87.071709,83.004407 85.49318,75.799616 80.126199,75.88399 69.227511,74.871604 62.995776,74.28105 56.365968,63.549814 51.863741,54.522748 c -2.350562,-2.352404 -4.453197,-5.056084 -6.259195,-8.048429 -0.861447,-1.466451 -2.411858,-2.048401 -3.792775,-1.423631 -1.380918,0.624772 -2.254475,2.303399 -2.136988,4.10644 -0.883329,9.874638 0.79493,35.741974 11.57252,75.759232 6.49254,-0.87739 21.000005,-8.25029 26.737591,-16.99052 z"
         id="path59"
         inkscape:connector-curvature="0"
         style="fill:#fff6d1;fill-rule:nonzero;stroke-width:1.52185464"
         sodipodi:nodetypes="cccccsccc" />
      <path
         d="m 62.45,146.66 c -8.75679,6.34254 -18.317006,11.49423 -28.43,15.32 -12.61,4.5 -29.69,6 -32.77,4.74 0,0 -3.69,5.13 1.71,5.56 5.4,0.43 22.69,2.81 35,-1.94 11.35,-4.38 29.34,-6.91 33.65,-6.32 0.37,0 0.26,0 0.14,-0.18 -1.59,-1.72 -7.64,-7.55 -7.64,-7.55 l 3.46,-3.45 -5.62,-1.4 z"
         id="path61"
         inkscape:connector-curvature="0"
         style="fill:#6b1d10;fill-rule:nonzero" />
      <path
         d="m 55.046501,136.66387 c 0,0 -6.876033,8.87637 -1.146006,11.21726 5.730028,2.34088 20.845841,0.99814 20.845841,0.99814 0,0 14.336529,-2.23394 21.040661,-8.19905 3.954309,-3.44119 6.658723,-8.17764 7.666773,-13.42743 0,0 -6.234266,-7.02267 -9.592063,-3.29151 -1.684628,1.86558 -8.881542,12.97589 -18.336088,16.24363 -9.454545,3.26774 -20.479118,-3.54104 -20.479118,-3.54104 z"
         id="path63"
         inkscape:connector-curvature="0"
         style="fill:#575eaa;fill-rule:nonzero;stroke-width:1.1669457" />
      <path
         d="m 68.002451,84.345007 c 0,0 -0.509991,7.576488 6.470482,8.482218"
         id="path65"
         inkscape:connector-curvature="0"
         style="stroke:#232321;stroke-width:1.51367998" />
      <ellipse
         id="Oval"
         transform="matrix(0.83782279,-0.54594227,0.32883425,0.94438765,0,0)"
         style="fill:#6b1d10;fill-rule:nonzero;stroke-width:1.38913739"
         ry="2.8311298"
         rx="4.0855198"
         cy="64.540779"
         cx="25.091541" />
      <path
         d="m 191.56,5.29 c -2.00798,0.9433996 -3.94035,2.0399724 -5.78,3.28 l 7.63,2.48 1.09,5.66 c 0.53936,2.775586 3.22289,4.591438 6,4.06 l 7.07,-1.36 c 0.0757,-2.00136 0.0223,-4.005521 -0.16,-6 -0.9,-8.29 6.57,-10.21 4.94,-11.64 -1.63,-1.43 -10.28,-1.31 -20.79,3.52 z"
         id="path68"
         inkscape:connector-curvature="0"
         style="fill:#fff6d1;fill-rule:nonzero" />
    </g>
  </g>
</svg>
