<?xml version="1.0" encoding="UTF-8" standalone="no"?>
<svg
   xmlns:dc="http://purl.org/dc/elements/1.1/"
   xmlns:cc="http://creativecommons.org/ns#"
   xmlns:rdf="http://www.w3.org/1999/02/22-rdf-syntax-ns#"
   xmlns:svg="http://www.w3.org/2000/svg"
   xmlns="http://www.w3.org/2000/svg"
   xmlns:sodipodi="http://sodipodi.sourceforge.net/DTD/sodipodi-0.dtd"
   xmlns:inkscape="http://www.inkscape.org/namespaces/inkscape"
   width="106.11062"
   height="90.874222"
   viewBox="-40 -20 143.39273 118.21037"
   version="1.1"
   id="svg88"
   sodipodi:docname="fox_sniff.svg"
   inkscape:version="0.92.4 (5da689c313, 2019-01-14)">
  <metadata
     id="metadata92">
    <rdf:RDF>
      <cc:Work
         rdf:about="">
        <dc:format>image/svg+xml</dc:format>
        <dc:type
           rdf:resource="http://purl.org/dc/dcmitype/StillImage" />
        <dc:title>Group 10</dc:title>
      </cc:Work>
    </rdf:RDF>
  </metadata>
  <sodipodi:namedview
     pagecolor="#ffffff"
     bordercolor="#666666"
     borderopacity="1"
     objecttolerance="10"
     gridtolerance="10"
     guidetolerance="10"
     inkscape:pageopacity="0"
     inkscape:pageshadow="2"
     inkscape:window-width="1214"
     inkscape:window-height="978"
     id="namedview90"
     showgrid="false"
     inkscape:zoom="6.8943089"
     inkscape:cx="41.375419"
     inkscape:cy="46.03898"
     inkscape:window-x="109"
     inkscape:window-y="19"
     inkscape:window-maximized="0"
     inkscape:current-layer="svg88"
     fit-margin-top="0"
     fit-margin-left="0"
     fit-margin-right="0"
     fit-margin-bottom="0" />
  <!-- Generator: Sketch 51.1 (57501) - http://www.bohemiancoding.com/sketch -->
  <title
     id="title52">Group 10</title>
  <desc
     id="desc54">Created with Sketch.</desc>
  <defs
     id="defs56" />
  <g
     id="Тест"
     style="fill:none;fill-rule:evenodd;stroke:none;stroke-width:1"
     transform="translate(-44.087272,-22.519941)">
    <g
       id="Group-10"
       transform="translate(0,-1)">
      <path
         d="m 29.25,31.92 c 0,0 -7.679806,-15.946204 -20.5798062,-15.836204 C -4.2298062,16.193796 14.2,59.42 14.2,59.42 Z"
         id="Shape"
         inkscape:connector-curvature="0"
         style="fill:#cb2027;fill-rule:nonzero"
         sodipodi:nodetypes="cscc" />
      <ellipse
         id="Oval"
         cx="99.059998"
         cy="85.610001"
         rx="48.419998"
         ry="37.240002"
         style="fill:#a11d21;fill-rule:nonzero" />
      <path
         d="M 24.18,39.76 C 19.97,34.04 13.164233,20.473797 7.6842325,16.143797 -2.9057675,18.373797 13.46,59.37 13.46,59.37 Z"
         id="path60"
         inkscape:connector-curvature="0"
         style="fill:#a11d21;fill-rule:nonzero"
         sodipodi:nodetypes="cccc" />
      <path
         d="m 41.36,85.6 6.36,17.71 44.5,-20 c 0,0 16,-23.2 10.84,-37.14 -5.16,-13.94 -19.81,2.18 -19.81,2.18 z"
         id="path62"
         inkscape:connector-curvature="0"
         style="fill:#575eaa;fill-rule:nonzero" />
      <path
         d="m 58.78,23.46 c 2.559987,-3.599001 4.91699,-7.338155 7.06,-11.2 C 68.46,7.4 64.445719,1.1419709 66.005719,0.43197093 66.585719,0.17197093 79.41,2.4 82.63,8.84 c 3.22,6.44 2.58,32.39 2.58,32.39 z"
         id="path64"
         inkscape:connector-curvature="0"
         style="fill:#cb2027;fill-rule:nonzero"
         sodipodi:nodetypes="cccscc" />
      <path
         d="M 71.085961,2.2160581 65.769709,0.64798062 C 64.209709,1.3579806 68.42,7.42 65.8,12.28 c -2.14301,3.861845 -4.500013,7.600999 -7.06,11.2 l 10,6.75 c 1,0.34 2.08,0.73 3.22,1.16 9.98,3.74 3.315961,-16.553942 -0.874039,-29.1739419 z"
         id="path66"
         inkscape:connector-curvature="0"
         style="fill:#a11d21;fill-rule:nonzero"
         sodipodi:nodetypes="ccccccc" />
      <path
         d="m 95.48,45.51 c 4.83,14.22 -9.55,36.26 -29,42.89 C 47.03,95.03 17.84,86.33 13.01,72.11 8.18,57.89 17.08,31.67 43.33,23.52 66.72,16.24 90.65,31.3 95.48,45.51 Z"
         id="path68"
         inkscape:connector-curvature="0"
         style="fill:#cb2027;fill-rule:nonzero" />
      <path
         d="m 145.52,85.92 c 2,6.46 -0.12,14.5 -7.25,21.53 -5.06352,5.21574 -11.25061,9.20708 -18.09,11.67 -6.33715,2.01914 -12.89432,3.26812 -19.53,3.72 -11.37,0.93 -41.89,0.74 -58.92,-7.91 C 23.85,105.84 17.143845,84.257545 17.143845,84.257545 29.960913,86.26177 46.182273,94.954486 58.8,91.94 c 9.26,-2.33 17.84,-12 26.94,-14.81 28.78,-8.87 55.56,-4.93 59.78,8.79 z"
         id="path70"
         inkscape:connector-curvature="0"
         style="fill:#cb2027;fill-rule:nonzero"
         sodipodi:nodetypes="ccccccccc" />
      <path
         d="m 62.73,85.04 c 0,0 -9.4,-19.68 -25.16,-21.84 -7.81,-1.07 -22.12,2.75 -25.48,5.28 0.195026,1.23268 0.492729,2.446906 0.89,3.63 4.83,14.22 34,22.91 53.47,16.29 17.79,-6 31.32,-25 29.87,-39 -7.8,1.1 -13.54,-2 -22.29,1.58 -16.62,6.88 -11.3,34.06 -11.3,34.06 z"
         id="path72"
         inkscape:connector-curvature="0"
         style="fill:#fff6d1;fill-rule:nonzero" />
      <ellipse
         id="ellipse74"
         transform="rotate(-22.27,62.013758,83.344724)"
         ry="5.8992805"
         rx="7.6106009"
         cy="83.344727"
         cx="62.01376"
         style="fill:#6b1d10;fill-rule:nonzero" />
      <path
         d="m 71.16,64.78 c 0,0 2.995767,-7.064329 11.406058,-8.154136"
         id="path76"
         inkscape:connector-curvature="0"
         style="stroke:#6b1d10;stroke-linecap:round"
         sodipodi:nodetypes="cc" />
      <path
         d="m 27.331777,74.589952 c 0,0 8.762068,-5.424378 15.958223,-0.679952"
         id="path78"
         inkscape:connector-curvature="0"
         style="stroke:#6b1d10;stroke-linecap:round"
         sodipodi:nodetypes="cc" />
      <path
         d="M 50.65,106.84 50.32,107 c 0.45,0.41 0.33,-0.16 0.33,-0.16 z"
         id="path80"
         inkscape:connector-curvature="0"
         style="fill:#fff6d1;fill-rule:nonzero" />
      <path
         d="m 47.3,113.49 c -3.24,-3.06 1.65,-5.81 3,-6.49 -0.99592,-1.13139 -1.864468,-2.36882 -2.59,-3.69 -1.71,-2.78 0.104087,-8.330097 0.554087,-11.170097 -8.54315,-1.199656 -22.437027,-6.507778 -31.120242,-7.882358 0,0 6.480146,21.582455 24.360146,30.672455 4.594542,2.21691 9.635465,3.87217 14.626009,4.93 -3.160597,-1.80467 -6.120538,-3.93998 -8.83,-6.37 z"
         id="path82"
         inkscape:connector-curvature="0"
         style="fill:#fff6d1;fill-rule:nonzero"
         sodipodi:nodetypes="cccccccc" />
      <path
         d="M 31.65,65.2 C 25.1,53.2 28.65,38.36 32.51,28.29 14.65,39.27 8.87,59.96 12.97,72.04 16.75,83.16 35.42,90.91 52.7,90.57 45.28,83.72 36.86,74.73 31.65,65.2 Z"
         id="path84"
         inkscape:connector-curvature="0"
         style="opacity:0.36000001;fill:#791615;fill-rule:nonzero" />
    </g>
  </g>
</svg>
