<?xml version="1.0" encoding="UTF-8" standalone="no"?>
<svg
   xmlns:dc="http://purl.org/dc/elements/1.1/"
   xmlns:cc="http://creativecommons.org/ns#"
   xmlns:rdf="http://www.w3.org/1999/02/22-rdf-syntax-ns#"
   xmlns:svg="http://www.w3.org/2000/svg"
   xmlns="http://www.w3.org/2000/svg"
   xmlns:sodipodi="http://sodipodi.sourceforge.net/DTD/sodipodi-0.dtd"
   xmlns:inkscape="http://www.inkscape.org/namespaces/inkscape"
   width="109.13274"
   height="90.443291"
   viewBox="-40 -20 147.47668 117.64981"
   version="1.1"
   id="svg88"
   sodipodi:docname="fox_sleep.svg"
   inkscape:version="0.92.4 (5da689c313, 2019-01-14)">
  <metadata
     id="metadata92">
    <rdf:RDF>
      <cc:Work
         rdf:about="">
        <dc:format>image/svg+xml</dc:format>
        <dc:type
           rdf:resource="http://purl.org/dc/dcmitype/StillImage" />
        <dc:title>Group 10</dc:title>
      </cc:Work>
    </rdf:RDF>
  </metadata>
  <sodipodi:namedview
     pagecolor="#ffffff"
     bordercolor="#666666"
     borderopacity="1"
     objecttolerance="10"
     gridtolerance="10"
     guidetolerance="10"
     inkscape:pageopacity="0"
     inkscape:pageshadow="2"
     inkscape:window-width="1920"
     inkscape:window-height="1017"
     id="namedview90"
     showgrid="false"
     fit-margin-top="0"
     fit-margin-left="0"
     fit-margin-right="0"
     fit-margin-bottom="0"
     inkscape:zoom="6.8943089"
     inkscape:cx="44.397546"
     inkscape:cy="46.03898"
     inkscape:window-x="-8"
     inkscape:window-y="-8"
     inkscape:window-maximized="1"
     inkscape:current-layer="svg88" />
  <!-- Generator: Sketch 51.1 (57501) - http://www.bohemiancoding.com/sketch -->
  <title
     id="title52">Group 10</title>
  <desc
     id="desc54">Created with Sketch.</desc>
  <defs
     id="defs56" />
  <g
     id="Тест"
     style="fill:none;fill-rule:evenodd;stroke:none;stroke-width:1"
     transform="translate(-40.003316,-23.102287)">
    <g
       id="Group-10"
       transform="translate(0,-1)">
      <path
         d="m 29.25,31.92 c 0,0 -11.6,-11.83 -24.5,-11.72 -12.9,0.11 9.45,39.22 9.45,39.22 z"
         id="Shape"
         inkscape:connector-curvature="0"
         style="fill:#cb2027;fill-rule:nonzero" />
      <ellipse
         id="Oval"
         cx="99.059998"
         cy="85.610001"
         rx="48.419998"
         ry="37.240002"
         style="fill:#a11d21;fill-rule:nonzero" />
      <path
         d="M 24.18,39.76 C 19.97,34.04 8.46,24.59 2.98,20.26 -7.61,22.49 13.46,59.37 13.46,59.37 Z"
         id="path60"
         inkscape:connector-curvature="0"
         style="fill:#a11d21;fill-rule:nonzero" />
      <path
         d="m 41.36,85.6 6.36,17.71 44.5,-20 c 0,0 16,-23.2 10.84,-37.14 -5.16,-13.94 -19.81,2.18 -19.81,2.18 z"
         id="path62"
         inkscape:connector-curvature="0"
         style="fill:#575eaa;fill-rule:nonzero" />
      <path
         d="m 58.78,23.46 c 2.559987,-3.599001 4.91699,-7.338155 7.06,-11.2 2.62,-4.86 4.29,-10.53 5.85,-11.24 0.58,-0.26 7.72,1.38 10.94,7.82 3.22,6.44 2.58,32.39 2.58,32.39 z"
         id="path64"
         inkscape:connector-curvature="0"
         style="fill:#cb2027;fill-rule:nonzero" />
      <path
         d="m 71.87,1.04 h -0.22 c -1.56,0.71 -3.23,6.38 -5.85,11.24 -2.14301,3.861845 -4.500013,7.600999 -7.06,11.2 l 10,6.75 c 1,0.34 2.08,0.73 3.22,1.16 9.98,3.74 4.1,-17.73 -0.09,-30.35 z"
         id="path66"
         inkscape:connector-curvature="0"
         style="fill:#a11d21;fill-rule:nonzero" />
      <path
         d="m 95.48,45.51 c 4.83,14.22 -9.55,36.26 -29,42.89 C 47.03,95.03 17.84,86.33 13.01,72.11 8.18,57.89 17.08,31.67 43.33,23.52 66.72,16.24 90.65,31.3 95.48,45.51 Z"
         id="path68"
         inkscape:connector-curvature="0"
         style="fill:#cb2027;fill-rule:nonzero" />
      <path
         d="m 145.52,85.92 c 2,6.46 -0.12,14.5 -7.25,21.53 -5.06352,5.21574 -11.25061,9.20708 -18.09,11.67 -6.33715,2.01914 -12.89432,3.26813 -19.53,3.72 -11.37,0.93 -41.89,0.74 -58.92,-7.91 -17.88,-9.09 -21.45,-21.46 -21.45,-21.46 12.817068,2.004226 25.902273,1.484486 38.52,-1.53 9.26,-2.33 17.84,-12 26.94,-14.81 28.78,-8.87 55.56,-4.93 59.78,8.79 z"
         id="path70"
         inkscape:connector-curvature="0"
         style="fill:#cb2027;fill-rule:nonzero" />
      <path
         d="m 62.73,85.04 c 0,0 -9.4,-19.68 -25.16,-21.84 -7.81,-1.07 -22.12,2.75 -25.48,5.28 0.195026,1.23268 0.492729,2.446906 0.89,3.63 4.83,14.22 34,22.91 53.47,16.29 17.79,-6 31.32,-25 29.87,-39 -7.8,1.1 -13.54,-2 -22.29,1.58 -16.62,6.88 -11.3,34.06 -11.3,34.06 z"
         id="path72"
         inkscape:connector-curvature="0"
         style="fill:#fff6d1;fill-rule:nonzero" />
      <ellipse
         id="ellipse74"
         transform="rotate(-22.27,62.013758,83.344724)"
         cx="62.01376"
         cy="83.344727"
         rx="3.24"
         ry="1.85"
         style="fill:#6b1d10;fill-rule:nonzero" />
      <path
         d="m 71.16,64.78 c 0,0 7.7,-0.4 10.23,-5.41"
         id="path76"
         inkscape:connector-curvature="0"
         style="stroke:#6b1d10;stroke-linecap:round" />
      <path
         d="m 31.84,75.57 c 0,0 7.39,2.22 11.45,-1.66"
         id="path78"
         inkscape:connector-curvature="0"
         style="stroke:#6b1d10;stroke-linecap:round" />
      <path
         d="M 50.65,106.84 50.32,107 c 0.45,0.41 0.33,-0.16 0.33,-0.16 z"
         id="path80"
         inkscape:connector-curvature="0"
         style="fill:#fff6d1;fill-rule:nonzero" />
      <path
         d="m 47.3,113.49 c -3.24,-3.06 1.65,-5.81 3,-6.49 -0.99592,-1.13139 -1.864468,-2.36882 -2.59,-3.69 -1.71,-2.78 -1.66,-6.37 -1.21,-9.21 -8.73916,0.95645 -17.566785,0.744588 -26.25,-0.63 0,0 3.57,12.37 21.45,21.46 4.594543,2.21691 9.439456,3.87217 14.43,4.93 -3.160597,-1.80466 -6.120538,-3.93998 -8.83,-6.37 z"
         id="path82"
         inkscape:connector-curvature="0"
         style="fill:#fff6d1;fill-rule:nonzero" />
      <path
         d="M 31.65,65.2 C 25.1,53.2 28.65,38.36 32.51,28.29 14.65,39.27 8.87,59.96 12.97,72.04 16.75,83.16 35.42,90.91 52.7,90.57 45.28,83.72 36.86,74.73 31.65,65.2 Z"
         id="path84"
         inkscape:connector-curvature="0"
         style="opacity:0.36000001;fill:#791615;fill-rule:nonzero" />
    </g>
  </g>
</svg>
