<?xml version="1.0" encoding="UTF-8" standalone="no"?>
<svg
   xmlns:dc="http://purl.org/dc/elements/1.1/"
   xmlns:cc="http://creativecommons.org/ns#"
   xmlns:rdf="http://www.w3.org/1999/02/22-rdf-syntax-ns#"
   xmlns:svg="http://www.w3.org/2000/svg"
   xmlns="http://www.w3.org/2000/svg"
   xmlns:sodipodi="http://sodipodi.sourceforge.net/DTD/sodipodi-0.dtd"
   xmlns:inkscape="http://www.inkscape.org/namespaces/inkscape"
   width="120px"
   height="151px"
   viewBox="0 0 120 151"
   version="1.1"
   id="svg76"
   sodipodi:docname="fox_speak3.svg"
   inkscape:version="0.92.4 (5da689c313, 2019-01-14)">
  <metadata
     id="metadata80">
    <rdf:RDF>
      <cc:Work
         rdf:about="">
        <dc:format>image/svg+xml</dc:format>
        <dc:type
           rdf:resource="http://purl.org/dc/dcmitype/StillImage" />
        <dc:title>Group 12</dc:title>
      </cc:Work>
    </rdf:RDF>
  </metadata>
  <sodipodi:namedview
     pagecolor="#ffffff"
     bordercolor="#666666"
     borderopacity="1"
     objecttolerance="10"
     gridtolerance="10"
     guidetolerance="10"
     inkscape:pageopacity="0"
     inkscape:pageshadow="2"
     inkscape:window-width="1876"
     inkscape:window-height="907"
     id="namedview78"
     showgrid="false"
     inkscape:zoom="5.615894"
     inkscape:cx="60"
     inkscape:cy="68.377358"
     inkscape:window-x="22"
     inkscape:window-y="53"
     inkscape:window-maximized="0"
     inkscape:current-layer="svg76" />
  <!-- Generator: Sketch 51.1 (57501) - http://www.bohemiancoding.com/sketch -->
  <title
     id="title46">Group 12</title>
  <desc
     id="desc48">Created with Sketch.</desc>
  <defs
     id="defs50" />
  <g
     id="Тест"
     stroke="none"
     stroke-width="1"
     fill="none"
     fill-rule="evenodd">
    <g
       id="Group-12"
       fill-rule="nonzero">
      <path
         d="M66.9,111.41 C66.9,104.1 53.96,71.48 53.96,71.48 L36.44,58.77 L18.91,71.48 C18.91,71.48 5.97,104.1 5.97,111.41 C5.97,118.72 4.97,132.84 5.97,136.48 C6.97,140.12 11.52,147.19 16.81,149.2 C22.1,151.21 36.44,150.2 36.44,150.2 C36.44,150.2 50.77,151.2 56.06,149.2 C61.35,147.2 65.89,140.13 66.9,136.48 C67.91,132.83 66.9,118.71 66.9,111.41 Z"
         id="Shape"
         fill="#CB2027" />
      <path
         d="M17.39,65.15 C17.39,65.15 10.81,74.08 12.56,76.48 C14.31,78.88 30.64,82.58 30.64,82.58 C30.64,82.58 53.09,83.45 57.58,79.58 C63.58,74.4 53.93,66.09 53.93,66.09 L17.39,65.15 Z"
         id="path53"
         fill="#575EAA" />
      <path
         d="M71.12,27.03 C72.96,22.03 77.91,7.03 72.62,1.28 C68.01,-3.72 57.29,7.1 51.7,13.5 C46.8175897,11.9611883 41.7291642,11.1755003 36.61,11.17 C32.2894831,11.1017288 27.9807727,11.6403176 23.81,12.77 C18.07,6.32 7.98,-3.53 3.54,1.28 C-1.66,6.91 3.03,21.54 4.94,26.77 C1.57373211,32.4608223 -0.133914147,38.9796666 0.01,45.59 C0.14,52.16 6.28,56.95 12.01,62.66 C19.36,70 27.67,77.46 39.25,77.23 C49.54,77.03 57.02,70.11 63.81,63.3 C70.6,56.49 76.69,49.77 76.54,42.3 C76.3392786,36.7751427 74.4473966,31.4450617 71.12,27.03 Z"
         id="path55"
         fill="#CB2027" />
      <path
         d="M58.37,40.09 C41.32,40.77 38.3,65.27 38.3,65.27 C38.3,65.27 35.3,40.76 18.24,40.09 C8.78,39.72 3.17,42.02 0.05,44.09 C0.05,44.65 0.05,45.21 0.05,45.76 C0.18,52.33 6.33,57.11 12.05,62.82 C19.4,70.17 27.71,77.63 39.29,77.4 C49.57,77.19 57.06,70.28 63.85,63.46 C70.14,57.14 75.85,50.91 76.51,44.05 C73.37,41.99 67.81,39.77 58.37,40.09 Z"
         id="path57"
         fill="#FFF6D1" />
      <ellipse
         id="Oval"
         fill="#6B1D10"
         cx="38.27"
         cy="63.75"
         rx="3.24"
         ry="1.85" />
      <path
         d="m 65.7,139.38 c 0,0 2.91,0.38 6.38,-2.9 3.47,-3.28 4.44,-5.11 2.62,-17.74 -1.2,-8.42 1.556132,-16.03774 3.296132,-20.657736 0.910852,-2.419763 3.196319,-6.408824 4.634198,-9.16099 3.696132,-11.13684 1.478962,-2.969623 4.009246,-14.282594 1.260572,-8.92552 -2.742125,-17.740756 -1.102125,-16.310756 1.64,1.43 18.020849,6.377123 22.660239,27.309812 2.06839,16.694904 1.1935,20.313494 1.09552,23.417354 C 109.18354,112.52929 105.52,143.35 90.6,148.42 c -14.92,5.07 -23.54,1.52 -30.34,-1.91 -6.8,-3.43 5.44,-7.13 5.44,-7.13 z"
         id="path60"
         inkscape:connector-curvature="0"
         style="fill:#cb2027"
         sodipodi:nodetypes="csccccscsssc" />
      <path
         d="m 85.195142,80.477359 c -0.936149,2.546448 -1.618705,3.999145 -2.386746,6.663255 l 8.52033,6.575518 1.09,5.65 c 0.2543,1.336228 1.029858,2.516348 2.155528,3.279918 1.12566,0.76358 2.50891,1.04785 3.84447,0.79008 L 109.77231,101.72 c 0.0757,-10.370464 1.09069,-8.813304 -4.07743,-25.587264 -8.02264,-13.810047 -18.715376,-17.688774 -21.245706,-18.40651 -2.093307,-0.593773 2.016435,3.001086 2.012336,13.885331 z"
         id="path62"
         inkscape:connector-curvature="0"
         style="fill:#fff6d1"
         sodipodi:nodetypes="ccccscccscc" />
      <path
         d="M49.64,108.45 C49.64,108.45 47.94,130.78 48.64,136.45 C49.34,142.12 52,143.8 51.31,147 C50.62,150.2 45.67,150.43 45.67,150.43 L40.92,150.38 L39.92,108.38 L42.59,112.38 L44.04,107.19 L46.71,110.83 L49.64,108.45 Z"
         id="path64"
         fill="#543010" />
      <ellipse
         id="ellipse66"
         fill="#121111"
         cx="18.01"
         cy="50.08"
         rx="1.9"
         ry="2.71" />
      <ellipse
         id="ellipse68"
         fill="#121111"
         cx="54.55"
         cy="50.08"
         rx="1.9"
         ry="2.71" />
      <path
         d="M24.75,108.45 C24.75,108.45 26.45,130.78 25.75,136.45 C25.05,142.12 22.4,143.8 23.08,147 C23.76,150.2 28.73,150.43 28.73,150.43 L33.47,150.38 L34.47,108.38 L31.81,112.38 L30.35,107.19 L27.68,110.83 L24.75,108.45 Z"
         id="path70"
         fill="#543010" />
      <path
         d="M41.81,74.25 C41.81,75.41 40.15,76.01 38.31,76.01 C36.47,76.01 34.09,75.07 34.09,73.91 C34.09,72.75 36.32,73.47 38.17,73.47 C40.02,73.47 41.81,73.09 41.81,74.25 Z"
         id="path72"
         fill="#231F20" />
    </g>
  </g>
</svg>
