<?xml version="1.0" encoding="UTF-8"?>
<svg width="120px" height="151px" viewBox="0 0 120 151" version="1.1" xmlns="http://www.w3.org/2000/svg" xmlns:xlink="http://www.w3.org/1999/xlink">
    <!-- Generator: Sketch 51.1 (57501) - http://www.bohemiancoding.com/sketch -->
    <title>Group 12</title>
    <desc>Created with Sketch.</desc>
    <defs></defs>
    <g id="Тест" stroke="none" stroke-width="1" fill="none" fill-rule="evenodd">
        <g id="Group-12" fill-rule="nonzero">
            <path d="M66.9,111.41 C66.9,104.1 53.96,71.48 53.96,71.48 L36.44,58.77 L18.91,71.48 C18.91,71.48 5.97,104.1 5.97,111.41 C5.97,118.72 4.97,132.84 5.97,136.48 C6.97,140.12 11.52,147.19 16.81,149.2 C22.1,151.21 36.44,150.2 36.44,150.2 C36.44,150.2 50.77,151.2 56.06,149.2 C61.35,147.2 65.89,140.13 66.9,136.48 C67.91,132.83 66.9,118.71 66.9,111.41 Z" id="Shape" fill="#CB2027"></path>
            <path d="M17.39,65.15 C17.39,65.15 10.81,74.08 12.56,76.48 C14.31,78.88 30.64,82.58 30.64,82.58 C30.64,82.58 53.09,83.45 57.58,79.58 C63.58,74.4 53.93,66.09 53.93,66.09 L17.39,65.15 Z" id="Shape" fill="#575EAA"></path>
            <path d="M71.12,27.03 C72.96,22.03 77.91,7.03 72.62,1.28 C68.01,-3.72 57.29,7.1 51.7,13.5 C46.8175897,11.9611883 41.7291642,11.1755003 36.61,11.17 C32.2894831,11.1017288 27.9807727,11.6403176 23.81,12.77 C18.07,6.32 7.98,-3.53 3.54,1.28 C-1.66,6.91 3.03,21.54 4.94,26.77 C1.57373211,32.4608223 -0.133914147,38.9796666 0.01,45.59 C0.14,52.16 6.28,56.95 12.01,62.66 C19.36,70 27.67,77.46 39.25,77.23 C49.54,77.03 57.02,70.11 63.81,63.3 C70.6,56.49 76.69,49.77 76.54,42.3 C76.3392786,36.7751427 74.4473966,31.4450617 71.12,27.03 Z" id="Shape" fill="#CB2027"></path>
            <path d="M58.37,40.09 C41.32,40.77 38.3,65.27 38.3,65.27 C38.3,65.27 35.3,40.76 18.24,40.09 C8.78,39.72 3.17,42.02 0.05,44.09 C0.05,44.65 0.05,45.21 0.05,45.76 C0.18,52.33 6.33,57.11 12.05,62.82 C19.4,70.17 27.71,77.63 39.29,77.4 C49.57,77.19 57.06,70.28 63.85,63.46 C70.14,57.14 75.85,50.91 76.51,44.05 C73.37,41.99 67.81,39.77 58.37,40.09 Z" id="Shape" fill="#FFF6D1"></path>
            <ellipse id="Oval" fill="#6B1D10" cx="38.27" cy="63.75" rx="3.24" ry="1.85"></ellipse>
            <path d="M65.7,139.38 C65.7,139.38 68.61,139.76 72.08,136.48 C75.55,133.2 76.52,131.37 74.7,118.74 C73.5,110.32 75.9,101.99 77.64,97.37 C78.5508518,94.9502366 79.9459895,92.7418357 81.74,90.88 C85.08,87.4 91.41,81.5 98.57,78.2 C109.09,73.37 117.73,73.28 119.37,74.71 C121.01,76.14 113.53,78.06 114.43,86.35 C115.43,95.21 112.43,113.95 111.43,116.89 C110.43,119.83 105.52,143.35 90.6,148.42 C75.68,153.49 67.06,149.94 60.26,146.51 C53.46,143.08 65.7,139.38 65.7,139.38 Z" id="Shape" fill="#CB2027"></path>
            <path d="M98.58,78.2 C96.5754546,79.1438547 94.6464375,80.240419 92.81,81.48 L100.44,83.96 L101.53,89.61 C101.784302,90.9462282 102.559861,92.1263452 103.685528,92.8899223 C104.811194,93.6534994 106.194436,93.9377696 107.53,93.68 L114.61,92.32 C114.68574,90.3186402 114.632296,88.3144788 114.45,86.32 C113.55,78.03 121.02,76.11 119.38,74.68 C117.74,73.25 109.09,73.37 98.58,78.2 Z" id="Shape" fill="#FFF6D1"></path>
            <path d="M49.64,108.45 C49.64,108.45 47.94,130.78 48.64,136.45 C49.34,142.12 52,143.8 51.31,147 C50.62,150.2 45.67,150.43 45.67,150.43 L40.92,150.38 L39.92,108.38 L42.59,112.38 L44.04,107.19 L46.71,110.83 L49.64,108.45 Z" id="Shape" fill="#543010"></path>
            <ellipse id="Oval" fill="#121111" cx="18.01" cy="50.08" rx="1.9" ry="2.71"></ellipse>
            <ellipse id="Oval" fill="#121111" cx="54.55" cy="50.08" rx="1.9" ry="2.71"></ellipse>
            <path d="M24.75,108.45 C24.75,108.45 26.45,130.78 25.75,136.45 C25.05,142.12 22.4,143.8 23.08,147 C23.76,150.2 28.73,150.43 28.73,150.43 L33.47,150.38 L34.47,108.38 L31.81,112.38 L30.35,107.19 L27.68,110.83 L24.75,108.45 Z" id="Shape" fill="#543010"></path>
            <path d="M41.81,74.25 C41.81,75.41 40.15,76.01 38.31,76.01 C36.47,76.01 34.09,75.07 34.09,73.91 C34.09,72.75 36.32,73.47 38.17,73.47 C40.02,73.47 41.81,73.09 41.81,74.25 Z" id="Shape" fill="#231F20"></path>
        </g>
    </g>
</svg>