<?xml version="1.0" encoding="UTF-8" standalone="no"?>
<!-- Created with Inkscape (http://www.inkscape.org/) -->

<svg
   xmlns:dc="http://purl.org/dc/elements/1.1/"
   xmlns:cc="http://creativecommons.org/ns#"
   xmlns:rdf="http://www.w3.org/1999/02/22-rdf-syntax-ns#"
   xmlns:svg="http://www.w3.org/2000/svg"
   xmlns="http://www.w3.org/2000/svg"
   xmlns:sodipodi="http://sodipodi.sourceforge.net/DTD/sodipodi-0.dtd"
   xmlns:inkscape="http://www.inkscape.org/namespaces/inkscape"
   width="135.92032mm"
   height="109.87767mm"
   viewBox="0 0 135.92032 109.87767"
   version="1.1"
   id="svg167"
   inkscape:version="0.92.4 (5da689c313, 2019-01-14)"
   sodipodi:docname="hint1.svg">
  <defs
     id="defs161" />
  <sodipodi:namedview
     id="base"
     pagecolor="#ffffff"
     bordercolor="#666666"
     borderopacity="1.0"
     inkscape:pageopacity="0.0"
     inkscape:pageshadow="2"
     inkscape:zoom="0.35"
     inkscape:cx="179.42859"
     inkscape:cy="252.42855"
     inkscape:document-units="mm"
     inkscape:current-layer="layer1"
     showgrid="false"
     fit-margin-top="0"
     fit-margin-left="0"
     fit-margin-right="0"
     fit-margin-bottom="0"
     inkscape:window-width="1920"
     inkscape:window-height="1017"
     inkscape:window-x="-8"
     inkscape:window-y="-8"
     inkscape:window-maximized="1" />
  <metadata
     id="metadata164">
    <rdf:RDF>
      <cc:Work
         rdf:about="">
        <dc:format>image/svg+xml</dc:format>
        <dc:type
           rdf:resource="http://purl.org/dc/dcmitype/StillImage" />
        <dc:title />
      </cc:Work>
    </rdf:RDF>
  </metadata>
  <g
     inkscape:label="Layer 1"
     inkscape:groupmode="layer"
     id="layer1"
     transform="translate(-29.179759,-70.837946)">
    <path
       style="fill:#000000;fill-rule:nonzero;stroke:none;stroke-width:2.75475597"
       d="m 162.46815,158.77319 h -10.33438 c 8.39822,-14.35739 10.04478,-39.16677 -1.67962,-59.626797 -10.45029,-18.255261 -29.39812,-28.308447 -53.310441,-28.308447 -23.91231,0 -42.86838,10.053186 -53.31032,28.308447 -11.69968,20.460027 -10.04489,45.149017 -1.68797,59.626797 h -10.33439 c -1.45626,0 -2.63127,1.07606 -2.63127,2.39291 v 17.16414 c 0,1.31685 1.17501,2.38538 2.63127,2.38538 h 35.67814 c 1.44792,0 2.63117,-1.06853 2.63117,-2.38538 0.0214,-0.16551 0.0214,-0.32362 0,-0.48163 v -16.75776 c 0,-0.44395 -0.1402,-0.88041 -0.39706,-1.25665 -7.8935,-11.61083 -10.26,-35.20872 -0.89364,-50.51423 5.9491,-9.624267 15.39818,-14.553039 28.31418,-14.553039 12.916001,0 22.356731,4.928772 28.380331,14.620759 9.3747,15.29046 7.14059,38.91093 -0.75238,50.5067 -0.26435,0.38379 -0.39705,0.82774 -0.39705,1.27171 v 17.16414 c 0,1.31685 1.1749,2.38538 2.63116,2.38538 h 35.46302 c 1.45627,0 2.63117,-1.06853 2.63117,-2.38538 V 161.1661 c 0,-1.31685 -1.1749,-2.39291 -2.63117,-2.39291 z m -2.62292,17.15663 H 129.47908 V 161.8358 c 8.57203,-13.15341 10.86404,-38.023 0.6293,-54.76576 -6.78485,-11.106661 -18.20316,-17.088902 -32.964241,-17.088902 -14.76932,0 -26.17939,5.982241 -32.88975,17.088902 -10.23517,16.74276 -7.8935,41.61235 0.6293,54.76576 v 14.09402 h -30.44063 v -12.3633 h 12.39468 c 1.44792,-0.0152 2.62282,-1.07606 2.62282,-2.40795 0,-0.48163 -0.16588,-0.95566 -0.47197,-1.35447 -9.36636,-12.18272 -12.2044,-37.97033 -0.5212,-58.45294 6.76002,-11.731219 20.66052,-25.727411 48.67686,-25.727411 28.016341,0 41.908601,13.996192 48.668621,25.727411 11.73275,20.48261 8.8947,46.27022 -0.46341,58.42284 -0.82729,1.0911 -0.53726,2.58102 0.66247,3.33351 0.4388,0.27844 0.96,0.42886 1.48934,0.42886 h 12.39468 z"
       id="path340"
       inkscape:connector-curvature="0" />
    <path
       style="fill:#0000ff;stroke-width:2.85714293"
       d="M 3.5508011,409.46131 C 2.7533748,407.38325 2.463944,389.68291 2.9076214,370.12722 l 0.8066863,-35.5558 23.3620083,-0.82646 23.362012,-0.82645 -6.798789,-14.88783 C 10.119096,244.62835 23.741963,144.98887 76.200913,79.872421 115.40113,31.213818 171.4176,5.5681165 245.14288,2.5266762 370.35685,-2.6388635 460.29956,64.808935 483.86965,181.54725 c 8.56117,42.40192 2.7798,102.44116 -13.01171,135.1258 -3.14329,6.50586 -5.71506,12.87306 -5.71506,14.14931 0,1.27626 9.59763,2.32049 21.32806,2.32049 18.16225,0 21.76705,0.82031 24.28571,5.52646 3.46409,6.47271 3.94066,65.64414 0.57143,70.95225 -1.77874,2.80238 -18.73392,3.44866 -74.95623,2.85715 l -72.65754,-0.76443 -0.80797,-35.71429 c -0.78332,-34.62283 -0.54055,-36.29457 7.94402,-54.70211 30.93035,-67.10451 18.79098,-160.46164 -26.11505,-200.83601 -26.24757,-23.59884 -52.93946,-31.602298 -98.61953,-29.570692 -26.76186,1.190229 -31.299,2.249872 -50.70991,11.843262 -46.32576,22.89544 -69.00392,67.87813 -68.62667,136.1227 0.20368,36.84465 5.07949,59.39845 18.655,86.29137 8.17728,16.19914 8.42824,17.89303 7.65303,51.65705 l -0.80149,34.90872 -73.642538,0.76266 c -58.969064,0.61071 -73.9314243,0.009 -75.0924009,-3.01563 z M 136.57145,372.03505 c 0,-23.74426 -0.9725,-28.90797 -8.47504,-45 -14.02315,-30.07794 -18.41864,-51.46195 -18.41864,-89.60649 0,-38.86082 4.51349,-60.08881 19.05753,-89.63194 27.8516,-56.57463 94.03513,-85.043022 163.50061,-70.32865 56.91005,12.054854 95.61128,53.19051 108.92371,115.7754 9.30457,43.74307 0.41229,110.85768 -18.82894,142.11139 -4.71314,7.6556 -5.75923,14.28289 -5.75923,36.48655 v 27.13177 l 59.28571,-0.77226 59.28572,-0.77226 0.82983,-23.57142 0.82983,-23.57143 h -24.16758 c -25.18091,0 -33.20637,-1.52243 -33.20637,-6.29926 0,-1.55691 5.16623,-13.31223 11.48052,-26.12289 C 490.11951,238.31181 470.63034,130.86719 406.01662,70.369567 360.12856,27.40474 290.50202,8.7931219 217.37072,19.943329 166.08277,27.763115 125.70042,48.330438 95.345268,82.092672 40.206451,143.42031 26.611533,245.9167 63.751819,320.28571 c 5.49346,11 9.982343,21.4696 9.9753,23.26574 -0.02027,5.16634 -7.395031,6.73426 -31.67506,6.73426 H 19.428593 v 24.28571 24.28572 h 58.571429 58.571428 z"
       id="path175"
       inkscape:connector-curvature="0"
       transform="matrix(0.26458333,0,0,0.26458333,29.179759,70.837946)" />
    <path
       style="fill:#1a1a1a;stroke-width:2.85714293"
       d="m 5.1428757,373.55525 v -36.73046 l 21.7053683,-1.64157 c 11.937952,-0.90289 22.240317,-2.17654 22.894146,-2.83037 0.653829,-0.65383 -2.09894,-8.62289 -6.117263,-17.70903 C 32.692416,289.92302 27.655778,264.01401 27.546026,231.93118 27.429487,197.86446 31.220476,174.89001 41.97147,144.50896 53.542221,111.81137 66.462836,91.831896 93.714304,64.49767 133.93542,24.154416 174.8419,7.9591941 243.13327,5.3414344 325.4063,2.1877264 380.27816,21.866575 427.33073,71.400699 c 23.55075,24.792788 43.06337,61.177851 52.12615,97.199181 10.53154,41.85925 6.35202,112.14328 -8.63192,145.15734 -8.31466,18.3196 -7.77323,19.38563 9.8462,19.38563 26.34443,0 29.12094,2.19211 30.90349,24.39905 0.84488,10.52563 0.85054,26.69892 0.0114,35.94066 l -1.52258,16.80314 h -72.46031 -72.46031 v -36.78734 c 0,-32.51754 0.78808,-38.5696 6.78994,-52.14286 12.32408,-27.87105 17.00191,-56.65807 15.21177,-93.61238 -0.88377,-18.24444 -3.49931,-39.06795 -5.81231,-46.27448 -12.42235,-38.70411 -35.9644,-67.55306 -66.99492,-82.097061 -15.36546,-7.201775 -18.80191,-7.657303 -57.76591,-7.657303 -41.38569,0 -41.44743,0.0098 -59.64714,9.509284 -45.58461,23.79316 -66.27247,59.49229 -70.65298,121.91929 -2.38325,33.96391 2.59479,65.69511 14.8101,94.40325 9.3412,21.95349 9.77573,24.5252 9.77573,57.85715 V 410.2857 H 78.000019 5.1428757 Z M 136.57145,371.74773 c 0,-24.3292 -0.99947,-29.5302 -9.74572,-50.71428 -12.13763,-29.39829 -15.9824,-49.88994 -15.91896,-84.84391 0.0938,-51.66558 14.22409,-91.31941 42.80753,-120.13062 27.53234,-27.751721 59.13289,-40.05893 102.85715,-40.05893 72.19465,0 123.49283,39.87465 141.3668,109.886 10.10745,39.59033 3.18214,110.05049 -14.18509,144.32303 -6.17754,12.1908 -7.18171,17.98091 -7.18171,41.41028 v 27.23783 h 60 60 V 374.57142 350.2857 l -16.42857,-0.0314 c -22.83763,-0.0437 -37.85715,-2.90775 -37.85715,-7.21892 0,-2.00503 3.97109,-12.44394 8.82466,-23.19757 14.04866,-31.12637 19.75249,-57.80145 19.70454,-92.15195 C 470.67473,127.2304 412.11636,47.940759 319.42859,22.70446 291.16219,15.008309 222.932,15.72617 192.28573,24.042152 154.45788,34.306884 129.69263,48.369999 103.5101,74.453999 76.825939,101.03775 66.132433,118.47895 53.620644,155.82414 35.97841,208.48269 38.986596,266.07975 62.10403,318.25356 c 6.065437,13.68912 9.995857,25.9882 8.734266,27.33134 -1.261589,1.34312 -13.344877,3.13149 -26.851752,3.97415 l -24.557954,1.53211 v 23.883 23.88297 h 58.571429 58.571431 z"
       id="path24"
       inkscape:connector-curvature="0"
       transform="matrix(0.26458333,0,0,0.26458333,29.179759,70.837946)" />
    <path
       style="fill:#ffff00;stroke-width:2.85714293"
       d="m 22.285733,374.57142 v -21.42857 h 21.616404 c 33.540747,0 39.664179,-6.6682 25.637573,-27.9184 -9.037003,-13.691 -15.205323,-31.10011 -20.313951,-57.33294 -7.608703,-39.07073 -3.8517,-80.36203 11.023448,-121.15309 C 81.998499,87.09687 129.604,44.097571 192.89511,26.927029 c 31.86938,-8.645992 95.55375,-8.625834 127.51048,0.04036 59.16717,16.045259 100.95563,50.471082 126.17426,103.943791 13.98528,29.65396 18.83763,50.46182 20.50874,87.94595 1.84497,41.38338 -3.16597,67.09099 -19.34091,99.22483 -6.50889,12.93083 -11.08375,25.46654 -10.16638,27.85714 1.33158,3.47003 7.15998,4.3466 28.90049,4.3466 h 27.23251 v 22.85715 22.85714 H 436.57145 379.42859 V 371.6193 c 0,-20.07985 1.21111,-26.77071 6.86554,-37.92922 15.69792,-30.97832 20.27777,-53.14277 20.18577,-97.69009 -0.0778,-37.67625 -0.79411,-43.45427 -7.9086,-63.79381 -9.63297,-27.53955 -22.4244,-47.81037 -41.15985,-65.2268 C 330.02262,81.518807 301.53566,71.811319 255.14288,72.129364 206.88591,72.460193 174.2507,85.817499 146.62379,116.54527 c -27.17126,30.22098 -39.87955,68.8848 -39.73276,120.88329 0.10926,38.70227 5.28527,64.15666 18.53907,91.17063 7.24278,14.76229 8.2842,20.06014 8.2842,42.14286 v 25.25794 H 78.000019 22.285733 Z"
       id="path26"
       inkscape:connector-curvature="0"
       transform="matrix(0.26458333,0,0,0.26458333,29.179759,70.837946)" />
    <path
       style="fill:#0000ff;stroke-width:2.85714293"
       d="m 5.1428757,374.8771 c 0,-40.09902 -0.7651286,-38.84805 23.8051053,-38.92085 22.701589,-0.0672 23.184852,-1.08137 13.35308,-28.02109 C 24.544301,259.28048 24.372324,201.21816 41.831084,149.26346 52.017233,118.951 64.349256,98.110047 86.375913,73.983324 131.10265,24.992249 176.11507,7.4285616 256.94324,7.4285616 c 42.81549,0 73.53949,4.7115484 98.19964,15.0589884 68.90865,28.9142 118.61814,97.19617 127.27448,174.82684 3.80483,34.1221 -0.61217,80.82469 -10.29951,108.9004 -3.83623,11.11814 -6.97497,21.53937 -6.97497,23.15829 0,1.61888 8.5874,3.74537 19.08314,4.72545 10.49571,0.98012 20.4008,3.09969 22.01128,4.71017 3.42269,3.42269 6.13675,53.61566 3.47303,64.22875 l -1.81917,7.24825 h -71.78471 -71.78472 l 1.49109,-36.42857 c 1.29354,-31.60337 2.71391,-39.8346 10.7232,-62.14285 16.51528,-46 15.14528,-113.78212 -3.07123,-151.95137 -11.38563,-23.85647 -34.95889,-48.97245 -55.94431,-59.60552 -16.32735,-8.272877 -17.55623,-8.443114 -60.94903,-8.443114 h -44.28572 l -17.78058,9.642984 c -48.86994,26.50374 -71.42437,74.50476 -68.6351,146.0713 1.1229,28.81096 2.59449,36.55148 11.95008,62.85714 9.416,26.47555 10.85386,34.11189 12.23899,65 l 1.56952,35 H 78.385756 5.1428757 Z M 136.57145,371.85602 c 0,-23.69966 -1.22462,-30.38414 -10.01558,-54.66957 -20.45347,-56.50359 -18.79174,-121.22311 4.28345,-166.82866 23.97207,-47.37813 66.07306,-71.831954 124.30356,-72.20014 68.96982,-0.436086 115.52397,31.8833 137.78262,95.65313 13.12826,37.61172 8.98078,113.21483 -8.25365,150.4533 -4.94152,10.67711 -6.1474,18.96645 -6.38226,43.87168 l -0.28957,30.70717 59.28571,0.006 59.28572,0.006 -0.0314,-13.57143 c -0.0171,-7.46428 -0.81289,-18.29748 -1.768,-24.07374 l -1.73657,-10.50234 -21.8034,-1.9802 c -11.99189,-1.08912 -23.31423,-2.79166 -25.16075,-3.7834 -2.37405,-1.27509 -0.461,-8.7854 6.53229,-25.64449 15.75326,-37.97441 18.99351,-56.36401 17.44669,-99.01306 -1.56312,-43.09795 -5.9798,-61.83036 -22.56726,-95.71428 -22.3354,-45.625424 -71.0162,-85.698224 -123.76872,-101.88325 -13.81774,-4.239429 -26.28691,-5.229087 -64.28571,-5.102254 -54.72723,0.18267 -71.29639,3.505679 -108.57143,21.77442 -19.50912,9.561551 -29.07239,16.723566 -48.62273,36.413977 -26.469946,26.659607 -37.605914,44.790667 -50.151451,81.654247 -6.453609,18.96316 -7.987415,29.18486 -9.003232,60 -1.077783,32.69486 -0.396877,40.22224 5.685869,62.85714 3.800654,14.14286 10.307545,34.373 14.45976,44.95589 l 7.54948,19.24163 -6.387417,1.32651 c -3.51308,0.7296 -15.065992,2.13749 -25.673135,3.12866 L 19.42862,350.7411 v 24.05829 24.05831 h 58.571429 58.571431 z"
       id="path28"
       inkscape:connector-curvature="0"
       transform="matrix(0.26458333,0,0,0.26458333,29.179759,70.837946)" />
    <path
       style="fill:#ffffff;stroke-width:2.85714293"
       d="m 22.285733,374.57142 v -21.42857 h 21.616404 c 23.74023,0 32.66931,-3.08892 32.66931,-11.30157 0,-2.96243 -4.386268,-14.16718 -9.747266,-24.89946 C 54.117744,291.50454 47.729516,261.66979 47.713936,227.69184 47.674239,141.10814 88.388561,73.648473 160.85716,40.224537 c 31.09936,-14.343632 46.44159,-17.08169 95.71429,-17.08169 51.86231,0 65.20908,2.666705 102.38383,20.456455 45.64211,21.841754 78.31782,60.044398 96.89682,113.286458 5.90832,16.93146 7.41563,27.61171 8.57435,60.75368 1.6456,47.06775 -0.59763,60.22451 -16.69035,97.89058 -6.32357,14.80071 -10.83882,28.62654 -10.03394,30.72408 1.04166,2.71449 9.11883,4.05098 28.02352,4.63695 l 26.56005,0.82323 0.83446,22.14285 0.83449,22.14286 H 436.2687 378.58276 l 1.65926,-25 c 1.2644,-19.05057 3.65411,-29.41957 10.04177,-43.57143 13.63566,-30.20977 16.29911,-45.74158 16.16846,-94.28571 -0.11143,-41.41454 -0.62817,-45.57757 -7.97,-64.21148 C 388.22868,142.90736 377.42339,126.45241 358.84948,108.57621 333.68782,84.359724 313.20039,75.408967 274.11806,71.557893 224.15184,66.63435 178.84608,82.010696 148.98255,114.0277 c -31.10225,33.34504 -42.0768,65.46905 -42.15754,123.40086 -0.0568,40.72978 2.99912,57.34371 16.2914,88.57143 6.50951,15.29286 8.85174,25.88391 9.95182,45 l 1.43868,25 H 78.396321 22.285733 Z"
       id="path30"
       inkscape:connector-curvature="0"
       transform="matrix(0.26458333,0,0,0.26458333,29.179759,70.837946)" />
  </g>
</svg>
