<?xml version="1.0" encoding="UTF-8" standalone="no"?>
<svg
   xmlns:dc="http://purl.org/dc/elements/1.1/"
   xmlns:cc="http://creativecommons.org/ns#"
   xmlns:rdf="http://www.w3.org/1999/02/22-rdf-syntax-ns#"
   xmlns:svg="http://www.w3.org/2000/svg"
   xmlns="http://www.w3.org/2000/svg"
   xmlns:sodipodi="http://sodipodi.sourceforge.net/DTD/sodipodi-0.dtd"
   xmlns:inkscape="http://www.inkscape.org/namespaces/inkscape"
   version="1.1"
   x="0px"
   y="0px"
   viewBox="0 0 88 88.000031"
   id="svg158"
   sodipodi:docname="Keyhole.svg"
   width="88"
   height="88.000031"
   inkscape:version="0.92.3 (2405546, 2018-03-11)">
  <metadata
     id="metadata164">
    <rdf:RDF>
      <cc:Work
         rdf:about="">
        <dc:format>image/svg+xml</dc:format>
        <dc:type
           rdf:resource="http://purl.org/dc/dcmitype/StillImage" />
        <dc:title></dc:title>
      </cc:Work>
    </rdf:RDF>
  </metadata>
  <defs
     id="defs162" />
  <sodipodi:namedview
     pagecolor="#ffffff"
     bordercolor="#666666"
     borderopacity="1"
     objecttolerance="10"
     gridtolerance="10"
     guidetolerance="10"
     inkscape:pageopacity="0"
     inkscape:pageshadow="2"
     inkscape:window-width="640"
     inkscape:window-height="480"
     id="namedview160"
     showgrid="false"
     fit-margin-top="0"
     fit-margin-left="0"
     fit-margin-right="0"
     fit-margin-bottom="0"
     inkscape:zoom="1.888"
     inkscape:cx="44"
     inkscape:cy="31.50002"
     inkscape:window-x="221"
     inkscape:window-y="41"
     inkscape:window-maximized="0"
     inkscape:current-layer="svg158" />
  <g
     transform="translate(-6,-958.36217)"
     id="g152">
    <path
       style="color:#000000;text-indent:0;text-transform:none;direction:ltr;baseline-shift:baseline;display:inline;overflow:visible;visibility:visible;fill:#000000;fill-opacity:1;stroke:none;enable-background:accumulate"
       d="m 50,958.36217 c -24.153811,0 -44,19.53386 -44,44.00003 0,24.4661 19.846189,44 44,44 24.153811,0 44,-19.5339 44,-44 0,-24.46617 -19.846189,-44.00003 -44,-44.00003 z m 0,4.23796 c 22.403438,0 40.299359,17.96766 40.299359,39.76207 0,21.7944 -17.895921,39.762 -40.299359,39.762 -22.403438,0 -40.2993585,-17.9676 -40.2993585,-39.762 0,-21.79441 17.8959205,-39.76207 40.2993585,-39.76207 z m 0,15.83003 c -8.290022,0 -15.053457,6.72033 -15.053457,14.95751 0,4.99936 2.815437,9.00963 6.523165,11.62323 l -8.342124,18.4476 a 2.0073285,1.9945339 0 0 0 1.818959,2.8357 h 30.106914 a 2.0073285,1.9945339 0 0 0 1.818959,-2.8357 l -8.342124,-18.4476 c 3.707728,-2.6136 6.523165,-6.62387 6.523165,-11.62323 0,-8.23718 -6.763435,-14.95751 -15.053457,-14.95751 z m 0,3.98867 c 6.120556,0 11.039202,4.88729 11.039202,10.96884 0,4.03021 -2.501652,7.27833 -5.990022,9.22383 a 2.0073285,1.9945339 0 0 0 -0.846757,2.5552 l 7.77762,17.1388 H 38.019957 l 7.77762,-17.1388 a 2.0073285,1.9945339 0 0 0 -0.846757,-2.5552 c -3.48837,-1.9455 -5.990022,-5.19362 -5.990022,-9.22383 0,-6.08155 4.918646,-10.96884 11.039202,-10.96884 z"
       marker="none"
       visibility="visible"
       display="inline"
       overflow="visible"
       id="path150"
       inkscape:connector-curvature="0" />
  </g>
</svg>
