<svg version="1.1" id="logo-lig" xmlns="http://www.w3.org/2000/svg" xmlns:xlink="http://www.w3.org/1999/xlink" x="0px"
	 y="0px" viewBox="0 0 291 271" style="enable-background:new 0 0 291 271;" xml:space="preserve">
<style type="text/css">
	.st0{fill:#FFFFFF;}
	.st1{fill:#D3769C;}
</style>
<path class="st0" d="M142.7,269.7c-45.4-19.8-79.1-41.6-117-94.3C8,150.8-1,121.2,0.3,92.1c1.2-27.9,12-53,29.5-69
	C46.6,7.8,67.2,0.1,91,0.1c25,0,46.5,8.8,54.5,12.5c8-3.7,29.5-12.5,54.5-12.5c23.8,0,44.4,7.8,61.2,23c17.5,16,28.3,41.1,29.5,69
	c1.3,29.1-7.7,58.7-25.4,83.3c-37.9,52.7-71.6,74.5-117,94.3l-2.8,1.2L142.7,269.7z"/>
<path class="st1" d="M145.5,263.6c45.8-20,78-41.6,114.3-92.2c35.7-49.6,29.7-113.4-3.2-143.3c-46.9-42.7-111.2-7.9-111.2-7.9l0,0
	c0,0-64.3-34.8-111.2,7.9C1.5,58-4.5,121.7,31.2,171.4C67.5,222,99.7,243.6,145.5,263.6L145.5,263.6z"/>
<path class="st0" d="M148.1,202.8c-1.1-0.3-0.6-2,0.5-1.7c3,0.7,5.7-1.2,6.2-4.3c0.2-1.1,1.9-0.6,1.7,0.5
	C155.9,201.4,152,203.8,148.1,202.8 M141.3,189.6c-2.5,0-5-0.7-7.4-1.3c-0.6-0.1-1.1,0.3-1.1,0.9c-0.2,5.2,3.8,9.4,9,9.3
	c1.1,0,1.1-1.8,0-1.8c-4.3,0.1-7.5-3.3-7.3-7.5c-0.4,0.3-0.7,0.6-1.1,0.9c2.6,0.6,5.2,1.3,7.9,1.3
	C142.4,191.4,142.4,189.6,141.3,189.6 M147.6,191.2c-1.1,0.4-1.5-1.3-0.5-1.7c3.3-1.4,5.7-4.2,6.5-7.7c0.1-0.6,1.1-0.9,1.5-0.4
	c2.1,2.6,4.3,5.4,3.1,8.9c-1.1,3-4.4,5.3-7.6,4.2c-1.1-0.4-0.6-2.1,0.5-1.7c2.9,1.1,5.7-1.8,5.7-4.6c0-2.2-1.6-3.9-2.9-5.5
	c0.5-0.1,1-0.3,1.5-0.4C154.4,186.4,151.6,189.5,147.6,191.2 M150.4,196.7c-2.7,2.9-5.2-0.4-5.4-3c-0.2-1.8,0.1-3.6,0.7-5.2
	c0.5-1.2,1.2-2.8-0.1-3.8c-0.6-0.5-1.5-0.5-2.2-0.4c-1.3,0.2-1.3,0.4-2.8,0c-0.5-0.2-1.2,0.3-1.1,0.9c0.1,1.2,0.4,2.1,1.2,3
	c0.7,0.9,2-0.4,1.3-1.3c-0.2-0.6-0.5-1.2-0.7-1.8c-0.4,0.3-0.7,0.6-1.1,0.9c1.2,0.4,1.8,0.6,2.9,0.3c1.3-0.4,1.3,0.3,1.1,1.5
	c-0.1,0.3-0.3,0.7-0.4,1c-0.6,1.9-0.8,4-0.4,6c0.7,4,5.1,6.8,8.3,3.3C152.4,197.2,151.2,195.9,150.4,196.7"/>
<path class="st0" d="M106.2,172.8h0.3c0.6-0.1,0.8-0.5,0.8-0.8c0.2-0.6,0.2-0.8,0.3-1.1c0.1-0.2,0.2-0.4,0.4-0.5
	c0.2-0.1,0.5-0.2,0.6-0.2s0.2,0,0.4,0v0.7h-0.1c-0.2,0-0.4,0-0.5,0.5c-0.1,0.3-0.1,0.4-0.2,0.7c0,0.1-0.1,0.4-0.4,0.6
	c-0.1,0.1-0.2,0.2-0.4,0.3l0,0c0.4,0,0.7,0.2,0.8,0.4c0.1,0.1,0.1,0.3,0.2,0.4c0.3,0.7,0.3,1,0.4,1.1s0.2,0.1,0.3,0.1l0,0v0.7
	c-0.1,0.1-0.2,0.1-0.3,0.1c-0.4,0.1-0.7,0-1-0.3c-0.2-0.3-0.3-0.6-0.4-1.2c-0.3-0.9-0.5-0.9-1.1-0.8H106v2.6l-1,0.1v-2.6h-0.3
	c-0.6,0.1-0.8,0.2-1.1,1.1c-0.2,0.6-0.2,1-0.4,1.3c-0.3,0.4-0.6,0.5-1,0.6c-0.1,0-0.2,0-0.3,0v-0.7h0.1c0.1,0,0.2,0,0.3-0.2
	c0.1-0.2,0.1-0.5,0.4-1.2c0.1-0.1,0.1-0.3,0.2-0.4c0.2-0.3,0.5-0.6,0.8-0.7l0,0c-0.1,0-0.3-0.1-0.4-0.2c-0.2-0.1-0.3-0.3-0.3-0.5
	c0-0.1-0.1-0.2-0.1-0.3s-0.1-0.3-0.1-0.4c-0.1-0.4-0.4-0.3-0.5-0.3h-0.1V171c0.1-0.1,0.2-0.1,0.4-0.1c0.2,0,0.5,0,0.6,0.1
	s0.3,0.2,0.4,0.4c0.1,0.3,0.1,0.5,0.3,1c0.1,0.2,0.3,0.6,0.8,0.5h0.3v-2.3l1-0.1L106.2,172.8z M112.9,169.6v3.3c0,0.1,0,0.4,0,0.6
	c0-0.1,0.1-0.4,0.2-0.5l2.1-3.4v-0.4l1-0.1v5.7l-1,0.1v-3.3c0-0.1,0-0.4,0-0.7c-0.1,0.2-0.1,0.3-0.2,0.5l-2.1,3.4v0.5l-1,0.1v-5.7
	L112.9,169.6z M123.5,168.2v5.7l-1,0.1v-4.8l-1.6,0.2c0,1,0,1.4-0.1,2.1c-0.1,1-0.2,2-0.8,2.6c-0.3,0.4-0.7,0.4-0.9,0.5
	c-0.1,0-0.2,0-0.3,0v-0.9h0.1c0.1,0,0.2,0,0.3-0.1c0.5-0.3,0.6-1.1,0.7-1.7c0.1-0.6,0.1-1.1,0.1-2.8v-0.3L123.5,168.2z M127.7,168.9
	c-0.3,0.5-0.4,1.1-0.4,1.6s0.1,1.1,0.4,1.5c0.3,0.4,0.7,0.4,0.9,0.4c0.3,0,0.7-0.2,1-0.6c0.3-0.5,0.4-1.1,0.4-1.6s-0.1-1.1-0.4-1.5
	c-0.3-0.4-0.7-0.4-1-0.4C128.4,168.3,128,168.5,127.7,168.9 M130.3,167.8c0.4,0.3,0.8,0.9,0.8,2.2s-0.4,2-0.8,2.4
	c-0.5,0.6-1.2,0.8-1.6,0.8c-0.5,0.1-1.1,0-1.6-0.4c-0.4-0.3-0.8-0.9-0.8-2.2s0.4-2,0.8-2.4c0.5-0.6,1.2-0.8,1.6-0.8
	C129.2,167.4,129.8,167.4,130.3,167.8 M135.4,165.2c0,0.4,0.4,0.4,0.6,0.4c0.2,0,0.6-0.1,0.6-0.6l0.8-0.1c-0.1,0.6-0.5,1.1-1.4,1.3
	c-1,0.1-1.4-0.3-1.4-0.9L135.4,165.2z M134.9,166.7v3.3c0,0.1,0,0.4,0,0.6c0-0.1,0.1-0.4,0.2-0.5l2.1-3.4v-0.4l1-0.1v5.7l-1,0.1
	v-3.3c0-0.1,0-0.4,0-0.7c-0.1,0.2-0.1,0.3-0.2,0.5l-2.1,3.4v0.5l-1,0.1v-5.7L134.9,166.7z M146.3,167.5c0.2,0,0.4-0.1,0.5-0.2
	c0.2-0.2,0.3-0.4,0.4-0.6c0.1-0.5,0.1-0.6,0.3-1c0.1-0.2,0.2-0.4,0.4-0.6c0.2-0.2,0.4-0.2,0.7-0.3c0.1,0,0.2,0,0.3,0v0.7h-0.1
	c-0.2,0-0.4,0.1-0.5,0.4c-0.2,0.5-0.2,0.8-0.4,1.2c-0.2,0.3-0.4,0.5-0.6,0.5l0,0c0.5,0,0.7,0.2,0.8,0.4c0.1,0.1,0.2,0.3,0.3,0.6
	c0,0.2,0.1,0.3,0.2,0.7c0,0.1,0.1,0.3,0.4,0.3c0,0,0,0,0.1,0v0.8c-0.1,0-0.3,0.1-0.4,0.1c-0.2,0-0.6,0.1-0.9-0.3
	c-0.1-0.2-0.2-0.4-0.3-0.8c-0.1-0.5-0.2-0.7-0.3-0.9c-0.1-0.3-0.3-0.4-0.9-0.3l-0.6,0.1v2.6l-1,0.1v-5.7l1-0.1v2.3H146.3z
	 M152.8,165.6c-0.3,0.5-0.4,1.1-0.4,1.6s0.1,1.1,0.4,1.5c0.3,0.4,0.7,0.4,0.9,0.4c0.3,0,0.7-0.2,1-0.6c0.3-0.5,0.4-1.1,0.4-1.6
	s-0.1-1.1-0.4-1.5c-0.3-0.4-0.7-0.4-1-0.4C153.4,165,153,165.1,152.8,165.6 M155.4,164.5c0.4,0.3,0.8,0.9,0.8,2.2s-0.4,2-0.8,2.4
	c-0.5,0.6-1.2,0.8-1.6,0.8c-0.5,0.1-1.1,0-1.6-0.4c-0.4-0.3-0.8-0.9-0.8-2.2s0.4-2,0.8-2.4c0.5-0.6,1.2-0.8,1.6-0.8
	C154.2,164,154.8,164.1,155.4,164.5 M161.8,167.2L161.8,167.2l1.4-4.3l1.4-0.2v5.7l-1,0.1v-4.6l0,0l-1.6,4.9h-0.7l-1.6-4.4l0,0v4.7
	l-0.8,0.1v-5.7l1.5-0.2L161.8,167.2z M171.8,161.8v5.6l-1,0.2v-4.9l-2.1,0.3v4.9l-1.1,0.1v-5.7L171.8,161.8z M179.1,160.8v5.7
	l-1,0.1v-4.8l-1.6,0.2c0,1,0,1.4-0.1,2.1c-0.1,1-0.2,2-0.8,2.6c-0.3,0.4-0.7,0.4-0.9,0.5c-0.1,0-0.2,0-0.3,0v-0.9h0.1
	c0.1,0,0.2,0,0.3-0.1c0.5-0.3,0.6-1.1,0.7-1.7c0.1-0.6,0.1-1.1,0.1-2.8v-0.3L179.1,160.8z M185.9,159.9v0.8l-2.7,0.4v1.5l2.2-0.3
	v0.8l-2.2,0.3v1.7l2.8-0.4v0.9l-3.8,0.5v-5.7L185.9,159.9z M190.2,161.6c0.2,0,0.4-0.1,0.5-0.2c0.2-0.2,0.3-0.4,0.4-0.6
	c0.1-0.5,0.1-0.6,0.3-1c0.1-0.2,0.2-0.4,0.4-0.6c0.2-0.2,0.4-0.2,0.7-0.3c0.1,0,0.2,0,0.3,0v0.7h-0.1c-0.2,0-0.4,0.1-0.5,0.4
	c-0.2,0.5-0.2,0.8-0.4,1.2c-0.2,0.3-0.4,0.5-0.6,0.5l0,0c0.5,0,0.7,0.2,0.8,0.4c0.1,0.1,0.2,0.3,0.3,0.6c0,0.2,0.1,0.3,0.2,0.7
	c0,0.1,0.1,0.3,0.4,0.3c0,0,0,0,0.1,0v0.8c-0.1,0-0.3,0.1-0.4,0.1c-0.2,0-0.6,0.1-0.9-0.3c-0.1-0.2-0.2-0.4-0.3-0.8
	c-0.1-0.5-0.2-0.7-0.3-0.9c-0.1-0.3-0.3-0.4-0.9-0.3l-0.6,0.1v2.6l-1,0.1v-5.7l1-0.1v2.3H190.2z M198.9,160.1c0-0.3-0.1-0.5-0.2-0.7
	c-0.2-0.3-0.5-0.5-0.9-0.4c-0.5,0.1-0.8,0.3-1.1,0.8c-0.2,0.4-0.2,0.9-0.2,1.4c0,0.7,0.1,1.1,0.2,1.3c0.2,0.3,0.5,0.7,1.1,0.6
	c0.3,0,0.6-0.2,0.8-0.5c0.2-0.2,0.3-0.5,0.4-0.9h1c-0.1,0.6-0.3,1.1-0.6,1.4c-0.5,0.5-1,0.7-1.5,0.8c-1,0.1-1.7-0.3-2-0.8
	c-0.4-0.6-0.5-1.5-0.5-1.8c0-1.3,0.5-2,0.7-2.3c0.6-0.7,1.3-0.9,1.7-0.9c0.4-0.1,1,0,1.5,0.4c0.3,0.3,0.6,0.7,0.6,1.3L198.9,160.1z"
	/>
<path class="st0" d="M87.9,144.2c-0.4,0.1-0.7,0.2-1.1,0.4c-0.3,0.2-0.7,0.4-1.1,0.6l-0.7-1.1c0.7-0.9,1.4-1.6,2.3-2.1
	c0.9-0.6,1.7-0.9,2.4-1c0.7-0.1,1.2,0,1.6,0.3c0.3,0.3,0.5,0.9,0.5,1.7c0,0.3-0.1,0.7-0.2,1.2s-0.2,1-0.3,1.6
	c-0.1,0.6-0.2,1.2-0.3,1.8c-0.1,0.6-0.2,1.2-0.3,1.8c-0.1,0.6-0.2,1.1-0.2,1.5s-0.1,0.8-0.1,1c0,0.3,0.1,0.5,0.2,0.7
	s0.3,0.2,0.6,0.2c0.3,0,0.7-0.3,1-0.7c0.4-0.4,0.8-0.9,1.2-1.4c0.4-0.5,0.7-1.1,1-1.6s0.6-1,0.7-1.3c0.2-0.3,0.3-0.6,0.4-0.9
	c0.1-0.3,0.3-0.6,0.4-0.8c0.1-0.1,0.1-0.4,0.2-0.8c0.1-0.4,0.2-0.8,0.2-1.3c0.1-0.5,0.1-0.9,0.2-1.4s0.1-0.9,0.2-1.2
	c0-0.2,0.1-0.3,0.2-0.5c0.1-0.1,0.3-0.2,0.5-0.3c0.5-0.1,1-0.3,1.4-0.5c0.5-0.2,0.9-0.3,1.2-0.5c0.1,0,0.2,0.1,0.3,0.1
	c0.1,0,0.2,0.1,0.2,0.2c-0.2,1.1-0.4,2.1-0.5,3s-0.3,1.8-0.4,2.7s-0.3,1.9-0.4,2.9s-0.3,2.2-0.5,3.6c0.3-0.1,0.6-0.2,0.9-0.3
	c0.4-0.1,0.7-0.3,1.1-0.6l0.8,1.1c-0.7,0.9-1.5,1.6-2.2,2.1c-0.8,0.5-1.5,0.8-2.2,0.9c-0.8,0.1-1.3,0-1.7-0.3
	c-0.3-0.3-0.5-0.7-0.5-1.4c0-0.4,0-0.9,0.1-1.5s0.2-1.2,0.3-1.9h-0.1c-0.4,0.6-0.8,1.3-1.3,2s-1,1.3-1.5,1.9
	c-0.6,0.6-1.1,1.1-1.7,1.5s-1.2,0.7-1.9,0.8c-0.7,0.1-1.3,0-1.8-0.4c-0.4-0.4-0.6-1-0.6-1.7c0-0.4,0-0.9,0.1-1.6
	c0.1-0.7,0.2-1.6,0.3-2.5c0.1-0.9,0.3-1.9,0.5-3C87.6,146.2,87.7,145.2,87.9,144.2L87.9,144.2z M120.8,136.9c0.5-0.1,0.9,0,1.3,0.1
	s0.7,0.3,1,0.6s0.5,0.6,0.7,1s0.2,0.8,0.2,1.3s-0.1,1-0.4,1.5c-0.3,0.5-0.6,1-1,1.5c-0.4,0.5-0.9,1-1.4,1.5s-1,1-1.5,1.5
	c-0.7,0.7-1.2,1.3-1.7,1.8s-0.7,1-0.7,1.4c0,0.3,0.1,0.6,0.3,0.8c0.2,0.2,0.4,0.3,0.7,0.3c0.3,0,0.6-0.1,0.9-0.3
	c0.4-0.1,0.8-0.3,1.2-0.6c0.4-0.2,0.8-0.5,1.3-0.8c0.4-0.3,0.8-0.6,1.2-1c0.3,0.4,0.6,0.9,0.9,1.3c-0.3,0.4-0.7,0.8-1.2,1.2
	s-1,0.8-1.6,1.2s-1.2,0.7-1.9,1c-0.7,0.3-1.4,0.5-2.2,0.6c-0.5,0.1-0.9,0-1.4,0c-0.4-0.1-0.8-0.3-1.1-0.5c-0.3-0.2-0.6-0.6-0.8-1
	c-0.2-0.4-0.3-0.9-0.3-1.4s0.1-1,0.4-1.5s0.6-1,1-1.5s0.9-1,1.4-1.5s1-1,1.5-1.5c0.7-0.7,1.2-1.3,1.7-1.8s0.7-0.9,0.7-1.3
	c0-0.3-0.1-0.6-0.3-0.8c-0.2-0.2-0.4-0.3-0.6-0.2c-0.5,0.1-1,0.2-1.7,0.5s-1.4,0.7-2.3,1.3c-0.1-0.2-0.3-0.5-0.4-0.7
	s-0.2-0.5-0.4-0.7c1-0.8,2-1.5,3-2.1C118.5,137.5,119.6,137.1,120.8,136.9 M134.7,137.2c-0.6,0.1-1.1,0.3-1.5,0.8
	c-0.4,0.4-0.8,1-1.1,1.7s-0.6,1.5-0.7,2.4c-0.2,0.9-0.2,1.8-0.2,2.8c0,1.2,0.2,2.1,0.5,2.8s0.9,1,1.6,0.9c0.6-0.1,1.1-0.3,1.5-0.8
	c0.5-0.5,0.8-1,1.1-1.7s0.5-1.5,0.7-2.4s0.2-1.9,0.2-2.9c0-1.2-0.2-2.1-0.6-2.7C135.9,137.3,135.4,137.1,134.7,137.2 M135.4,135
	c0.9-0.1,1.6-0.1,2.3,0.1c0.7,0.2,1.2,0.5,1.7,0.9c0.4,0.4,0.8,1,1,1.7s0.3,1.4,0.3,2.2c0,1.4-0.2,2.7-0.6,3.9
	c-0.4,1.2-0.9,2.3-1.7,3.3c-0.7,0.9-1.6,1.7-2.7,2.3c-1,0.6-2.2,1-3.6,1.2c-1.7,0.2-3-0.1-3.9-1c-0.9-0.9-1.3-2.3-1.3-4
	c0-1.5,0.2-2.8,0.7-4c0.5-1.2,1.1-2.3,1.8-3.2c0.8-0.9,1.6-1.7,2.7-2.3C133.2,135.5,134.3,135.1,135.4,135 M147.6,143.5
	c-0.8,1.7-1.5,3.3-2.1,4.7c-0.1,0.2-0.2,0.4-0.3,0.5s-0.3,0.2-0.6,0.2c-0.5,0.1-0.9,0.2-1.3,0.2c-0.4,0.1-0.7,0.2-1.1,0.2
	c0,0-0.1-0.1-0.1-0.2c-0.1-0.1-0.1-0.2-0.2-0.3c1.3-2.4,2.6-4.9,3.9-7.3c1.3-2.4,2.6-4.9,3.9-7.4c0.1-0.2,0.2-0.3,0.2-0.4
	c0.1-0.1,0.2-0.2,0.4-0.3c0.4-0.2,0.8-0.3,1.2-0.4c0.4-0.1,0.8-0.2,1.2-0.4c0.2,0.1,0.4,0.1,0.5,0.2c0.1,1,0.1,2,0.2,3.2
	c0.1,1.1,0.2,2.3,0.3,3.4c0.1,1,0.2,1.9,0.3,2.8c0.1,0.9,0.2,1.7,0.3,2.4c0.3-0.1,0.6-0.3,0.9-0.4c0.2-0.1,0.5-0.3,0.9-0.5
	c0.1,0.2,0.2,0.4,0.4,0.6c0.1,0.2,0.3,0.4,0.4,0.6c-0.7,0.9-1.3,1.6-2,2.1s-1.3,0.7-1.9,0.8c-0.8,0.1-1.3,0-1.7-0.4
	c-0.3-0.3-0.6-1-0.7-1.9c-0.1-0.9-0.2-2-0.3-3.4s-0.2-2.7-0.2-4.1h-0.2C149.1,140,148.3,141.7,147.6,143.5 M162.6,146.6
	c-0.7,0.1-1.3,0-1.8-0.4c-0.4-0.4-0.6-0.9-0.6-1.7c0-0.4,0-0.9,0.1-1.6c0.1-0.7,0.2-1.6,0.3-2.5s0.3-1.9,0.5-3
	c0.2-1,0.4-2.1,0.5-3.1c-0.3,0.1-0.5,0.1-0.6,0.2c-0.3,0.1-0.5,0.2-0.8,0.4c-0.2,0.1-0.5,0.3-0.8,0.5c-0.1-0.2-0.3-0.4-0.4-0.5
	c-0.1-0.2-0.2-0.3-0.4-0.5c0.7-0.9,1.4-1.6,2.3-2.1c0.8-0.5,1.6-0.9,2.4-1c0.5-0.1,1,0,1.4,0.2s0.7,0.6,0.7,1.3c0,0.2,0,0.5-0.1,1
	s-0.1,1-0.2,1.6c-0.1,0.6-0.2,1.3-0.3,1.9c-0.1,0.7-0.2,1.3-0.3,2c-0.1,0.6-0.2,1.2-0.2,1.7c-0.1,0.5-0.1,0.9-0.1,1.1
	c0,0.3,0.1,0.6,0.2,0.7c0.1,0.2,0.3,0.3,0.6,0.2c0.4,0,0.7-0.2,1.1-0.6c0.4-0.4,0.7-0.8,1.1-1.3c0.4-0.5,0.7-1,1-1.6
	s0.6-1.1,0.8-1.6c0.2-0.3,0.3-0.6,0.4-0.9c0.1-0.3,0.2-0.6,0.3-0.9c0.1-0.1,0.1-0.4,0.2-0.8c0.1-0.4,0.2-0.8,0.2-1.3
	c0.1-0.5,0.1-0.9,0.2-1.4c0.1-0.5,0.1-0.9,0.2-1.2c0-0.2,0.1-0.4,0.2-0.5c0.1-0.1,0.3-0.3,0.5-0.3c0.5-0.1,1-0.3,1.4-0.5
	s0.9-0.3,1.2-0.5c0.1,0,0.2,0.1,0.3,0.1s0.2,0.1,0.2,0.2c-0.2,1-0.3,2-0.5,3s-0.3,2-0.5,3c-0.2,1.1-0.4,2.2-0.7,3.4s-0.6,2.5-1,3.7
	s-0.8,2.5-1.4,3.6c-0.5,1.2-1.1,2.2-1.8,3.2c-0.7,0.9-1.5,1.7-2.4,2.4c-0.9,0.6-1.9,1-3,1.2c-0.6,0.1-1.2,0.1-1.7,0
	s-0.9-0.2-1.2-0.4s-0.6-0.4-0.8-0.7s-0.3-0.6-0.3-0.9c0-0.2,0.1-0.4,0.2-0.6c0.1-0.2,0.3-0.5,0.5-0.7s0.5-0.5,0.9-0.7
	s0.8-0.4,1.3-0.5c0.1,0.7,0.3,1.2,0.6,1.6c0.3,0.4,0.8,0.6,1.5,0.5c0.5-0.1,1-0.3,1.5-0.8c0.4-0.5,0.8-1.1,1.2-1.7
	c0.4-0.7,0.7-1.4,0.9-2.2c0.3-0.8,0.5-1.5,0.7-2.2s0.4-1.4,0.5-2.1c0.2-0.7,0.3-1.4,0.4-2h-0.1c0,0,0,0-0.1,0
	c-0.3,0.7-0.8,1.3-1.2,2.1c-0.5,0.7-1,1.4-1.6,2s-1.2,1.2-1.8,1.6C163.9,146.2,163.2,146.5,162.6,146.6 M184.8,131.6
	c-0.3,0-0.5,0.1-0.8,0.3s-0.6,0.4-0.9,0.6c-0.3,0.3-0.6,0.6-0.9,0.9c-0.3,0.3-0.5,0.7-0.8,1.1c-0.1,0.4-0.2,0.8-0.2,1.2
	c-0.1,0.4-0.1,0.8-0.2,1.2c-0.1,0.4-0.1,0.7-0.1,1s0,0.6,0,0.8c0,1,0.2,1.8,0.5,2.4c0.4,0.6,1,0.8,1.8,0.7c0.7-0.1,1.3-0.5,1.8-1.1
	c0.4-0.6,0.8-1.4,1.1-2.2s0.4-1.6,0.5-2.4c0.1-0.8,0.1-1.3,0.1-1.7c0-1-0.2-1.7-0.5-2.2C185.8,131.7,185.4,131.5,184.8,131.6
	 M181.9,131.9c0.8-1,1.7-1.8,2.5-2.3s1.5-0.8,2.1-0.9c1.5-0.2,2.6,0.2,3.3,1.1c0.7,0.9,1,2.2,1,3.8c0,1.1-0.2,2.2-0.5,3.3
	c-0.3,1.2-0.8,2.3-1.5,3.3s-1.5,1.9-2.5,2.6c-1,0.7-2.2,1.2-3.6,1.4c-1.7,0.2-3-0.1-4-0.9c-1-0.9-1.5-2.3-1.5-4.5c0-1,0.1-2.1,0.3-3
	c0.3-2,0.6-3.7,1.1-5.2s1-2.8,1.7-3.9c0.6-1.1,1.3-1.9,2.1-2.6c0.7-0.6,1.5-1,2.3-1.2c0.7-0.1,1.3-0.3,1.8-0.4
	c0.6-0.1,1.1-0.3,1.5-0.5s0.9-0.5,1.2-0.7c0.4-0.3,0.7-0.7,1-1.1c0.4,0.3,0.7,0.6,0.9,0.9c0.2,0.3,0.2,0.6,0.2,0.9
	c0,0.8-0.4,1.4-1.1,1.8c-0.7,0.4-1.7,0.7-2.9,0.9c-0.3,0-0.6,0.1-1,0.1s-0.7,0-0.9,0.1c-0.5,0.1-0.9,0.3-1.3,0.7
	c-0.4,0.4-0.7,1-1,1.7s-0.6,1.4-0.8,2.3c-0.2,0.9-0.4,1.7-0.6,2.7L181.9,131.9z M196.4,129.7c-0.4,0.1-0.7,0.2-1.1,0.4
	c-0.3,0.2-0.7,0.4-1.1,0.6l-0.7-1.1c0.7-0.9,1.4-1.6,2.3-2.1c0.9-0.6,1.7-0.9,2.4-1s1.2,0,1.6,0.3c0.3,0.3,0.5,0.9,0.5,1.7
	c0,0.3-0.1,0.7-0.2,1.2c-0.1,0.5-0.2,1-0.3,1.6s-0.2,1.2-0.3,1.8s-0.2,1.2-0.3,1.8s-0.2,1.1-0.2,1.5s-0.1,0.8-0.1,1
	c0,0.3,0.1,0.5,0.2,0.7c0.1,0.2,0.3,0.2,0.6,0.2s0.7-0.3,1-0.7c0.4-0.4,0.8-0.9,1.2-1.4s0.7-1.1,1-1.6s0.6-1,0.7-1.3
	c0.2-0.3,0.3-0.6,0.4-0.9c0.1-0.3,0.3-0.6,0.4-0.8c0.1-0.1,0.1-0.4,0.2-0.8c0.1-0.4,0.2-0.8,0.2-1.3c0.1-0.5,0.1-0.9,0.2-1.4
	c0.1-0.5,0.1-0.9,0.2-1.2c0-0.2,0.1-0.3,0.2-0.5c0.1-0.1,0.3-0.2,0.5-0.3c0.5-0.1,1-0.3,1.4-0.5c0.5-0.2,0.9-0.3,1.2-0.5
	c0.1,0,0.2,0.1,0.3,0.1s0.2,0.1,0.2,0.2c-0.2,1.1-0.4,2.1-0.5,3s-0.3,1.8-0.4,2.7c-0.1,0.9-0.3,1.9-0.4,2.9c-0.1,1-0.3,2.2-0.5,3.6
	c0.3-0.1,0.6-0.2,0.9-0.3c0.4-0.1,0.7-0.3,1.1-0.6l0.8,1.1c-0.7,0.9-1.5,1.6-2.2,2.1c-0.8,0.5-1.5,0.8-2.2,0.9
	c-0.8,0.1-1.3,0-1.7-0.3c-0.3-0.3-0.5-0.7-0.5-1.4c0-0.4,0-0.9,0.1-1.5s0.2-1.2,0.3-1.9h-0.1c-0.4,0.6-0.8,1.3-1.3,2s-1,1.3-1.5,1.9
	c-0.6,0.6-1.1,1.1-1.7,1.5c-0.6,0.4-1.2,0.7-1.9,0.7c-0.7,0.1-1.3,0-1.8-0.4c-0.4-0.4-0.6-1-0.6-1.7c0-0.4,0-0.9,0.1-1.6
	c0.1-0.7,0.2-1.6,0.3-2.5s0.3-1.9,0.5-3C196.1,131.7,196.3,130.7,196.4,129.7L196.4,129.7z M116,89.3c-1.1-0.2-6.9,2.1-6,2.7
	c2.2,1.6,4.5,2.7,6.2,5c1.3,1.8,2.4,3.8,3,5.9c1.7,5.7,0.9,12.1-1.5,17.4c-0.6,1.4-1.4,3.3-2.5,4.3c-0.2,0.2-0.7,0.5-1.1,0.3
	c-1.2-0.5-1.9-2.5-2.2-3.7c-0.4-1.4-0.7-2.9-0.9-4.4c-1.1-6.3-0.4-12.6,1.6-18.7c0.2-0.5-4.1,0.4-4.6,1.4c-1.8,3.8-2.9,7.7-3.2,11.8
	c-1.5,0.7-3.6,1.8-5,2.2c0.1-1,0.2-2.6,0.3-3.6c0.4-5.8,0.9-10.4,0.2-16.1c-0.1-1-4.3,0.9-5.4,1.7c-2.5,1.9-5.4,4.3-7.7,6.1
	c-1.5,1.1-2.4,3.5,0.2,2s4.6-2.8,7.1-4.6c0,5.2-0.2,7.6-0.6,12.8c-0.3,3.2-0.7,6.4-1.2,9.5c-0.5,3.4-1.6,6.7-1.9,10.1
	c0,0.5,5.7-1,6.2-2.2c1.7-4.6,2.1-9.3,2.7-13.5c1.4-0.6,4.2-1.9,5-2.3c0,3.4,0.3,6.8,1.3,10.2c0.8,2.8,2.1,5,5.3,4.7
	c2.9-0.3,6.1-1.8,8.4-3.6c5.5-4.4,7.6-12.8,7.2-19.6C126.4,99,122.7,90.9,116,89.3 M197.2,78.3c0.9-3.6,1.9-7.2,3-10.7
	c0.4-1.4,0.9-2.8,1.5-4.1c0.3-0.6,0.6-1.2,0.9-1.8c1.3,2,1.5,5.5,1.6,7.3c0.3,3.6,0.8,7.7-0.7,11.2c-1.4,3.4-4.6,6-7.1,8.6
	c-0.4,0.4-0.9,0.8-1.3,1.3C195.5,86,196.3,82.1,197.2,78.3 M199.2,97.8c0,0.1-0.1,0.2-0.1,0.3c0,0.4,0.4,0.6,0.7,0.6
	c0.4,0,0.7-0.2,1-0.4c0.8-0.5,2.1-1.5,3.1-1.4c0.3,0,0.6,0.2,0.9,0.4c0.8,0.7,1.2,1.8,1.2,2.8c0.1,1.9-0.8,3.8-1.5,5.6
	c-0.7,1.9-1.5,3.7-2.5,5.4c-0.6,1-1.4,2.6-2.5,3.1c-1.2,0.6-2-0.7-2.6-2.1c-1.3-3.3-1.9-6.9-2.1-10.4c-0.2-2.8-0.2-5.6,0-8.4
	c4.4-3.6,8.7-7.4,12.3-11.7c4.1-4.9,3.8-11.8,2.9-17.8c-0.3-1.9-0.8-5.4-2.9-6.2c-1.9-0.7-4.8,0.8-6.4,1.7c-4.9,2.8-6.4,8.3-8,13.4
	c-2.4,7.8-4.4,15.9-4.8,24c-0.2,4.5,0,9.1,1,13.6c0.4,1.9,0.9,5.5,2.7,6.7c1.5,1,4.2,0.3,5.8-0.1c4.3-1.2,8.1-3.5,10.7-7.2
	c2.3-3.4,6.4-11.1,3.2-14.9c-2.9-3.5-10.1-0.1-12.1,2.9C199.2,97.7,199.2,97.8,199.2,97.8 M171.1,81.1c-1.1-0.2-6.8,2.2-6,2.7
	c2.5,1.5,4.9,2.4,7,4.5c1.7,1.8,3.1,3.9,4,6.2c2.3,6,0.8,12.5-2.1,17.9c-0.8,1.4-1.6,2.8-2.6,4c-1.2,1.6-1.7,2.3-3.4,0.6
	c-1.8-1.9-2.5-5.1-3-7.5c-1.4-6.6-0.5-13.2,2-19.4c0.2-0.4-4,0.4-4.6,1.4c-4.2,7.6-5.2,16.6-2.3,24.9c1,3.1,2.8,5.1,6.2,4.8
	c3.1-0.3,6.4-1.8,8.8-3.8c5.7-4.7,9.5-13.8,8.7-21.1C183.2,89.7,178,82.4,171.1,81.1 M163.8,70.7c0.4,1.2,7.9-1.4,7.8-3
	c-0.3-3.6-6.7-4.2-9.4-4.2c-4.6,0-9.3,0.9-13.7,2.3c-4.5,1.5-9.2,3.5-13.2,6.1c-3.6,2.3-7.4,5-10.2,8.3l0,0
	c-0.3,0.3-0.5,0.6-0.2,0.7c2.8,1,5.5,1.5,8.1,3c2.9,1.6,5.5,3.7,7.7,6.1c4.4,4.7,7.1,10.5,6.5,17.1c-0.4,3.9-1.6,7.6-3.4,11
	c-0.6,1.1-2,3.9-2.8,3.1c-0.9-1-1.6-2.8-2-4c-2.3-7.5-1.8-15.4,0.7-22.8c0.1-0.4-4.1,0.4-4.6,1.4c-2.1,4.5-3.3,9.3-3.4,14.2
	c-0.1,3.9,0.2,9.8,2.6,13.1c2.1,2.8,6.1,1.3,8.8,0.1c3.9-1.8,6.2-5,8-8.9c3.8-8.1,3.9-17-1.5-24.3c-4.2-5.7-11.5-11.6-18.8-11.9
	c3.7-3.2,9.8-7.7,15.6-9.8C150.7,66.9,161.7,64.8,163.8,70.7 M237.9,92.6c-1.7-1.9-3.5-2.8-5.3-3.1c1.4-1.7,3.3-2.7,5.1-3.9
	c0.3-0.2,0.7-0.5,0.8-0.9s-0.1-0.9-0.5-0.9c-0.2,0-0.3,0-0.5,0.1c-3.9,1.6-8,4.9-10.8,7.9c-0.4,0.4-0.3,0.6,0.3,0.7
	c5,0.3,7.2,5.8,5.3,9.9c-1.7,3.6-5.2,6.6-8.9,8.5c2.1-11.5,2.8-24.2,0.7-35.6c-0.1-0.6-4.5,0.7-4.5,1.7c-0.5,12.3-0.7,24.9-2.8,37.1
	c-0.2,1,2.3,0.1,2.6,0c7.2-2.4,18.6-7.6,19.9-16.2C239.6,96,239.2,94,237.9,92.6 M81.9,132.1c-0.7,0-1.5,0.2-2.3,0.5
	c-1.5-0.5-2.3-3.5-2.4-4.7c-0.2-2.3,0-4.7,0.1-7c0.2-5.1,0.5-10.3,0.8-15.4c0.7-10.2,1.7-20.4,3-30.6c0-0.1-5.8,0.6-6,2.3
	c-1.4,10.2-4.6,20.1-8.1,29.7c-3.1,8.5-6.3,17-10.2,25.1c-3.6,7.8-7.9,15.6-13.8,21.9c-3.8,4-8.2,7.3-14,6.5
	c-4.1-0.6-7.6-2.8-9.8-6.3c-0.6-0.9-5.3,1.4-5,1.9c4.9,8.4,15.3,8,23.1,4.5c9.1-4,15.4-12.1,20.3-20.5c5.5-9.4,9.7-19.6,13.5-29.8
	c0,0,0-0.1,0.1-0.1c-0.2,2.2-0.3,4.4-0.5,6.6c-0.2,3.4-0.4,6.7-0.6,10.1c-0.1,2.5-0.5,5.5,1.4,7.5c2.9,2.9,7.9,0.6,10.7-1.2
	C83.6,132.4,83,132.2,81.9,132.1"/>
<path class="st0" d="M46.9,126.5c-0.2,0-0.4-0.1-0.5-0.4c-1.8-8-2.6-16-2.2-24c0.9-19.5,8.4-37.2,20.7-48.3
	c11.8-10.7,26.2-16.1,42.8-16.1c17.5,0,32.5,6.1,38.3,8.8c5.8-2.7,20.8-8.8,38.3-8.8c16.6,0,31,5.4,42.8,16.1
	c6.9,6.3,12.4,14.7,16,24.5c0.1,0.2,0,0.5-0.3,0.6c-0.2,0.1-0.5,0-0.6-0.3c-3.5-9.6-9-17.9-15.7-24.1
	c-11.6-10.5-25.8-15.9-42.2-15.9c-17.6,0-32.5,6.2-38.1,8.8l-0.2,0.1l-0.2-0.1c-5.6-2.7-20.5-8.8-38.1-8.8
	c-16.4,0-30.6,5.3-42.2,15.9c-12.1,11-19.5,28.4-20.4,47.7c-0.3,7.9,0.4,15.9,2.2,23.8c0.1,0.3-0.1,0.5-0.4,0.6
	C47,126.5,46.9,126.5,46.9,126.5 M146,227.6l-1.9-0.8c-31.9-13.9-55.5-29.2-82.1-66.2c-0.2-0.2-0.1-0.5,0.1-0.7s0.5-0.1,0.7,0.1
	c26.5,36.8,50,52,81.7,65.9l1.5,0.7l1.5-0.7c31.7-13.8,55.2-29.1,81.7-65.9c12.3-17,18.5-37.6,17.6-57.8c-0.1-1.2-0.1-2.4-0.2-3.7
	c0-0.3,0.2-0.5,0.4-0.5c0.3,0,0.5,0.2,0.5,0.4c0.1,1.2,0.2,2.5,0.2,3.7c0.9,20.4-5.4,41.2-17.8,58.4c-26.6,37-50.2,52.3-82.1,66.2
	L146,227.6z M146.3,224.7h-0.5c-31.5-13.8-54.8-28.8-80.7-64.8c-1.5-2.1-3-4.3-4.3-6.5c-0.1-0.2-0.1-0.5,0.2-0.6
	c0.2-0.1,0.5-0.1,0.6,0.2c1.3,2.2,2.7,4.4,4.3,6.5c25.7,35.8,48.9,50.8,80.2,64.4l0,0c31.1-13.6,54.2-28.5,80-64.4
	c10.6-14.8,17-31.4,17.8-46.8c0-0.3,0.2-0.5,0.5-0.4c0.3,0,0.5,0.2,0.4,0.5c-0.9,15.6-7.3,32.3-18,47.3
	C200.9,196,177.7,211,146.3,224.7L146.3,224.7z M48.2,119.6c-0.2,0-0.4-0.2-0.5-0.4c-4.4-24.5,3.1-49.6,19-64
	c32.4-29.1,76.9-6.9,79.4-5.7c2.5-1.3,46.8-23.4,79.2,5.7c4,3.6,7.5,8.2,10.9,14.3c0.1,0.2,0,0.5-0.2,0.6s-0.5,0-0.6-0.2
	c-3.3-6.1-6.7-10.5-10.7-14.1c-32.7-29.4-77.8-5.7-78.2-5.5l-0.2,0.1l-0.5-0.1c-0.5-0.2-45.8-23.9-78.5,5.5
	c-15.6,14.3-23,39.1-18.6,63.3C48.7,119.3,48.5,119.6,48.2,119.6C48.3,119.6,48.2,119.6,48.2,119.6"/>
</svg>
