<?xml version="1.0" encoding="UTF-8"?>
<svg width="52px" height="73px" viewBox="0 0 52 73" version="1.1" xmlns="http://www.w3.org/2000/svg" xmlns:xlink="http://www.w3.org/1999/xlink">
    <!-- Generator: Sketch 51.1 (57501) - http://www.bohemiancoding.com/sketch -->
    <title>Group 3</title>
    <desc>Created with Sketch.</desc>
    <defs></defs>
    <g id="Тест" stroke="none" stroke-width="1" fill="none" fill-rule="evenodd">
        <g id="Вы-не-прошли" transform="translate(-182.000000, -221.000000)" fill-rule="nonzero">
            <g id="Group-3" transform="translate(182.000000, 221.000000)">
                <g id="feelings" transform="translate(0.000000, 21.000000)" fill="#9B9B9B">
                    <path d="M25.9996619,52 C11.6632291,52 0,40.3360947 0,25.9996619 C0,11.6632291 11.6632291,0 25.9996619,0 C40.3360947,0 52,11.6632291 52,25.9996619 C52,40.3360947 40.3360947,52 25.9996619,52 Z M25.9996619,2.36348271 C12.9663568,2.36348271 2.36348271,12.9663568 2.36348271,25.9996619 C2.36348271,39.032967 12.9663568,49.6365173 25.9996619,49.6365173 C39.0336432,49.6365173 49.6365173,39.032967 49.6365173,25.9996619 C49.6365173,12.9663568 39.0336432,2.36348271 25.9996619,2.36348271 Z" id="Shape"></path>
                    <path d="M32.7741752,41 C32.4417976,41 32.1087188,40.8881933 31.8667984,40.6669093 C30.7658851,39.6606493 28.7014975,39.0352307 26.4793358,39.0352307 C24.2831192,39.0352307 22.2306523,39.6501674 21.1227269,40.6401222 C20.6620263,41.0524093 19.8850761,41.0745378 19.3914182,40.6925317 C18.8956566,40.3099433 18.8669067,39.6658902 19.3276073,39.2541854 C20.9074529,37.8426263 23.5811994,37 26.4793358,37 C29.4139356,37 32.1066151,37.8589314 33.6815521,39.2984422 C34.1366429,39.7142234 34.0994784,40.357694 33.5988082,40.7356238 C33.3631988,40.912651 33.068687,41 32.7741752,41 Z" id="Shape"></path>
                    <path d="M17,24.9997139 C17,26.1045631 16.1045629,27 15.0002861,27 C13.8954369,27 13,26.1045631 13,24.9997139 C13,23.8954371 13.8954369,23 15.0002861,23 C16.1045629,23 17,23.8954371 17,24.9997139 Z" id="Shape"></path>
                    <path d="M38,24.9997139 C38,26.1045631 37.104435,27 36,27 C34.8955652,27 34,26.1045631 34,24.9997139 C34,23.8954371 34.8955652,23 36,23 C37.104435,23 38,23.8954371 38,24.9997139 Z" id="Shape"></path>
                </g>
                <g id="rain" transform="translate(30.000000, 0.000000)">
                    <g id="Group" fill="#3535FF">
                        <path d="M16.5744118,13.5493333 C16.3958235,13.5493333 16.2508824,13.4 16.2508824,13.216 C16.2508824,13.032 16.3958235,12.8826667 16.5744118,12.8826667 C18.8747059,12.8826667 20.7453529,10.9546667 20.7453529,8.58533333 C20.7453529,6.21666667 18.8740588,4.29 16.5744118,4.29 C16.3815882,4.29 16.1777647,4.30733333 15.9331765,4.34533333 C15.7947059,4.36733333 15.6575294,4.29266667 15.5954118,4.16333333 C14.5963529,2.076 12.5788235,0.78 10.3302941,0.78 C7.623,0.78 5.28064706,2.67266667 4.63358824,5.38266667 C4.59735294,5.53466667 4.45370588,5.63133333 4.31135294,5.636 L4.22917647,5.63133333 C4.22723529,5.63133333 4.22529412,5.63133333 4.22335294,5.63133333 C2.22394118,5.63133333 0.647058824,7.25733333 0.647058824,9.256 C0.647058824,11.256 2.22652941,12.8826667 4.16835294,12.8826667 C4.34694118,12.8826667 4.49188235,13.032 4.49188235,13.216 C4.49188235,13.4 4.34694118,13.5493333 4.16835294,13.5493333 C1.87,13.5493333 0,11.6233333 0,9.256 C0,6.92133333 1.81823529,5.01533333 4.07258824,4.96266667 C4.87558824,2.094 7.41205882,0.113333333 10.3296471,0.113333333 C12.7483529,0.113333333 14.9263529,1.464 16.0684118,3.654 C16.2495882,3.63333333 16.4139412,3.62333333 16.5737647,3.62333333 C19.2305882,3.62333333 21.3917647,5.84933333 21.3917647,8.58533333 C21.3930588,11.3226667 19.2312353,13.5493333 16.5744118,13.5493333 Z" id="Shape"></path>
                        <path d="M16.5744118,13.5493333 C16.3958235,13.5493333 16.2508824,13.4 16.2508824,13.216 C16.2508824,13.032 16.3958235,12.8826667 16.5744118,12.8826667 C18.8747059,12.8826667 20.7453529,10.9546667 20.7453529,8.58533333 C20.7453529,6.21666667 18.8740588,4.29 16.5744118,4.29 C15.3695882,4.29 14.2236471,4.82666667 13.431,5.762 C13.3138824,5.90133333 13.1094118,5.91533333 12.9748235,5.794 C12.8402353,5.67333333 12.8266471,5.46266667 12.9437647,5.324 C13.8587059,4.24333333 15.1819412,3.624 16.5744118,3.624 C19.2312353,3.624 21.3924118,5.85 21.3924118,8.586 C21.3930588,11.3226667 19.2312353,13.5493333 16.5744118,13.5493333 Z" id="Shape"></path>
                    </g>
                    <path d="M5.26628865,19 C5.23912401,19 5.21195938,18.9949829 5.18479475,18.9849486 C5.04471048,18.9322685 4.96801035,18.755414 5.01275209,18.5904753 L5.50171545,16.7999807 C5.54698983,16.6350419 5.6977269,16.5447333 5.83674589,16.5974133 C5.97683017,16.6500934 6.05406294,16.8269478 6.00878856,16.9918866 L5.5198252,18.7830084 C5.48360569,18.9153356 5.37867565,19 5.26628865,19 Z M6.244748,15.4177564 C6.21758337,15.4177564 6.19041874,15.4127393 6.16325411,15.402705 C6.02316983,15.3500249 5.94593706,15.1731705 5.99121144,15.0082317 L6.4801748,13.2171099 C6.52544918,13.0521712 6.67512097,12.9631168 6.81520525,13.0145426 C6.95528952,13.0672226 7.03198965,13.2440771 6.98724791,13.4090158 L6.49828455,15.2001376 C6.46206505,15.333092 6.35766764,15.4177564 6.244748,15.4177564 Z" id="Shape" fill="#9B9B9B"></path>
                    <path d="M12.2662886,19 C12.239124,19 12.2119594,18.9949829 12.1847948,18.9849486 C12.0447105,18.9322685 11.9680103,18.755414 12.0127521,18.5904753 L12.5017154,16.7999807 C12.5469898,16.6350419 12.6977269,16.5447333 12.8367459,16.5974133 C12.9768302,16.6500934 13.0540629,16.8269478 13.0087886,16.9918866 L12.5198252,18.7830084 C12.4836057,18.9153356 12.3786756,19 12.2662886,19 Z M13.244748,15.4177564 C13.2175834,15.4177564 13.1904187,15.4127393 13.1632541,15.402705 C13.0231698,15.3500249 12.9459371,15.1731705 12.9912114,15.0082317 L13.4801748,13.2171099 C13.5254492,13.0521712 13.675121,12.9631168 13.8152052,13.0145426 C13.9552895,13.0672226 14.0319897,13.2440771 13.9872479,13.4090158 L13.4982846,15.2001376 C13.462065,15.333092 13.3576676,15.4177564 13.244748,15.4177564 Z" id="Shape" fill="#9B9B9B"></path>
                    <path d="M8.26628865,19 C8.23912401,19 8.21195938,18.9949829 8.18479475,18.9849486 C8.04471048,18.9322685 7.96801035,18.755414 8.01275209,18.5904753 L8.50171545,16.7999807 C8.54698983,16.6350419 8.6977269,16.5447333 8.83674589,16.5974133 C8.97683017,16.6500934 9.05406294,16.8269478 9.00878856,16.9918866 L8.5198252,18.7830084 C8.48360569,18.9153356 8.37867565,19 8.26628865,19 Z M9.244748,15.4177564 C9.21758337,15.4177564 9.19041874,15.4127393 9.16325411,15.402705 C9.02316983,15.3500249 8.94593706,15.1731705 8.99121144,15.0082317 L9.4801748,13.2171099 C9.52544918,13.0521712 9.67512097,12.9631168 9.81520525,13.0145426 C9.95528952,13.0672226 10.0319897,13.2440771 9.98724791,13.4090158 L9.49828455,15.2001376 C9.46206505,15.333092 9.35766764,15.4177564 9.244748,15.4177564 Z" id="Shape" fill="#9B9B9B"></path>
                </g>
            </g>
        </g>
    </g>
</svg>