<?xml version="1.0" encoding="UTF-8" standalone="no"?>
<svg
   xmlns:osb="http://www.openswatchbook.org/uri/2009/osb"
   xmlns:dc="http://purl.org/dc/elements/1.1/"
   xmlns:cc="http://creativecommons.org/ns#"
   xmlns:rdf="http://www.w3.org/1999/02/22-rdf-syntax-ns#"
   xmlns:svg="http://www.w3.org/2000/svg"
   xmlns="http://www.w3.org/2000/svg"
   id="svg3759"
   version="1.1"
   viewBox="0 0 210 100"
   height="297mm"
   width="210mm">
  <defs
     id="defs3753">
    <linearGradient
       osb:paint="solid"
       id="linearGradient4586">
      <stop
         id="stop4584"
         offset="0"
         style="stop-color:#000000;stop-opacity:1;" />
    </linearGradient>
  </defs>
  <metadata
     id="metadata3756">
    <rdf:RDF>
      <cc:Work
         rdf:about="">
        <dc:format>image/svg+xml</dc:format>
        <dc:type
           rdf:resource="http://purl.org/dc/dcmitype/StillImage" />
        <dc:title></dc:title>
      </cc:Work>
    </rdf:RDF>
  </metadata>
  <g
     id="layer1">
    <path
       transform="matrix(1.2237983,0,0,1.5012682,-19.256042,-40.585111)"
       d="m 179.9668,81.742188 -0.10938,1.636718 c -0.23086,-0.02129 -0.25706,-0.0034 -0.37109,0.002 0.004,0.07494 -0.003,0.106061 0.0117,0.205079 0.0779,0.523636 0.2921,1.318801 0.44922,2.179687 0.12335,0.675878 0.16669,1.496481 0.008,2.353516 a 0.82343491,0.82343491 0 0 1 0.004,0.09961 c -0.25427,7.421427 -4.18451,13.56851 -9.52539,18.47266 -5.33927,4.90268 -12.12885,8.67266 -18.54687,11.58203 a 0.82343491,0.82343491 0 0 1 -0.0332,0.0137 0.82343491,0.82343491 0 0 1 -0.043,0.0156 c -33.24743,14.24843 -70.402946,18.84152 -106.535159,22.48438 a 0.82343491,0.82343491 0 0 1 -0.02539,0.002 v 0.002 c -7.814633,0.67137 -15.652895,1.26873 -23.564453,1.56836 -0.0024,-0.005 0.0025,0.007 0,0.002 0.04619,0.1004 -0.08555,0.0238 0.28125,0.13476 0.57736,0.17469 2.45109,0.11137 4.289062,-0.10742 a 0.82343491,0.82343491 0 0 1 0.08789,-0.004 v -0.006 c 39.598377,-2.75592 79.69537,-7.17669 116.58398,-20.13086 15.62243,-5.93877 32.70097,-14.4952 37.05469,-29.089847 l 0.01,0.0039 a 0.82343491,0.82343491 0 0 1 0.041,-0.148437 c 0.52981,-1.337774 0.60255,-2.921381 0.58203,-4.683594 -0.0183,-1.57074 -0.059,-3.296396 0.26368,-5.058594 -0.12338,0.0082 -0.24757,0.0295 -0.36133,0.03711 -0.26589,0.01778 -0.49815,0.03405 -0.56446,0.04102 -0.0166,0.0017 -0.0312,0.0056 0.0156,-0.0039 0.0234,-0.0048 0.033,0.02022 0.21484,-0.07813 0.0227,-0.01229 0.0822,-0.05093 0.082,-0.05078 -2.1e-4,1.51e-4 0.11148,-0.0939 0.11133,-0.09375 -1.4e-4,1.5e-4 0.1368,-0.187649 0.13672,-0.1875 -8e-5,1.49e-4 0.0977,-0.32046 0.0977,-0.320313 -1e-5,1.48e-4 -0.0508,-0.363428 -0.0508,-0.363281 5e-5,1.47e-4 -0.14466,-0.242333 -0.14453,-0.242187 2.5e-4,2.91e-4 -0.231,-0.187787 -0.23047,-0.1875 5.3e-4,2.87e-4 -0.0924,-0.04275 -0.1211,-0.05273 -0.0287,-0.01 -0.0479,-0.01534 -0.0644,-0.01953 -0.0171,-0.0043 -0.0229,-0.0058 -0.0332,-0.0078 z m 2.60742,1.248046 a 0.82343491,0.82343491 0 0 1 -0.0391,0.03711 l 0.0195,0.0039 c -0.20455,0.834259 0.30756,-0.817912 0.006,-0.01367 -0.30171,0.80424 0.40049,-0.776621 0.006,-0.01367 -0.39464,0.76295 0.48984,-0.724637 0.008,-0.01367 z m -0.83203,10.154297 c 0.0129,-0.05532 -0.0338,0.0621 -0.17774,0.472657 -0.001,0.0036 -5.1e-4,3.01e-4 -0.002,0.0039 -0.002,0.0051 -1.4e-4,6.83e-4 -0.002,0.0059 a 0.82343491,0.82343491 0 0 1 -0.004,0.0059 h 0.002 c -0.21117,0.603729 -0.16506,0.506387 -0.0742,0.275391 -0.0483,0.181991 0.002,0.04377 0.10546,-0.273437 0.004,-0.01027 0.004,-0.01318 0.008,-0.02344 0.11091,-0.296939 0.14847,-0.4142 0.0801,-0.259766 0.0212,-0.06884 0.0589,-0.183352 0.0645,-0.207031 z m -29.59375,23.187499 c -0.32281,0.12808 -3.46441,1.53238 -0.95313,0.44727 a 0.82343491,0.82343491 0 0 1 0.008,-0.004 0.82343491,0.82343491 0 0 1 0.002,0 c 0.84243,-0.3845 1.05126,-0.48617 0.94336,-0.44336 z M 46.101562,138.99219 c -0.346029,0.0392 -3.786806,0.53476 -1.03125,0.16211 0.916619,-0.13755 1.146594,-0.17517 1.03125,-0.16211 z m -19.107421,4.9707 c 0.05027,-0.009 -0.120647,0.01 -0.455079,0.0508 -0.03801,0.004 -0.0063,0.001 -0.05078,0.006 a 0.82343491,0.82343491 0 0 1 -0.0059,0 0.82343491,0.82343491 0 0 1 -0.0039,0.002 0.82343491,0.82343491 0 0 1 -0.002,0 c -0.0087,0.001 -0.0013,6.8e-4 -0.0098,0.002 -0.628708,0.0788 -0.521458,0.071 -0.269531,0.0449 -0.191098,0.0323 -0.05346,0.0159 0.27539,-0.0293 0.0044,-6e-4 0.0054,-0.001 0.0098,-0.002 0.324949,-0.0365 0.465124,-0.0557 0.300781,-0.043 0.06942,-0.0102 0.187532,-0.0268 0.210938,-0.0312 z"
       id="path3761"
       style="color:#000000;font-style:normal;font-variant:normal;font-weight:normal;font-stretch:normal;font-size:medium;line-height:normal;font-family:sans-serif;font-variant-ligatures:normal;font-variant-position:normal;font-variant-caps:normal;font-variant-numeric:normal;font-variant-alternates:normal;font-feature-settings:normal;text-indent:0;text-align:start;text-decoration:none;text-decoration-line:none;text-decoration-style:solid;text-decoration-color:#000000;letter-spacing:normal;word-spacing:normal;text-transform:none;writing-mode:lr-tb;direction:ltr;text-orientation:mixed;dominant-baseline:auto;baseline-shift:baseline;text-anchor:start;white-space:normal;shape-padding:0;clip-rule:nonzero;display:inline;overflow:visible;visibility:visible;opacity:1;isolation:auto;mix-blend-mode:normal;color-interpolation:sRGB;color-interpolation-filters:linearRGB;solid-color:#000000;solid-opacity:1;vector-effect:none;fill:#ff0000;fill-opacity:1;fill-rule:nonzero;stroke:none;stroke-width:0.21558259px;stroke-linecap:butt;stroke-linejoin:miter;stroke-miterlimit:4;stroke-dasharray:none;stroke-dashoffset:0;stroke-opacity:1;color-rendering:auto;image-rendering:auto;shape-rendering:auto;text-rendering:auto;enable-background:accumulate" />
  </g>
</svg>
