<?xml version="1.0" encoding="UTF-8"?>
<svg width="67px" height="72px" viewBox="0 0 67 72" version="1.1" xmlns="http://www.w3.org/2000/svg" xmlns:xlink="http://www.w3.org/1999/xlink">
    <!-- Generator: Sketch 51.1 (57501) - http://www.bohemiancoding.com/sketch -->
    <title>Подарок</title>
    <desc>Created with Sketch.</desc>
    <defs>
        <linearGradient x1="100%" y1="0%" x2="6.00257567%" y2="98.2856788%" id="linearGradient-1">
            <stop stop-color="#000000" offset="0%"></stop>
            <stop stop-color="#000000" stop-opacity="0" offset="100%"></stop>
        </linearGradient>
    </defs>
    <g id="Тест" stroke="none" stroke-width="1" fill="none" fill-rule="evenodd">
        <g id="Подарок">
            <path d="M43.7480481,16.5318069 C40.5156178,15.6357693 38.2807361,14.4995135 37.0434028,13.1230395 C35.8060696,11.7465654 35.1249353,8.95555399 35,4.75000515 C35.8195466,3.58333505 36.9601733,3 38.4218802,3 C40.6144405,3 46.228881,6.91797905 46.228881,8.55925769 C46.228881,10.2005363 50.7222072,14.6520801 49.237973,15.741191 C48.2484835,16.467265 46.4185086,16.7308036 43.7480481,16.5318069 Z" id="Path-2" stroke="#FFF66E" stroke-width="4" transform="translate(42.269322, 9.798009) scale(-1, 1) translate(-42.269322, -9.798009) "></path>
            <path d="M26.6538107,16.6624076 C23.4213804,15.76637 21.1864986,14.6301141 19.9491654,13.2536401 C18.7118321,11.8771661 18.0306979,9.08615466 17.9057625,4.88060581 C18.7253091,3.71393571 19.8659358,3.13060066 21.3276427,3.13060066 C23.520203,3.13060066 29.1346435,7.04857972 29.1346435,8.68985835 C29.1346435,10.331137 33.6279697,14.7826808 32.1437355,15.8717917 C31.154246,16.5978656 29.3242711,16.8614043 26.6538107,16.6624076 Z" id="Path-2" stroke="#FFF66E" stroke-width="4"></path>
            <g>
                <rect id="Rectangle-9" fill="#3535FF" x="6" y="31" width="55" height="39"></rect>
                <rect id="Rectangle-9" fill="url(#linearGradient-1)" x="6" y="31" width="55" height="39"></rect>
                <rect id="Rectangle-9" fill="#3535FF" transform="translate(32.500000, 24.500000) scale(-1, 1) translate(-32.500000, -24.500000) " x="0" y="18" width="65" height="13"></rect>
                <rect id="Rectangle-9" fill="url(#linearGradient-1)" transform="translate(32.500000, 24.500000) scale(-1, 1) translate(-32.500000, -24.500000) " x="0" y="18" width="65" height="13"></rect>
                <g id="gift-box" fill="#000000" fill-rule="nonzero">
                    <path d="M29.7633437,17 C30.1533111,17 30.520943,16.8152179 30.7539576,16.5013913 C30.9875758,16.1875646 31.0600156,15.7822556 30.9489413,15.406633 C30.0627615,12.369542 28.5312637,9.56145961 26.4588825,7.17686152 C24.7891457,5.39386551 22.3038575,4.63050332 19.9260219,5.17030948 C19.5976282,5.29632482 19.3386559,5.55683724 19.2130936,5.88641584 C19.1448796,6.07180387 19.0941717,6.26325026 19.0621775,6.45833164 C19.0241466,6.68976374 19.0036221,6.92361907 19,7.15808035 L19,7.17807329 C19.0150916,9.15675648 19.8095145,11.04941 21.2106206,12.4422432 C23.5866453,14.5202846 26.3828208,16.0567025 29.4071814,16.9454742 C29.5230851,16.9800072 29.6426108,16.9987884 29.7633437,17 Z M22.9636633,10.6852984 C22.4728836,10.1921421 22.0877456,9.60265693 21.8311879,8.95440484 L21.8311879,8.94228813 C21.7768581,8.80476173 21.7297722,8.66662952 21.6893268,8.53394986 C21.6681985,8.46185451 21.6531069,8.39400009 21.6349969,8.3231165 C21.6162834,8.2522329 21.5999844,8.19891872 21.5879111,8.13712265 C21.575234,8.07472094 21.5728195,8.04988126 21.5643681,8.00565476 C21.5281482,7.82026672 21.5027942,7.63306127 21.4889101,7.44464421 C22.708313,7.53733815 23.8534651,8.06563326 24.7179131,8.93380625 C25.9469747,10.3284569 26.9375886,11.917583 27.6493095,13.6375714 C25.9336941,12.9208591 24.3478666,11.9230357 22.9576265,10.6852984 L22.9636633,10.6852984 Z" id="Shape"></path>
                    <path d="M65.8035714,17.1460348 L47.335458,17.1460348 C48.1340506,16.6021998 48.8841552,15.99024 49.5764246,15.3177246 C53.8562273,11.0392457 53.9964338,4.55223783 51.2624075,1.82724041 C48.5283813,-0.897757011 42.0222168,-0.760342462 37.7248884,3.50998462 C35.9676339,5.41631836 34.5398647,7.59980981 33.5,9.97195508 C32.4601353,7.59806298 31.0311976,5.41340693 29.2721907,3.50649111 C24.9795357,-0.759178008 18.4716187,-0.898921466 15.7370082,1.82607596 C13.0018136,4.55107338 13.1431884,11.0380811 17.4235752,15.3177246 C18.116429,15.99024 18.8665335,16.6021998 19.664542,17.1460348 L1.1964286,17.1460348 C0.535705559,17.1460348 0,17.6799712 0,18.3385123 L0,30.2632873 C0,30.9218283 0.535705559,31.4557648 1.1964286,31.4557648 L3.58928574,31.4557648 L3.58928574,66.0376125 C3.59337499,69.3285709 6.26956615,71.9959241 9.5714286,72 L57.4285714,72 C60.731018,71.9959241 63.4072091,69.3285709 63.4107143,66.0376125 L63.4107143,31.4557648 L65.8035714,31.4557648 C66.4642945,31.4557648 67,30.9218283 67,30.2632873 L67,18.3385123 C67,17.6799712 66.4642945,17.1460348 65.8035714,17.1460348 Z M39.4178815,5.19505774 C42.8564453,1.77833035 47.8717477,1.81792418 49.5717511,3.51231368 C51.2717546,5.20670318 51.3126483,10.203114 47.8845999,13.6314868 C46.3148717,15.0778316 44.5225656,16.2639042 42.5760324,17.1460348 L35.4266706,17.1460348 C35.4266706,17.1209974 35.4266706,17.0936309 35.4266706,17.0685935 C35.4266706,16.7966761 35.4062237,16.5212651 35.3799351,16.2441071 C35.3700038,16.1526916 35.3594883,16.0618584 35.3489728,15.9686961 C35.3215157,15.7398662 35.2876325,15.5116186 35.2467389,15.2845354 C35.2338867,15.2047652 35.2204502,15.1244128 35.2064296,15.045807 C35.1491785,14.7488521 35.0866699,14.4565555 35.0148141,14.1741573 C35.005467,14.1333987 34.9943673,14.0978806 34.9850202,14.0547929 C34.9213431,13.8079128 34.8559134,13.5779185 34.7887311,13.3397724 C34.779384,13.3071656 34.7706211,13.2716474 34.761274,13.2390406 C35.741551,10.267163 37.3270524,7.52819125 39.4178815,5.19505774 Z M38.2857143,29.0708098 L28.7142857,29.0708098 L28.7142857,19.5309898 L38.2857143,19.5309898 L38.2857143,29.0708098 Z M19.1165685,13.6326513 C15.6879359,10.2042785 15.7282454,5.20786763 17.428833,3.51231368 C19.1288365,1.81675973 24.1418021,1.77716575 27.5791975,5.19156423 C29.7559029,7.62193578 31.3875558,10.4878413 32.3649117,13.5971332 C32.4998605,14.0157813 32.6038469,14.4175437 32.7019914,14.8076609 C32.7294486,14.9194557 32.7522322,15.0277568 32.7761841,15.1378049 C32.8410296,15.4289369 32.8930228,15.7066772 32.9321638,15.972772 C32.945016,16.063023 32.9619576,16.1561853 32.9724731,16.2441071 C33.0104457,16.5416443 33.0308925,16.8415105 33.0338134,17.1413767 L24.4239677,17.1413767 C22.4786028,16.2609929 20.686881,15.076667 19.1165685,13.6326513 Z M2.39285717,19.5309898 L26.3214286,19.5309898 L26.3214286,29.0708098 L2.39285717,29.0708098 L2.39285717,19.5309898 Z M5.98214288,66.0376125 L5.98214288,31.4557648 L28.7142857,31.4557648 L28.7142857,69.615045 L9.5714286,69.615045 C7.58925947,69.615045 5.98214288,68.0132356 5.98214288,66.0376125 Z M31.1071429,69.615045 L31.1071429,31.4557648 L35.8928572,31.4557648 L35.8928572,69.615045 L31.1071429,69.615045 Z M61.0178571,66.0376125 C61.0178571,68.0132356 59.4113246,69.615045 57.4285714,69.615045 L38.2857143,69.615045 L38.2857143,31.4557648 L61.0178571,31.4557648 L61.0178571,66.0376125 Z M64.6071429,29.0708098 L40.6785714,29.0708098 L40.6785714,19.5309898 L64.6071429,19.5309898 L64.6071429,29.0708098 Z" id="Shape"></path>
                    <path d="M38.2414061,17 C38.3608107,17 38.4796091,16.9830287 38.5941647,16.949086 C41.634434,16.0605162 44.444986,14.520369 46.8300459,12.4353211 C48.5962631,10.7460687 49.3575426,8.26098279 48.8411331,5.87226945 C48.7162736,5.54375328 48.4562506,5.28433454 48.1277366,5.15886796 C45.7390401,4.64245495 43.2539715,5.40373985 41.5647308,7.16996939 C39.4803039,9.55504578 37.9401673,12.3656175 37.0509977,15.4059081 C36.9400788,15.7817018 37.0122064,16.1878011 37.2467725,16.5011644 C37.4813388,16.8151339 37.8498563,17 38.2414061,17 Z M43.3200379,8.92528872 C44.1892059,8.05732695 45.3402168,7.52939765 46.5645679,7.43544924 C46.4718323,8.6604148 45.9433006,9.81204005 45.0753449,10.6812141 C43.6788576,11.9237571 42.0841709,12.9238528 40.3579574,13.6408909 C41.0755967,11.9146653 42.0768974,10.3211796 43.3200379,8.92528872 Z" id="Shape"></path>
                </g>
            </g>
        </g>
    </g>
</svg>