<?xml version="1.0" encoding="UTF-8" standalone="no"?>
<svg
   xmlns:dc="http://purl.org/dc/elements/1.1/"
   xmlns:cc="http://creativecommons.org/ns#"
   xmlns:rdf="http://www.w3.org/1999/02/22-rdf-syntax-ns#"
   xmlns:svg="http://www.w3.org/2000/svg"
   xmlns="http://www.w3.org/2000/svg"
   xmlns:xlink="http://www.w3.org/1999/xlink"
   xmlns:sodipodi="http://sodipodi.sourceforge.net/DTD/sodipodi-0.dtd"
   xmlns:inkscape="http://www.inkscape.org/namespaces/inkscape"
   version="1.1"
   preserveAspectRatio="none"
   x="0px"
   y="0px"
   viewBox="0 0 44.741558 71.849998"
   id="svg46"
   sodipodi:docname="question.svg"
   width="44.741558"
   height="71.849998"
   inkscape:version="0.92.3 (2405546, 2018-03-11)">
  <metadata
     id="metadata50">
    <rdf:RDF>
      <cc:Work
         rdf:about="">
        <dc:format>image/svg+xml</dc:format>
        <dc:type
           rdf:resource="http://purl.org/dc/dcmitype/StillImage" />
        <dc:title></dc:title>
      </cc:Work>
    </rdf:RDF>
  </metadata>
  <sodipodi:namedview
     pagecolor="#ffffff"
     bordercolor="#666666"
     borderopacity="1"
     objecttolerance="10"
     gridtolerance="10"
     guidetolerance="10"
     inkscape:pageopacity="0"
     inkscape:pageshadow="2"
     inkscape:window-width="1920"
     inkscape:window-height="1017"
     id="namedview48"
     showgrid="false"
     fit-margin-top="0"
     fit-margin-left="0"
     fit-margin-right="0"
     fit-margin-bottom="0"
     inkscape:zoom="6.784"
     inkscape:cx="22.341558"
     inkscape:cy="23.45"
     inkscape:window-x="-8"
     inkscape:window-y="-8"
     inkscape:window-maximized="1"
     inkscape:current-layer="svg46" />
  <defs
     id="defs34">
    <g
       id="a">
      <path
         d="m -5.45,17.15 q -6.15,-0.55 -9.3,3.5 -2.15,2.8 -2.15,6.2 0,3.3 3.05,6.1 3.4,3 8.2,3 3.5,0 5.75,-3.5 1.65,-2.5 1.65,-4.2 0,-3.45 -1.05,-5.65 -1.65,-3.5 -6.15,-5.45 m -7.9,5.8 q 0.65,-1.25 2.55,-2.55 2.35,-1.55 4.2,-1.15 3.05,0.65 4.7,3.55 1.2,2.1 1.2,4.2 0,2.8 -1.7,4.55 -1.9,2 -5.55,2 -1.4,0 -3.8,-1.85 -2.9,-2.25 -2.9,-4.7 0,-1.8 1.3,-4.05 M 18.5,-29.2 q -5.55,-6.6 -17.1,-6.7 -7.65,0.25 -15.35,4.45 -2.8,1.55 -5.3,3.5 -3.45,2.75 -3.05,4.05 0.4,1.25 2.5,4.35 2.85,4.05 4.2,4.05 0.4,0 1.4,-0.8 1.55,-1.25 2.45,-1.75 2.25,-1.45 4.45,-2.05 2.15,-0.6 5.35,-0.6 1.5,0 2.3,1.05 0.6,0.8 0.6,1.8 0,1.3 -2.35,3.85 -3.3,3.3 -7.95,8.8 -2.25,2.65 -3.7,6.4 -1.3,3.45 -1.2,6.15 0.15,3.45 0.25,4 0.2,1.35 1.2,1.3 h 10.45 q -0.15,-3.3 1.95,-6 0.2,-0.2 3.6,-3.6 2.65,-2.55 8.8,-7 5.35,-3.75 7.35,-6.3 3.05,-3.75 3.05,-8.85 0,-5.5 -3.9,-10.1 M 2.65,-33.35 q 9.1,0 13.75,6.2 3.15,4.15 3.15,7.95 0,5.05 -3.8,9.4 -2.4,2.75 -8.4,7.05 Q 1.1,1.75 -1,4.1 q -2.95,3.15 -3.6,6.6 -5.3,0.1 -7,0.05 -0.4,0 -0.15,-5.5 0.25,-5.9 7.6,-13.35 5.25,-5.25 5.25,-5.3 2.4,-2.7 2.4,-4.3 0,-1.4 -0.9,-2.65 -1.65,-2.4 -5.7,-2.4 -4.5,0 -8.6,2.1 -3.6,2.25 -3.75,2.35 -2.15,-1.95 -3.3,-3.55 -1.15,-1.55 -0.9,-2.05 1.5,-2.85 5.95,-5.1 8.7,-4.35 16.35,-4.35 z"
         id="path31"
         inkscape:connector-curvature="0"
         style="fill:#000000;stroke:none" />
    </g>
  </defs>
  <g
     transform="translate(22.341558,35.9)"
     id="g40">
    <g
       id="g38">
      <use
         xlink:href="#a"
         id="use36"
         x="0"
         y="0"
         width="100%"
         height="100%" />
    </g>
  </g>
</svg>
