<?xml version="1.0" encoding="UTF-8" standalone="no"?>
<!-- Created with Inkscape (http://www.inkscape.org/) -->

<svg
   xmlns:dc="http://purl.org/dc/elements/1.1/"
   xmlns:cc="http://creativecommons.org/ns#"
   xmlns:rdf="http://www.w3.org/1999/02/22-rdf-syntax-ns#"
   xmlns:svg="http://www.w3.org/2000/svg"
   xmlns="http://www.w3.org/2000/svg"
   xmlns:sodipodi="http://sodipodi.sourceforge.net/DTD/sodipodi-0.dtd"
   xmlns:inkscape="http://www.inkscape.org/namespaces/inkscape"
   width="144.99966mm"
   height="144.99997mm"
   viewBox="0 0 144.99967 144.99997"
   version="1.1"
   id="svg16"
   sodipodi:docname="question_ring.svg"
   inkscape:version="0.92.3 (2405546, 2018-03-11)">
  <defs
     id="defs10">
    <marker
       id="Arrow2Sstart"
       inkscape:isstock="true"
       inkscape:stockid="Arrow2Sstart"
       orient="auto"
       refX="0"
       refY="0"
       style="overflow:visible">
      <path
         d="M 8.72,4.03 -2.21,0.02 8.72,-4 c -1.75,2.37 -1.74,5.62 0,8.03 z"
         id="Arrow2SstartPath"
         style="fill:#000000;fill-opacity:1;stroke:none"
         transform="matrix(0.3,0,0,0.3,-0.69,0)"
         inkscape:connector-curvature="0" />
    </marker>
    <marker
       id="Arrow2Send"
       inkscape:isstock="true"
       inkscape:stockid="Arrow2Send"
       orient="auto"
       refX="0"
       refY="0"
       style="overflow:visible">
      <path
         d="M 8.72,4.03 -2.21,0.02 8.72,-4 c -1.75,2.37 -1.74,5.62 0,8.03 z"
         id="Arrow2SendPath"
         style="fill:#000000;fill-opacity:1;stroke:none"
         transform="matrix(-0.3,0,0,-0.3,0.69,0)"
         inkscape:connector-curvature="0" />
    </marker>
  </defs>
  <sodipodi:namedview
     id="base"
     pagecolor="#ffffff"
     bordercolor="#666666"
     borderopacity="1.0"
     inkscape:pageopacity="0.0"
     inkscape:pageshadow="2"
     inkscape:zoom="0.49497475"
     inkscape:cx="298.06488"
     inkscape:cy="141.01807"
     inkscape:document-units="mm"
     inkscape:current-layer="layer1"
     showgrid="false"
     inkscape:measure-start="12.1218,276.782"
     inkscape:measure-end="541.442,276.782"
     inkscape:window-width="1920"
     inkscape:window-height="1017"
     inkscape:window-x="-8"
     inkscape:window-y="-8"
     inkscape:window-maximized="1"
     fit-margin-top="0"
     fit-margin-left="0"
     fit-margin-right="0"
     fit-margin-bottom="0" />
  <metadata
     id="metadata13">
    <rdf:RDF>
      <cc:Work
         rdf:about="">
        <dc:format>image/svg+xml</dc:format>
        <dc:type
           rdf:resource="http://purl.org/dc/dcmitype/StillImage" />
        <dc:title></dc:title>
      </cc:Work>
    </rdf:RDF>
  </metadata>
  <g
     inkscape:label="Layer 1"
     inkscape:groupmode="layer"
     id="layer1"
     transform="translate(-26.970332,-26.025341)">
    <g
       id="g67"
       transform="matrix(0.99897547,0,0,1.0367752,-0.21331281,-26.39065)">
      <g
         transform="translate(-17.008929,3.4017857)"
         id="g59">
        <ellipse
           style="fill:#ffffff;stroke:#000000;stroke-width:0.76147085;stroke-linejoin:round;stroke-miterlimit:4;stroke-dasharray:none;stroke-opacity:1"
           id="path51"
           cx="116.79464"
           cy="117.08333"
           rx="72.193451"
           ry="69.547623" />
        <ellipse
           style="fill:#ffffff;stroke:#000000;stroke-width:0.89740449;stroke-linejoin:round;stroke-miterlimit:4;stroke-dasharray:none;stroke-opacity:1"
           id="path55"
           cx="116.79463"
           cy="117.08334"
           rx="67.967735"
           ry="65.321907" />
      </g>
      <path
         transform="scale(0.26458333)"
         inkscape:connector-curvature="0"
         id="path61"
         d="m 348.57143,714.63443 c -67.4874,-6.7799 -133.6137,-40.45887 -177.32916,-90.31604 -46.01791,-52.48311 -67.9536,-116.29686 -63.91655,-185.94156 3.59685,-62.05086 32.55574,-123.24357 79.58918,-168.17905 20.61957,-19.69983 42.76075,-34.87041 70.22796,-48.11845 C 350.51687,177.04297 462.28959,188.30378 545,251.0802 c 50.37694,38.23562 85.20704,93.48584 97.91836,155.32576 5.87691,28.59082 5.85947,69.25885 -0.0421,98.39944 C 616.0199,637.41387 488.05647,728.64733 348.57143,714.63443 Z m 53.06293,-11.2699 c 32.71608,-3.18637 62.78921,-11.46843 91.22278,-25.1225 71.58336,-34.37504 122.05102,-98.0643 138.8481,-175.22373 2.77353,-12.74053 3.19127,-18.9074 3.21757,-47.49862 0.0326,-35.47487 -1.44942,-46.33087 -10.09727,-73.96205 C 612.55141,342.33996 584.0819,299.33212 551.749,271.16366 441.55556,175.16297 269.03516,187.49995 176.28574,298.01313 c -27.1041,32.29518 -44.47182,67.84403 -53.72838,109.97307 -2.83532,12.9043 -3.22103,18.64357 -3.19446,47.53348 0.0263,28.59122 0.44405,34.75809 3.21757,47.49862 9.24404,42.46361 29.15184,81.94776 57.67764,114.39496 53.43638,60.7822 138.94075,93.98003 221.37625,85.95127 z"
         style="fill:#000000;stroke:#000000;stroke-width:4.11142874;stroke-linejoin:round;stroke-miterlimit:4;stroke-dasharray:none;stroke-opacity:1" />
    </g>
    <g
       transform="matrix(4.7800834,0,0,4.7072863,-38.441239,-44.341693)"
       id="g40">
      <g
         id="g38">
        <g
           transform="matrix(0.26458333,0,0,0.26458333,29.108489,30.301653)"
           id="use36">
          <path
             style="fill:#000000;stroke:none"
             inkscape:connector-curvature="0"
             id="path128"
             d="m -5.45,17.15 q -6.15,-0.55 -9.3,3.5 -2.15,2.8 -2.15,6.2 0,3.3 3.05,6.1 3.4,3 8.2,3 3.5,0 5.75,-3.5 1.65,-2.5 1.65,-4.2 0,-3.45 -1.05,-5.65 -1.65,-3.5 -6.15,-5.45 m -7.9,5.8 q 0.65,-1.25 2.55,-2.55 2.35,-1.55 4.2,-1.15 3.05,0.65 4.7,3.55 1.2,2.1 1.2,4.2 0,2.8 -1.7,4.55 -1.9,2 -5.55,2 -1.4,0 -3.8,-1.85 -2.9,-2.25 -2.9,-4.7 0,-1.8 1.3,-4.05 M 18.5,-29.2 q -5.55,-6.6 -17.1,-6.7 -7.65,0.25 -15.35,4.45 -2.8,1.55 -5.3,3.5 -3.45,2.75 -3.05,4.05 0.4,1.25 2.5,4.35 2.85,4.05 4.2,4.05 0.4,0 1.4,-0.8 1.55,-1.25 2.45,-1.75 2.25,-1.45 4.45,-2.05 2.15,-0.6 5.35,-0.6 1.5,0 2.3,1.05 0.6,0.8 0.6,1.8 0,1.3 -2.35,3.85 -3.3,3.3 -7.95,8.8 -2.25,2.65 -3.7,6.4 -1.3,3.45 -1.2,6.15 0.15,3.45 0.25,4 0.2,1.35 1.2,1.3 h 10.45 q -0.15,-3.3 1.95,-6 0.2,-0.2 3.6,-3.6 2.65,-2.55 8.8,-7 5.35,-3.75 7.35,-6.3 3.05,-3.75 3.05,-8.85 0,-5.5 -3.9,-10.1 M 2.65,-33.35 q 9.1,0 13.75,6.2 3.15,4.15 3.15,7.95 0,5.05 -3.8,9.4 -2.4,2.75 -8.4,7.05 Q 1.1,1.75 -1,4.1 q -2.95,3.15 -3.6,6.6 -5.3,0.1 -7,0.05 -0.4,0 -0.15,-5.5 0.25,-5.9 7.6,-13.35 5.25,-5.25 5.25,-5.3 2.4,-2.7 2.4,-4.3 0,-1.4 -0.9,-2.65 -1.65,-2.4 -5.7,-2.4 -4.5,0 -8.6,2.1 -3.6,2.25 -3.75,2.35 -2.15,-1.95 -3.3,-3.55 -1.15,-1.55 -0.9,-2.05 1.5,-2.85 5.95,-5.1 8.7,-4.35 16.35,-4.35 z" />
        </g>
      </g>
    </g>
  </g>
</svg>
