<?xml version="1.0" encoding="UTF-8"?>
<svg width="42px" height="41px" viewBox="0 0 42 41" version="1.1" xmlns="http://www.w3.org/2000/svg" xmlns:xlink="http://www.w3.org/1999/xlink">
    <!-- Generator: Sketch 51.1 (57501) - http://www.bohemiancoding.com/sketch -->
    <title>Group 4</title>
    <desc>Created with Sketch.</desc>
    <defs></defs>
    <g id="Недвижимость" stroke="none" stroke-width="1" fill="none" fill-rule="evenodd">
        <g id="1" transform="translate(-465.000000, -869.000000)">
            <g id="Group-4" transform="translate(465.000000, 869.000000)">
                <ellipse id="Oval-2" fill="#3535FF" cx="18" cy="18.5" rx="18" ry="18.5"></ellipse>
                <g id="question-mark-button" transform="translate(7.000000, 6.000000)" fill="#000000" fill-rule="nonzero">
                    <path d="M17.5012582,35 L17.5012582,34.2002614 L17.5,35 C7.8504085,35 0,27.1493056 0,17.4997141 C0,7.8504085 7.8504085,0 17.5,0 C27.1495915,0 35,7.8504085 35,17.4997141 C35,27.1493056 27.1498775,35 17.5012582,35 Z M17.5,1.5995915 C8.73238562,1.5995915 1.5995915,8.73244281 1.5995915,17.4997141 C1.5995915,26.2672712 8.73238562,33.4004085 17.5,33.4004085 L17.5012582,33.4004085 C26.2678431,33.4004085 33.4004085,26.2672141 33.4004085,17.4996569 C33.4004085,8.73238562 26.2676144,1.5995915 17.5,1.5995915 Z" id="Shape"></path>
                    <g id="Group" transform="translate(13.000000, 8.000000)">
                        <path d="M5,13.0519429 C4.54558824,13.0519429 4.17735294,12.6942286 4.17735294,12.2528 L4.17735294,8.87022857 C4.17735294,8.4288 4.54558824,8.07108571 5,8.07108571 C6.82064706,8.07108571 8.30176471,6.63234286 8.30176471,4.86371429 C8.30176471,3.09474286 6.82064706,1.65537143 5,1.65537143 C3.17935294,1.65537143 1.69794118,3.09474286 1.69794118,4.86371429 C1.69794118,5.30514286 1.32970588,5.66285714 0.875294118,5.66285714 C0.420882353,5.66285714 0.0526470588,5.30514286 0.0526470588,4.86371429 C0.0526470588,2.21348571 2.27211765,0.0570857143 5,0.0570857143 C7.72788235,0.0570857143 9.94705882,2.21348571 9.94705882,4.86371429 C9.94705882,7.24131429 8.16029412,9.22125714 5.82270588,9.60291429 L5.82270588,12.2528571 C5.82258824,12.6942286 5.45447059,13.0519429 5,13.0519429 Z" id="Shape"></path>
                        <ellipse id="Oval" cx="4.99970588" cy="16.6710286" rx="1.35470588" ry="1.316"></ellipse>
                    </g>
                </g>
            </g>
        </g>
    </g>
</svg>