<svg xmlns="http://www.w3.org/2000/svg" xmlns:xlink="http://www.w3.org/1999/xlink" version="1.1" x="0px" y="0px" viewBox="0 0 100 125" enable-background="new 0 0 100 100" xml:space="preserve"><g><g><path d="M16.9,59.9c0,17.4,14.2,31.6,31.6,31.6S80,77.3,80,59.9S65.9,28.3,48.4,28.3S16.9,42.5,16.9,59.9z M78,59.9    c0,16.3-13.3,29.6-29.6,29.6S18.9,76.2,18.9,59.9s13.3-29.6,29.6-29.6S78,43.6,78,59.9z"/><path d="M42.2,50.9c0-0.6-0.4-1-1-1H29.9c-0.6,0-1,0.4-1,1s0.4,1,1,1h11.3C41.8,51.9,42.2,51.5,42.2,50.9z"/><path d="M55.7,51.9H67c0.6,0,1-0.4,1-1s-0.4-1-1-1H55.7c-0.6,0-1,0.4-1,1S55.1,51.9,55.7,51.9z"/><path d="M57.5,67c0-0.6-0.4-1-1-1H40.3c-0.6,0-1,0.4-1,1s0.4,1,1,1h16.2C57.1,68,57.5,67.5,57.5,67z"/><path d="M56.5,72.3c-0.6,0.9-3.3,5.3-3.3,7.2c0,2.3,1.9,4.1,4.1,4.1s4.1-1.9,4.1-4.1c0-1.9-2.8-6.3-3.3-7.2    C57.9,71.7,56.9,71.7,56.5,72.3z M57.4,81.6c-1.2,0-2.1-1-2.1-2.1c0-0.7,1-2.8,2.1-4.8c1.1,2,2.1,4,2.1,4.8    C59.5,80.7,58.6,81.6,57.4,81.6z"/><path d="M78.9,32L77,34.4v1h5.1V34h-2.8v0c0.3-0.3,0.6-0.7,1-1.1l1.8-2.2v-1.1h-4.8V31h2.6v0C79.5,31.4,79.2,31.6,78.9,32z"/><path d="M70.3,21L67,25.3v1.9h9.4v-2.7h-5.2v0c0.6-0.6,1.2-1.3,1.8-2l3.2-4.1v-2h-8.8V19h4.7v0C71.5,19.8,71,20.3,70.3,21z"/><path d="M55.3,14.1l-3.4,4.3v1.9h9.4v-2.7H56v0c0.6-0.6,1.2-1.3,1.8-2l3.2-4.1v-2h-8.8v2.6H57v0C56.4,12.9,55.9,13.4,55.3,14.1z"/></g></g><text x="0" y="115" fill="#000000" font-size="5px" font-weight="bold" font-family="'Helvetica Neue', Helvetica, Arial-Unicode, Arial, Sans-serif">Created by darwis</text><text x="0" y="120" fill="#000000" font-size="5px" font-weight="bold" font-family="'Helvetica Neue', Helvetica, Arial-Unicode, Arial, Sans-serif">from the Noun Project</text></svg>