<?xml version="1.0" encoding="UTF-8"?>
<svg width="211px" height="109px" viewBox="0 0 211 109" version="1.1" xmlns="http://www.w3.org/2000/svg" xmlns:xlink="http://www.w3.org/1999/xlink">
    <!-- Generator: Sketch 51.1 (57501) - http://www.bohemiancoding.com/sketch -->
    <title>картинка</title>
    <desc>Created with Sketch.</desc>
    <defs></defs>
    <g id="Тест" stroke="none" stroke-width="1" fill="none" fill-rule="evenodd">
        <g id="Подсказка-(MV)" transform="translate(-105.000000, -222.000000)">
            <g id="картинка" transform="translate(105.000000, 222.000000)">
                <ellipse id="Oval-4" stroke="#ED8A19" stroke-width="6" cx="104.011335" cy="39.9297505" rx="31.0113349" ry="31.9297505"></ellipse>
                <g id="star-(1)" transform="translate(84.000000, 20.000000)" fill="#ED8A19" fill-rule="nonzero">
                    <path d="M20.8346141,1.16153125 L25.1205327,10.0034534 C25.4185733,10.6184173 25.9948379,11.044534 26.6614659,11.1429928 L36.2455313,12.5609608 C37.9243875,12.8095289 38.5941861,14.909445 37.3798293,16.1143546 L30.4448373,22.9967854 C29.9628994,23.4753597 29.7425396,24.1653783 29.8566828,24.8408701 L31.493528,34.5592369 C31.7804713,36.2612826 30.0255196,37.5590018 28.5242195,36.7559977 L19.9523823,32.1679795 C19.3563012,31.849199 18.6436988,31.849199 18.0476177,32.1679795 L9.47578052,36.7559977 C7.97448039,37.5598088 6.21952871,36.2612826 6.50647203,34.5592369 L8.14331721,24.8408701 C8.2574604,24.1653783 8.03710062,23.4753597 7.55516267,22.9967854 L0.620170678,16.1143546 C-0.594186131,14.908638 0.0756125004,12.8087218 1.75446872,12.5609608 L11.3385341,11.1429928 C12.0051621,11.044534 12.5814267,10.6184173 12.8794673,10.0034534 L17.1653859,1.16153125 C17.9152433,-0.387177084 20.0839641,-0.387177084 20.8346141,1.16153125 Z" id="Shape"></path>
                </g>
                <polygon id="Rectangle-2" fill="#ED8A19" opacity="0.7" points="51.9729036 10 56.4051489 13.6954562 47.4322453 25.104227 43 21.4087709"></polygon>
                <polygon id="Rectangle-2" fill="#ED8A19" opacity="0.15" points="205.972904 38 210.405149 41.6954562 201.432245 53.104227 197 49.4087709"></polygon>
                <polygon id="Rectangle-2" fill="#ED8A19" opacity="0.6" points="41.9729036 73 46.4051489 76.6954562 37.4322453 88.104227 33 84.4087709"></polygon>
                <polygon id="Rectangle-2" fill="#ED8A19" opacity="0.1" points="178.972904 79 183.405149 82.6954562 174.432245 94.104227 170 90.4087709"></polygon>
                <polygon id="Rectangle-2" fill="#ED8A19" opacity="0.2" points="123 86.6658949 128.081619 84 134.554654 97.0802832 129.473035 99.7461781"></polygon>
                <polygon id="Rectangle-2" fill="#ED8A19" opacity="0.5" points="138 73.7642503 139.088228 68 153.084352 70.8011419 151.996124 76.5653922"></polygon>
                <polygon id="Rectangle-2" fill="#ED8A19" opacity="0.462276786" points="170 50.36812 174.671816 47 182.849917 59.0254346 178.178102 62.3935546"></polygon>
                <polygon id="Rectangle-2" fill="#ED8A19" opacity="0.8" points="140 3.36812 144.671816 0 152.849917 12.0254346 148.178102 15.3935546"></polygon>
                <polygon id="Rectangle-2" fill="#ED8A19" opacity="0.1" points="0 54.36812 4.6718158 51 12.8499174 63.0254346 8.1781016 66.3935546"></polygon>
                <polygon id="Rectangle-2" fill="#ED8A19" opacity="0.8" points="163.723991 31 167.895072 35.0047885 158.171081 45.7413132 154 41.7365247"></polygon>
                <polygon id="Rectangle-2" fill="#ED8A19" opacity="0.8" points="109.723991 77 113.895072 81.0047885 104.171081 91.7413132 100 87.7365247"></polygon>
                <polygon id="Rectangle-2" fill="#ED8A19" opacity="0.8" points="61.6350745 51 63.3025388 56.6155535 49.6674643 60.907671 48 55.2921175"></polygon>
                <polygon id="Rectangle-2" fill="#ED8A19" opacity="0.3" points="89.6350745 99 91.3025388 104.615554 77.6674643 108.907671 76 103.292118"></polygon>
                <polygon id="Rectangle-2" fill="#ED8A19" opacity="0.3" points="22.6674643 31 36.3025388 35.2921175 34.6350745 40.907671 21 36.6155535"></polygon>
                <polygon id="Rectangle-2" fill="#ED8A19" opacity="0.6" points="56.4970696 81 70.7008983 82.2794764 70.2038287 88.1292691 56 86.8497928"></polygon>
                <polygon id="Rectangle-2" fill="#ED8A19" opacity="0.2" points="186.432245 6 195.405149 17.4087709 190.972904 21.104227 182 9.69545619"></polygon>
                <polygon id="Rectangle-2" fill="#ED8A19" opacity="0.1" points="4.43224528 2 13.4051489 13.4087709 8.97290365 17.104227 0 5.69545619"></polygon>
            </g>
        </g>
    </g>
</svg>