<?xml version="1.0" encoding="UTF-8" standalone="no"?>
<svg
   xmlns:dc="http://purl.org/dc/elements/1.1/"
   xmlns:cc="http://creativecommons.org/ns#"
   xmlns:rdf="http://www.w3.org/1999/02/22-rdf-syntax-ns#"
   xmlns:svg="http://www.w3.org/2000/svg"
   xmlns="http://www.w3.org/2000/svg"
   xmlns:sodipodi="http://sodipodi.sourceforge.net/DTD/sodipodi-0.dtd"
   xmlns:inkscape="http://www.inkscape.org/namespaces/inkscape"
   width="74.175903"
   height="60.023125"
   viewBox="0 0 74.175903 60.023125"
   version="1.1"
   id="svg172"
   sodipodi:docname="спасибо.svg"
   inkscape:version="0.92.4 (5da689c313, 2019-01-14)">
  <metadata
     id="metadata176">
    <rdf:RDF>
      <cc:Work
         rdf:about="">
        <dc:format>image/svg+xml</dc:format>
        <dc:type
           rdf:resource="http://purl.org/dc/dcmitype/StillImage" />
        <dc:title>Group 15</dc:title>
      </cc:Work>
    </rdf:RDF>
  </metadata>
  <sodipodi:namedview
     pagecolor="#ffffff"
     bordercolor="#666666"
     borderopacity="1"
     objecttolerance="10"
     gridtolerance="10"
     guidetolerance="10"
     inkscape:pageopacity="0"
     inkscape:pageshadow="2"
     inkscape:window-width="1920"
     inkscape:window-height="1017"
     id="namedview174"
     showgrid="false"
     fit-margin-top="0"
     fit-margin-left="0"
     fit-margin-right="0"
     fit-margin-bottom="0"
     inkscape:zoom="8.742268"
     inkscape:cx="23.457899"
     inkscape:cy="28.24516"
     inkscape:window-x="-8"
     inkscape:window-y="-8"
     inkscape:window-maximized="1"
     inkscape:current-layer="Тест" />
  <!-- Generator: Sketch 51.1 (57501) - http://www.bohemiancoding.com/sketch -->
  <title
     id="title94">Group 15</title>
  <desc
     id="desc96">Created with Sketch.</desc>
  <defs
     id="defs98" />
  <g
     id="Тест"
     transform="matrix(0.77174417,0,0,0.79020931,0.12929791,-7.2256685)"
     style="fill:none;fill-rule:evenodd;stroke:none;stroke-width:1">
    <g
       id="g3966">
      <g
         id="Group-14"
         transform="translate(37)">
        <path
           d="M 26.250066,9.6108687 55.345711,20.763736 c 1.809913,0.693771 2.86856,2.587108 2.86856,4.522937 v 8.169195 l -0.148219,16.714478"
           id="Path-10"
           inkscape:connector-curvature="0"
           style="fill:#ffffff;stroke:#3535ff"
           sodipodi:nodetypes="csscc" />
        <g
           id="Group-13"
           transform="translate(16,15)">
          <rect
             id="Rectangle-15"
             transform="rotate(22,38.065272,9.838446)"
             x="34.107323"
             y="9.8384457"
             width="7.9158974"
             height="1"
             rx="0.5"
             style="fill:#d8d8d8;stroke:#3535ff"
             ry="0.5" />
          <rect
             id="rect102"
             transform="rotate(22,16.320641,5.133569)"
             x="12.362693"
             y="5.1335688"
             width="7.9158974"
             height="1"
             rx="0.5"
             style="fill:#d8d8d8;stroke:#3535ff" />
          <rect
             id="rect104"
             transform="rotate(22,16.650895,0.650895)"
             x="16.150896"
             y="0.15089522"
             width="1"
             height="1"
             rx="0.5"
             style="fill:#3535ff" />
          <rect
             id="rect106"
             transform="rotate(22,22.650895,7.650895)"
             x="22.150896"
             y="7.1508951"
             width="1"
             height="1"
             rx="0.5"
             style="fill:#3535ff" />
          <rect
             id="rect108"
             transform="rotate(22,7.650895,1.650895)"
             x="7.1508951"
             y="1.1508952"
             width="1"
             height="1"
             rx="0.5"
             style="fill:#3535ff" />
          <rect
             id="rect110"
             transform="rotate(22,9.680702,6.969965)"
             x="9.1807013"
             y="6.469965"
             width="1"
             height="1"
             rx="0.5"
             style="fill:#3535ff" />
          <rect
             id="rect112"
             transform="rotate(22,5.650895,8.650895)"
             x="5.1508951"
             y="8.1508951"
             width="1"
             height="1"
             rx="0.5"
             style="fill:#3535ff" />
          <rect
             id="rect114"
             transform="rotate(22,0.650895,11.650895)"
             x="0.15089522"
             y="11.150895"
             width="1"
             height="1"
             rx="0.5"
             style="fill:#3535ff" />
          <rect
             id="rect116"
             transform="rotate(22,28.304468,15.030035)"
             x="25.474646"
             y="15.030035"
             width="5.6596456"
             height="1"
             rx="0.5"
             style="fill:#3535ff;stroke:#3535ff" />
          <rect
             id="rect118"
             transform="rotate(22,21.304468,12.030035)"
             x="18.474646"
             y="12.030035"
             width="5.6596456"
             height="1"
             rx="0.5"
             style="fill:#d8d8d8;stroke:#3535ff" />
          <rect
             id="rect120"
             transform="rotate(22,14.304468,9.030035)"
             x="11.474645"
             y="9.030035"
             width="5.6596456"
             height="1"
             rx="0.5"
             style="fill:#d8d8d8;stroke:#3535ff" />
          <rect
             id="rect122"
             transform="rotate(22,24.817145,4.142222)"
             x="18.16663"
             y="4.1422219"
             width="13.30103"
             height="1"
             rx="0.5"
             style="fill:#d8d8d8;stroke:#3535ff" />
          <rect
             id="rect124"
             transform="rotate(22,14.689461,13.49466)"
             x="7.0981231"
             y="13.49466"
             width="15.182674"
             height="1"
             rx="0.5"
             style="fill:#d8d8d8;stroke:#3535ff" />
          <rect
             id="rect126"
             transform="rotate(22,9.889668,15.49466)"
             x="2.2983308"
             y="15.49466"
             width="15.182674"
             height="1"
             rx="0.5"
             style="fill:#d8d8d8;stroke:#3535ff" />
          <rect
             id="rect128"
             transform="rotate(22,30.817145,11.142222)"
             x="24.16663"
             y="11.142221"
             width="13.30103"
             height="1"
             rx="0.5"
             style="fill:#d8d8d8;stroke:#3535ff" />
        </g>
      </g>
      <path
         d="M 27.929238,84.643251 C 1.485323,73.259742 3.991943,74.510397 2.406614,73.445011"
         id="path132"
         inkscape:connector-curvature="0"
         style="fill:#ffffff;stroke:#3535ff"
         sodipodi:nodetypes="cc" />
      <g
         id="g164"
         transform="rotate(180,22,41)">
        <rect
           id="rect134"
           transform="rotate(22,38.065272,9.838446)"
           x="34.107323"
           y="9.8384457"
           width="7.9158974"
           height="1"
           rx="0.5"
           style="fill:#d8d8d8;stroke:#3535ff" />
        <rect
           id="rect136"
           transform="rotate(22,16.320641,5.133569)"
           x="12.362693"
           y="5.1335688"
           width="7.9158974"
           height="1"
           rx="0.5"
           style="fill:#d8d8d8;stroke:#3535ff" />
        <rect
           id="rect138"
           transform="rotate(22,16.650895,0.650895)"
           x="16.150896"
           y="0.15089522"
           width="1"
           height="1"
           rx="0.5"
           style="fill:#3535ff" />
        <rect
           id="rect140"
           transform="rotate(22,22.650895,7.650895)"
           x="22.150896"
           y="7.1508951"
           width="1"
           height="1"
           rx="0.5"
           style="fill:#3535ff" />
        <rect
           id="rect142"
           transform="rotate(22,7.650895,1.650895)"
           x="7.1508951"
           y="1.1508952"
           width="1"
           height="1"
           rx="0.5"
           style="fill:#3535ff" />
        <rect
           id="rect144"
           transform="rotate(22,9.680702,6.969965)"
           x="9.1807013"
           y="6.469965"
           width="1"
           height="1"
           rx="0.5"
           style="fill:#3535ff" />
        <rect
           id="rect146"
           transform="rotate(22,5.650895,8.650895)"
           x="5.1508951"
           y="8.1508951"
           width="1"
           height="1"
           rx="0.5"
           style="fill:#3535ff" />
        <rect
           id="rect148"
           transform="rotate(22,0.650895,11.650895)"
           x="0.15089522"
           y="11.150895"
           width="1"
           height="1"
           rx="0.5"
           style="fill:#3535ff" />
        <rect
           id="rect150"
           transform="rotate(22,28.304468,15.030035)"
           x="25.474646"
           y="15.030035"
           width="5.6596456"
           height="1"
           rx="0.5"
           style="fill:#3535ff;stroke:#3535ff" />
        <rect
           id="rect152"
           transform="rotate(22,21.304468,12.030035)"
           x="18.474646"
           y="12.030035"
           width="5.6596456"
           height="1"
           rx="0.5"
           style="fill:#d8d8d8;stroke:#3535ff" />
        <rect
           id="rect154"
           transform="rotate(22,14.304468,9.030035)"
           x="11.474645"
           y="9.030035"
           width="5.6596456"
           height="1"
           rx="0.5"
           style="fill:#d8d8d8;stroke:#3535ff" />
        <rect
           id="rect156"
           transform="rotate(22,24.817145,4.142222)"
           x="18.16663"
           y="4.1422219"
           width="13.30103"
           height="1"
           rx="0.5"
           style="fill:#d8d8d8;stroke:#3535ff" />
        <rect
           id="rect158"
           transform="rotate(22,14.689461,13.49466)"
           x="7.0981231"
           y="13.49466"
           width="15.182674"
           height="1"
           rx="0.5"
           style="fill:#d8d8d8;stroke:#3535ff" />
        <rect
           id="rect160"
           transform="rotate(22,9.889668,15.49466)"
           x="2.2983308"
           y="15.49466"
           width="15.182674"
           height="1"
           rx="0.5"
           style="fill:#d8d8d8;stroke:#3535ff" />
        <rect
           id="rect162"
           transform="rotate(22,30.817145,11.142222)"
           x="24.16663"
           y="11.142221"
           width="13.30103"
           height="1"
           rx="0.5"
           style="fill:#d8d8d8;stroke:#3535ff" />
      </g>
      <path
         d="M 3.7423936,41.29121 C 0.98260685,42.345337 0.81092862,44.435042 0.80652645,44.678524 L 0.47249195,63.154059 C 0.0277976,70.854806 0.5965832,72.272293 3.147707,73.951654 0.33814154,70.968391 0.96360225,69.714172 5.0897647,68.366452 L 92.030399,54.685521 c 0.239533,-0.04133 3.331746,-0.797981 3.035653,-4.515175 l 0.380977,-25.80555 c -4.49e-4,-0.02828 -0.891222,-1.648975 -1.785977,-2.834869 4.009257,3.7034 -0.600961,5.624332 -0.873197,5.670639 z"
         id="Rectangle-14"
         inkscape:connector-curvature="0"
         style="fill:#ffffff;stroke:#3535ff"
         sodipodi:nodetypes="csccccccccc" />
      <text
         id="спасибо"
         transform="matrix(0.98699687,-0.16135843,0.16076398,0.98689206,0,0)"
         font-size="18"
         font-weight="400"
         style="font-weight:400;font-size:18px;font-family:Roboto-Medium, Roboto;fill:#9b9b9b"
         x="-14.8915"
         y="7.6410351">
        <tspan
           x="2.332598"
           y="59.95153"
           id="tspan167">спасибо</tspan>
      </text>
    </g>
  </g>
</svg>
